<?xml version="1.0" encoding="utf-8" standalone="no"?>
<!DOCTYPE svg PUBLIC "-//W3C//DTD SVG 1.1//EN"
  "http://www.w3.org/Graphics/SVG/1.1/DTD/svg11.dtd">
<svg xmlns:xlink="http://www.w3.org/1999/xlink" width="143.2625pt" height="471.939232pt" viewBox="0 0 143.2625 471.939232" xmlns="http://www.w3.org/2000/svg" version="1.1">
 <metadata>
  <rdf:RDF xmlns:dc="http://purl.org/dc/elements/1.1/" xmlns:cc="http://creativecommons.org/ns#" xmlns:rdf="http://www.w3.org/1999/02/22-rdf-syntax-ns#">
   <cc:Work>
    <dc:type rdf:resource="http://purl.org/dc/dcmitype/StillImage"/>
    <dc:date>2024-11-27T00:05:56.641456</dc:date>
    <dc:format>image/svg+xml</dc:format>
    <dc:creator>
     <cc:Agent>
      <dc:title>Matplotlib v3.9.2, https://matplotlib.org/</dc:title>
     </cc:Agent>
    </dc:creator>
   </cc:Work>
  </rdf:RDF>
 </metadata>
 <defs>
  <style type="text/css">*{stroke-linejoin: round; stroke-linecap: butt}</style>
 </defs>
 <g id="figure_1">
  <g id="patch_1">
   <path d="M 0 471.939232 
L 143.2625 471.939232 
L 143.2625 0 
L 0 0 
L 0 471.939232 
z
" style="fill: none"/>
  </g>
  <g id="axes_1">
   <g id="patch_2">
    <path d="M 31.6625 79.255698 
L 143.2625 79.255698 
L 143.2625 2.786732 
L 31.6625 2.786732 
L 31.6625 79.255698 
z
" style="fill: none"/>
   </g>
   <g id="matplotlib.axis_1">
    <g id="xtick_1">
     <g id="line2d_1">
      <defs>
       <path id="mdbc0a5e613" d="M 0 0 
L 0 3.5 
" style="stroke: #000000; stroke-width: 0.8"/>
      </defs>
      <g>
       <use xlink:href="#mdbc0a5e613" x="45.560505" y="79.255698" style="stroke: #000000; stroke-width: 0.8"/>
      </g>
     </g>
     <g id="text_1">
      <!-- 0.25 -->
      <g transform="translate(37.77613 91.981948) scale(0.08 -0.08)">
       <defs>
        <path id="ArialMT-30" d="M 266 2259 
Q 266 3072 433 3567 
Q 600 4063 929 4331 
Q 1259 4600 1759 4600 
Q 2128 4600 2406 4451 
Q 2684 4303 2865 4023 
Q 3047 3744 3150 3342 
Q 3253 2941 3253 2259 
Q 3253 1453 3087 958 
Q 2922 463 2592 192 
Q 2263 -78 1759 -78 
Q 1097 -78 719 397 
Q 266 969 266 2259 
z
M 844 2259 
Q 844 1131 1108 757 
Q 1372 384 1759 384 
Q 2147 384 2411 759 
Q 2675 1134 2675 2259 
Q 2675 3391 2411 3762 
Q 2147 4134 1753 4134 
Q 1366 4134 1134 3806 
Q 844 3388 844 2259 
z
" transform="scale(0.015625)"/>
        <path id="ArialMT-2e" d="M 581 0 
L 581 641 
L 1222 641 
L 1222 0 
L 581 0 
z
" transform="scale(0.015625)"/>
        <path id="ArialMT-32" d="M 3222 541 
L 3222 0 
L 194 0 
Q 188 203 259 391 
Q 375 700 629 1000 
Q 884 1300 1366 1694 
Q 2113 2306 2375 2664 
Q 2638 3022 2638 3341 
Q 2638 3675 2398 3904 
Q 2159 4134 1775 4134 
Q 1369 4134 1125 3890 
Q 881 3647 878 3216 
L 300 3275 
Q 359 3922 746 4261 
Q 1134 4600 1788 4600 
Q 2447 4600 2831 4234 
Q 3216 3869 3216 3328 
Q 3216 3053 3103 2787 
Q 2991 2522 2730 2228 
Q 2469 1934 1863 1422 
Q 1356 997 1212 845 
Q 1069 694 975 541 
L 3222 541 
z
" transform="scale(0.015625)"/>
        <path id="ArialMT-35" d="M 266 1200 
L 856 1250 
Q 922 819 1161 601 
Q 1400 384 1738 384 
Q 2144 384 2425 690 
Q 2706 997 2706 1503 
Q 2706 1984 2436 2262 
Q 2166 2541 1728 2541 
Q 1456 2541 1237 2417 
Q 1019 2294 894 2097 
L 366 2166 
L 809 4519 
L 3088 4519 
L 3088 3981 
L 1259 3981 
L 1013 2750 
Q 1425 3038 1878 3038 
Q 2478 3038 2890 2622 
Q 3303 2206 3303 1553 
Q 3303 931 2941 478 
Q 2500 -78 1738 -78 
Q 1113 -78 717 272 
Q 322 622 266 1200 
z
" transform="scale(0.015625)"/>
       </defs>
       <use xlink:href="#ArialMT-30"/>
       <use xlink:href="#ArialMT-2e" x="55.615234"/>
       <use xlink:href="#ArialMT-32" x="83.398438"/>
       <use xlink:href="#ArialMT-35" x="139.013672"/>
      </g>
     </g>
    </g>
    <g id="xtick_2">
     <g id="line2d_2">
      <g>
       <use xlink:href="#mdbc0a5e613" x="79.610024" y="79.255698" style="stroke: #000000; stroke-width: 0.8"/>
      </g>
     </g>
     <g id="text_2">
      <!-- 0.50 -->
      <g transform="translate(71.825649 91.981948) scale(0.08 -0.08)">
       <use xlink:href="#ArialMT-30"/>
       <use xlink:href="#ArialMT-2e" x="55.615234"/>
       <use xlink:href="#ArialMT-35" x="83.398438"/>
       <use xlink:href="#ArialMT-30" x="139.013672"/>
      </g>
     </g>
    </g>
    <g id="xtick_3">
     <g id="line2d_3">
      <g>
       <use xlink:href="#mdbc0a5e613" x="113.659544" y="79.255698" style="stroke: #000000; stroke-width: 0.8"/>
      </g>
     </g>
     <g id="text_3">
      <!-- 0.75 -->
      <g transform="translate(105.875169 91.981948) scale(0.08 -0.08)">
       <defs>
        <path id="ArialMT-37" d="M 303 3981 
L 303 4522 
L 3269 4522 
L 3269 4084 
Q 2831 3619 2401 2847 
Q 1972 2075 1738 1259 
Q 1569 684 1522 0 
L 944 0 
Q 953 541 1156 1306 
Q 1359 2072 1739 2783 
Q 2119 3494 2547 3981 
L 303 3981 
z
" transform="scale(0.015625)"/>
       </defs>
       <use xlink:href="#ArialMT-30"/>
       <use xlink:href="#ArialMT-2e" x="55.615234"/>
       <use xlink:href="#ArialMT-37" x="83.398438"/>
       <use xlink:href="#ArialMT-35" x="139.013672"/>
      </g>
     </g>
    </g>
   </g>
   <g id="matplotlib.axis_2">
    <g id="ytick_1">
     <g id="line2d_4">
      <defs>
       <path id="mf24ee908a6" d="M 0 0 
L -3.5 0 
" style="stroke: #000000; stroke-width: 0.8"/>
      </defs>
      <g>
       <use xlink:href="#mf24ee908a6" x="31.6625" y="79.255698" style="stroke: #000000; stroke-width: 0.8"/>
      </g>
     </g>
     <g id="text_4">
      <!-- 0 -->
      <g transform="translate(20.21375 82.118823) scale(0.08 -0.08)">
       <use xlink:href="#ArialMT-30"/>
      </g>
     </g>
    </g>
    <g id="ytick_2">
     <g id="line2d_5">
      <g>
       <use xlink:href="#mf24ee908a6" x="31.6625" y="41.059411" style="stroke: #000000; stroke-width: 0.8"/>
      </g>
     </g>
     <g id="text_5">
      <!-- 50 -->
      <g transform="translate(15.765 43.922536) scale(0.08 -0.08)">
       <use xlink:href="#ArialMT-35"/>
       <use xlink:href="#ArialMT-30" x="55.615234"/>
      </g>
     </g>
    </g>
    <g id="ytick_3">
     <g id="line2d_6">
      <g>
       <use xlink:href="#mf24ee908a6" x="31.6625" y="2.863125" style="stroke: #000000; stroke-width: 0.8"/>
      </g>
     </g>
     <g id="text_6">
      <!-- 100 -->
      <g transform="translate(11.31625 5.72625) scale(0.08 -0.08)">
       <defs>
        <path id="ArialMT-31" d="M 2384 0 
L 1822 0 
L 1822 3584 
Q 1619 3391 1289 3197 
Q 959 3003 697 2906 
L 697 3450 
Q 1169 3672 1522 3987 
Q 1875 4303 2022 4600 
L 2384 4600 
L 2384 0 
z
" transform="scale(0.015625)"/>
       </defs>
       <use xlink:href="#ArialMT-31"/>
       <use xlink:href="#ArialMT-30" x="55.615234"/>
       <use xlink:href="#ArialMT-30" x="111.230469"/>
      </g>
     </g>
    </g>
   </g>
   <g id="patch_3">
    <path d="M 33.901557 79.255698 
L 37.618263 79.255698 
L 37.618263 66.268961 
L 33.901557 66.268961 
z
" clip-path="url(#p1be036c412)" style="fill: #46327e; opacity: 0.5"/>
   </g>
   <g id="patch_4">
    <path d="M 37.618263 79.255698 
L 41.334968 79.255698 
L 41.334968 19.669491 
L 37.618263 19.669491 
z
" clip-path="url(#p1be036c412)" style="fill: #46327e; opacity: 0.5"/>
   </g>
   <g id="patch_5">
    <path d="M 41.334968 79.255698 
L 45.051674 79.255698 
L 45.051674 30.364451 
L 41.334968 30.364451 
z
" clip-path="url(#p1be036c412)" style="fill: #46327e; opacity: 0.5"/>
   </g>
   <g id="patch_6">
    <path d="M 45.051674 79.255698 
L 48.768379 79.255698 
L 48.768379 47.934743 
L 45.051674 47.934743 
z
" clip-path="url(#p1be036c412)" style="fill: #46327e; opacity: 0.5"/>
   </g>
   <g id="patch_7">
    <path d="M 48.768379 79.255698 
L 52.485084 79.255698 
L 52.485084 63.213258 
L 48.768379 63.213258 
z
" clip-path="url(#p1be036c412)" style="fill: #46327e; opacity: 0.5"/>
   </g>
   <g id="patch_8">
    <path d="M 52.485084 79.255698 
L 56.20179 79.255698 
L 56.20179 60.92148 
L 52.485084 60.92148 
z
" clip-path="url(#p1be036c412)" style="fill: #46327e; opacity: 0.5"/>
   </g>
   <g id="patch_9">
    <path d="M 56.20179 79.255698 
L 59.918495 79.255698 
L 59.918495 76.963921 
L 56.20179 76.963921 
z
" clip-path="url(#p1be036c412)" style="fill: #46327e; opacity: 0.5"/>
   </g>
   <g id="patch_10">
    <path d="M 59.918495 79.255698 
L 63.635201 79.255698 
L 63.635201 78.491772 
L 59.918495 78.491772 
z
" clip-path="url(#p1be036c412)" style="fill: #46327e; opacity: 0.5"/>
   </g>
   <g id="patch_11">
    <path d="M 63.635201 79.255698 
L 67.351906 79.255698 
L 67.351906 76.963921 
L 63.635201 76.963921 
z
" clip-path="url(#p1be036c412)" style="fill: #46327e; opacity: 0.5"/>
   </g>
   <g id="patch_12">
    <path d="M 67.351906 79.255698 
L 71.068612 79.255698 
L 71.068612 76.199995 
L 67.351906 76.199995 
z
" clip-path="url(#p1be036c412)" style="fill: #46327e; opacity: 0.5"/>
   </g>
   <g id="patch_13">
    <path d="M 31.6625 79.255698 
L 31.6625 2.786732 
" style="fill: none; stroke: #000000; stroke-width: 0.8; stroke-linejoin: miter; stroke-linecap: square"/>
   </g>
   <g id="patch_14">
    <path d="M 31.6625 79.255698 
L 143.2625 79.255698 
" style="fill: none; stroke: #000000; stroke-width: 0.8; stroke-linejoin: miter; stroke-linecap: square"/>
   </g>
   <g id="legend_1">
    <g id="patch_15">
     <path d="M 109.21375 15.712982 
L 125.21375 15.712982 
L 125.21375 10.112982 
L 109.21375 10.112982 
z
" style="fill: #46327e; opacity: 0.5"/>
    </g>
    <g id="text_7">
     <!-- 0 -->
     <g transform="translate(131.61375 15.712982) scale(0.08 -0.08)">
      <use xlink:href="#ArialMT-30"/>
     </g>
    </g>
   </g>
  </g>
  <g id="axes_2">
   <g id="patch_16">
    <path d="M 31.6625 171.018457 
L 143.2625 171.018457 
L 143.2625 94.549491 
L 31.6625 94.549491 
L 31.6625 171.018457 
z
" style="fill: none"/>
   </g>
   <g id="matplotlib.axis_3">
    <g id="xtick_4">
     <g id="line2d_7">
      <g>
       <use xlink:href="#mdbc0a5e613" x="45.560505" y="171.018457" style="stroke: #000000; stroke-width: 0.8"/>
      </g>
     </g>
     <g id="text_8">
      <!-- 0.25 -->
      <g transform="translate(37.77613 183.744707) scale(0.08 -0.08)">
       <use xlink:href="#ArialMT-30"/>
       <use xlink:href="#ArialMT-2e" x="55.615234"/>
       <use xlink:href="#ArialMT-32" x="83.398438"/>
       <use xlink:href="#ArialMT-35" x="139.013672"/>
      </g>
     </g>
    </g>
    <g id="xtick_5">
     <g id="line2d_8">
      <g>
       <use xlink:href="#mdbc0a5e613" x="79.610024" y="171.018457" style="stroke: #000000; stroke-width: 0.8"/>
      </g>
     </g>
     <g id="text_9">
      <!-- 0.50 -->
      <g transform="translate(71.825649 183.744707) scale(0.08 -0.08)">
       <use xlink:href="#ArialMT-30"/>
       <use xlink:href="#ArialMT-2e" x="55.615234"/>
       <use xlink:href="#ArialMT-35" x="83.398438"/>
       <use xlink:href="#ArialMT-30" x="139.013672"/>
      </g>
     </g>
    </g>
    <g id="xtick_6">
     <g id="line2d_9">
      <g>
       <use xlink:href="#mdbc0a5e613" x="113.659544" y="171.018457" style="stroke: #000000; stroke-width: 0.8"/>
      </g>
     </g>
     <g id="text_10">
      <!-- 0.75 -->
      <g transform="translate(105.875169 183.744707) scale(0.08 -0.08)">
       <use xlink:href="#ArialMT-30"/>
       <use xlink:href="#ArialMT-2e" x="55.615234"/>
       <use xlink:href="#ArialMT-37" x="83.398438"/>
       <use xlink:href="#ArialMT-35" x="139.013672"/>
      </g>
     </g>
    </g>
   </g>
   <g id="matplotlib.axis_4">
    <g id="ytick_4">
     <g id="line2d_10">
      <g>
       <use xlink:href="#mf24ee908a6" x="31.6625" y="171.018457" style="stroke: #000000; stroke-width: 0.8"/>
      </g>
     </g>
     <g id="text_11">
      <!-- 0 -->
      <g transform="translate(20.21375 173.881582) scale(0.08 -0.08)">
       <use xlink:href="#ArialMT-30"/>
      </g>
     </g>
    </g>
    <g id="ytick_5">
     <g id="line2d_11">
      <g>
       <use xlink:href="#mf24ee908a6" x="31.6625" y="132.82217" style="stroke: #000000; stroke-width: 0.8"/>
      </g>
     </g>
     <g id="text_12">
      <!-- 50 -->
      <g transform="translate(15.765 135.685295) scale(0.08 -0.08)">
       <use xlink:href="#ArialMT-35"/>
       <use xlink:href="#ArialMT-30" x="55.615234"/>
      </g>
     </g>
    </g>
    <g id="ytick_6">
     <g id="line2d_12">
      <g>
       <use xlink:href="#mf24ee908a6" x="31.6625" y="94.625884" style="stroke: #000000; stroke-width: 0.8"/>
      </g>
     </g>
     <g id="text_13">
      <!-- 100 -->
      <g transform="translate(11.31625 97.489009) scale(0.08 -0.08)">
       <use xlink:href="#ArialMT-31"/>
       <use xlink:href="#ArialMT-30" x="55.615234"/>
       <use xlink:href="#ArialMT-30" x="111.230469"/>
      </g>
     </g>
    </g>
   </g>
   <g id="patch_17">
    <path d="M 34.588751 171.018457 
L 41.850539 171.018457 
L 41.850539 151.920313 
L 34.588751 151.920313 
z
" clip-path="url(#p3126fcc3c9)" style="fill: #365c8d; opacity: 0.5"/>
   </g>
   <g id="patch_18">
    <path d="M 41.850539 171.018457 
L 49.112327 171.018457 
L 49.112327 134.350022 
L 41.850539 134.350022 
z
" clip-path="url(#p3126fcc3c9)" style="fill: #365c8d; opacity: 0.5"/>
   </g>
   <g id="patch_19">
    <path d="M 49.112327 171.018457 
L 56.374115 171.018457 
L 56.374115 122.891136 
L 49.112327 122.891136 
z
" clip-path="url(#p3126fcc3c9)" style="fill: #365c8d; opacity: 0.5"/>
   </g>
   <g id="patch_20">
    <path d="M 56.374115 171.018457 
L 63.635903 171.018457 
L 63.635903 131.294319 
L 56.374115 131.294319 
z
" clip-path="url(#p3126fcc3c9)" style="fill: #365c8d; opacity: 0.5"/>
   </g>
   <g id="patch_21">
    <path d="M 63.635903 171.018457 
L 70.897691 171.018457 
L 70.897691 151.156388 
L 63.635903 151.156388 
z
" clip-path="url(#p3126fcc3c9)" style="fill: #365c8d; opacity: 0.5"/>
   </g>
   <g id="patch_22">
    <path d="M 70.897691 171.018457 
L 78.159479 171.018457 
L 78.159479 161.851348 
L 70.897691 161.851348 
z
" clip-path="url(#p3126fcc3c9)" style="fill: #365c8d; opacity: 0.5"/>
   </g>
   <g id="patch_23">
    <path d="M 78.159479 171.018457 
L 85.421267 171.018457 
L 85.421267 159.559571 
L 78.159479 159.559571 
z
" clip-path="url(#p3126fcc3c9)" style="fill: #365c8d; opacity: 0.5"/>
   </g>
   <g id="patch_24">
    <path d="M 85.421267 171.018457 
L 92.683054 171.018457 
L 92.683054 165.670976 
L 85.421267 165.670976 
z
" clip-path="url(#p3126fcc3c9)" style="fill: #365c8d; opacity: 0.5"/>
   </g>
   <g id="patch_25">
    <path d="M 92.683054 171.018457 
L 99.944842 171.018457 
L 99.944842 166.434902 
L 92.683054 166.434902 
z
" clip-path="url(#p3126fcc3c9)" style="fill: #365c8d; opacity: 0.5"/>
   </g>
   <g id="patch_26">
    <path d="M 99.944842 171.018457 
L 107.20663 171.018457 
L 107.20663 169.490605 
L 99.944842 169.490605 
z
" clip-path="url(#p3126fcc3c9)" style="fill: #365c8d; opacity: 0.5"/>
   </g>
   <g id="patch_27">
    <path d="M 31.6625 171.018457 
L 31.6625 94.549491 
" style="fill: none; stroke: #000000; stroke-width: 0.8; stroke-linejoin: miter; stroke-linecap: square"/>
   </g>
   <g id="patch_28">
    <path d="M 31.6625 171.018457 
L 143.2625 171.018457 
" style="fill: none; stroke: #000000; stroke-width: 0.8; stroke-linejoin: miter; stroke-linecap: square"/>
   </g>
   <g id="legend_2">
    <g id="patch_29">
     <path d="M 100.31625 107.475741 
L 116.31625 107.475741 
L 116.31625 101.875741 
L 100.31625 101.875741 
z
" style="fill: #365c8d; opacity: 0.5"/>
    </g>
    <g id="text_14">
     <!-- 100 -->
     <g transform="translate(122.71625 107.475741) scale(0.08 -0.08)">
      <use xlink:href="#ArialMT-31"/>
      <use xlink:href="#ArialMT-30" x="55.615234"/>
      <use xlink:href="#ArialMT-30" x="111.230469"/>
     </g>
    </g>
   </g>
  </g>
  <g id="axes_3">
   <g id="patch_30">
    <path d="M 31.6625 262.781215 
L 143.2625 262.781215 
L 143.2625 186.31225 
L 31.6625 186.31225 
L 31.6625 262.781215 
z
" style="fill: none"/>
   </g>
   <g id="matplotlib.axis_5">
    <g id="xtick_7">
     <g id="line2d_13">
      <g>
       <use xlink:href="#mdbc0a5e613" x="45.560505" y="262.781215" style="stroke: #000000; stroke-width: 0.8"/>
      </g>
     </g>
     <g id="text_15">
      <!-- 0.25 -->
      <g transform="translate(37.77613 275.507465) scale(0.08 -0.08)">
       <use xlink:href="#ArialMT-30"/>
       <use xlink:href="#ArialMT-2e" x="55.615234"/>
       <use xlink:href="#ArialMT-32" x="83.398438"/>
       <use xlink:href="#ArialMT-35" x="139.013672"/>
      </g>
     </g>
    </g>
    <g id="xtick_8">
     <g id="line2d_14">
      <g>
       <use xlink:href="#mdbc0a5e613" x="79.610024" y="262.781215" style="stroke: #000000; stroke-width: 0.8"/>
      </g>
     </g>
     <g id="text_16">
      <!-- 0.50 -->
      <g transform="translate(71.825649 275.507465) scale(0.08 -0.08)">
       <use xlink:href="#ArialMT-30"/>
       <use xlink:href="#ArialMT-2e" x="55.615234"/>
       <use xlink:href="#ArialMT-35" x="83.398438"/>
       <use xlink:href="#ArialMT-30" x="139.013672"/>
      </g>
     </g>
    </g>
    <g id="xtick_9">
     <g id="line2d_15">
      <g>
       <use xlink:href="#mdbc0a5e613" x="113.659544" y="262.781215" style="stroke: #000000; stroke-width: 0.8"/>
      </g>
     </g>
     <g id="text_17">
      <!-- 0.75 -->
      <g transform="translate(105.875169 275.507465) scale(0.08 -0.08)">
       <use xlink:href="#ArialMT-30"/>
       <use xlink:href="#ArialMT-2e" x="55.615234"/>
       <use xlink:href="#ArialMT-37" x="83.398438"/>
       <use xlink:href="#ArialMT-35" x="139.013672"/>
      </g>
     </g>
    </g>
   </g>
   <g id="matplotlib.axis_6">
    <g id="ytick_7">
     <g id="line2d_16">
      <g>
       <use xlink:href="#mf24ee908a6" x="31.6625" y="262.781215" style="stroke: #000000; stroke-width: 0.8"/>
      </g>
     </g>
     <g id="text_18">
      <!-- 0 -->
      <g transform="translate(20.21375 265.64434) scale(0.08 -0.08)">
       <use xlink:href="#ArialMT-30"/>
      </g>
     </g>
    </g>
    <g id="ytick_8">
     <g id="line2d_17">
      <g>
       <use xlink:href="#mf24ee908a6" x="31.6625" y="224.584929" style="stroke: #000000; stroke-width: 0.8"/>
      </g>
     </g>
     <g id="text_19">
      <!-- 50 -->
      <g transform="translate(15.765 227.448054) scale(0.08 -0.08)">
       <use xlink:href="#ArialMT-35"/>
       <use xlink:href="#ArialMT-30" x="55.615234"/>
      </g>
     </g>
    </g>
    <g id="ytick_9">
     <g id="line2d_18">
      <g>
       <use xlink:href="#mf24ee908a6" x="31.6625" y="186.388642" style="stroke: #000000; stroke-width: 0.8"/>
      </g>
     </g>
     <g id="text_20">
      <!-- 100 -->
      <g transform="translate(11.31625 189.251767) scale(0.08 -0.08)">
       <use xlink:href="#ArialMT-31"/>
       <use xlink:href="#ArialMT-30" x="55.615234"/>
       <use xlink:href="#ArialMT-30" x="111.230469"/>
      </g>
     </g>
    </g>
    <g id="text_21">
     <!-- Count -->
     <g transform="translate(5.72625 235.219857) rotate(-90) scale(0.08 -0.08)">
      <defs>
       <path id="ArialMT-43" d="M 3763 1606 
L 4369 1453 
Q 4178 706 3683 314 
Q 3188 -78 2472 -78 
Q 1731 -78 1267 223 
Q 803 525 561 1097 
Q 319 1669 319 2325 
Q 319 3041 592 3573 
Q 866 4106 1370 4382 
Q 1875 4659 2481 4659 
Q 3169 4659 3637 4309 
Q 4106 3959 4291 3325 
L 3694 3184 
Q 3534 3684 3231 3912 
Q 2928 4141 2469 4141 
Q 1941 4141 1586 3887 
Q 1231 3634 1087 3207 
Q 944 2781 944 2328 
Q 944 1744 1114 1308 
Q 1284 872 1643 656 
Q 2003 441 2422 441 
Q 2931 441 3284 734 
Q 3638 1028 3763 1606 
z
" transform="scale(0.015625)"/>
       <path id="ArialMT-6f" d="M 213 1659 
Q 213 2581 725 3025 
Q 1153 3394 1769 3394 
Q 2453 3394 2887 2945 
Q 3322 2497 3322 1706 
Q 3322 1066 3130 698 
Q 2938 331 2570 128 
Q 2203 -75 1769 -75 
Q 1072 -75 642 372 
Q 213 819 213 1659 
z
M 791 1659 
Q 791 1022 1069 705 
Q 1347 388 1769 388 
Q 2188 388 2466 706 
Q 2744 1025 2744 1678 
Q 2744 2294 2464 2611 
Q 2184 2928 1769 2928 
Q 1347 2928 1069 2612 
Q 791 2297 791 1659 
z
" transform="scale(0.015625)"/>
       <path id="ArialMT-75" d="M 2597 0 
L 2597 488 
Q 2209 -75 1544 -75 
Q 1250 -75 995 37 
Q 741 150 617 320 
Q 494 491 444 738 
Q 409 903 409 1263 
L 409 3319 
L 972 3319 
L 972 1478 
Q 972 1038 1006 884 
Q 1059 663 1231 536 
Q 1403 409 1656 409 
Q 1909 409 2131 539 
Q 2353 669 2445 892 
Q 2538 1116 2538 1541 
L 2538 3319 
L 3100 3319 
L 3100 0 
L 2597 0 
z
" transform="scale(0.015625)"/>
       <path id="ArialMT-6e" d="M 422 0 
L 422 3319 
L 928 3319 
L 928 2847 
Q 1294 3394 1984 3394 
Q 2284 3394 2536 3286 
Q 2788 3178 2913 3003 
Q 3038 2828 3088 2588 
Q 3119 2431 3119 2041 
L 3119 0 
L 2556 0 
L 2556 2019 
Q 2556 2363 2490 2533 
Q 2425 2703 2258 2804 
Q 2091 2906 1866 2906 
Q 1506 2906 1245 2678 
Q 984 2450 984 1813 
L 984 0 
L 422 0 
z
" transform="scale(0.015625)"/>
       <path id="ArialMT-74" d="M 1650 503 
L 1731 6 
Q 1494 -44 1306 -44 
Q 1000 -44 831 53 
Q 663 150 594 308 
Q 525 466 525 972 
L 525 2881 
L 113 2881 
L 113 3319 
L 525 3319 
L 525 4141 
L 1084 4478 
L 1084 3319 
L 1650 3319 
L 1650 2881 
L 1084 2881 
L 1084 941 
Q 1084 700 1114 631 
Q 1144 563 1211 522 
Q 1278 481 1403 481 
Q 1497 481 1650 503 
z
" transform="scale(0.015625)"/>
      </defs>
      <use xlink:href="#ArialMT-43"/>
      <use xlink:href="#ArialMT-6f" x="72.216797"/>
      <use xlink:href="#ArialMT-75" x="127.832031"/>
      <use xlink:href="#ArialMT-6e" x="183.447266"/>
      <use xlink:href="#ArialMT-74" x="239.0625"/>
     </g>
    </g>
   </g>
   <g id="patch_31">
    <path d="M 94.982296 262.781215 
L 98.612575 262.781215 
L 98.612575 252.850181 
L 94.982296 252.850181 
z
" clip-path="url(#p3cab221bed)" style="fill: #277f8e; opacity: 0.5"/>
   </g>
   <g id="patch_32">
    <path d="M 98.612575 262.781215 
L 102.242855 262.781215 
L 102.242855 251.322329 
L 98.612575 251.322329 
z
" clip-path="url(#p3cab221bed)" style="fill: #277f8e; opacity: 0.5"/>
   </g>
   <g id="patch_33">
    <path d="M 102.242855 262.781215 
L 105.873134 262.781215 
L 105.873134 252.086255 
L 102.242855 252.086255 
z
" clip-path="url(#p3cab221bed)" style="fill: #277f8e; opacity: 0.5"/>
   </g>
   <g id="patch_34">
    <path d="M 105.873134 262.781215 
L 109.503413 262.781215 
L 109.503413 252.086255 
L 105.873134 252.086255 
z
" clip-path="url(#p3cab221bed)" style="fill: #277f8e; opacity: 0.5"/>
   </g>
   <g id="patch_35">
    <path d="M 109.503413 262.781215 
L 113.133693 262.781215 
L 113.133693 254.378032 
L 109.503413 254.378032 
z
" clip-path="url(#p3cab221bed)" style="fill: #277f8e; opacity: 0.5"/>
   </g>
   <g id="patch_36">
    <path d="M 113.133693 262.781215 
L 116.763972 262.781215 
L 116.763972 249.030552 
L 113.133693 249.030552 
z
" clip-path="url(#p3cab221bed)" style="fill: #277f8e; opacity: 0.5"/>
   </g>
   <g id="patch_37">
    <path d="M 116.763972 262.781215 
L 120.394251 262.781215 
L 120.394251 252.086255 
L 116.763972 252.086255 
z
" clip-path="url(#p3cab221bed)" style="fill: #277f8e; opacity: 0.5"/>
   </g>
   <g id="patch_38">
    <path d="M 120.394251 262.781215 
L 124.024531 262.781215 
L 124.024531 233.752037 
L 120.394251 233.752037 
z
" clip-path="url(#p3cab221bed)" style="fill: #277f8e; opacity: 0.5"/>
   </g>
   <g id="patch_39">
    <path d="M 124.024531 262.781215 
L 127.65481 262.781215 
L 127.65481 230.696335 
L 124.024531 230.696335 
z
" clip-path="url(#p3cab221bed)" style="fill: #277f8e; opacity: 0.5"/>
   </g>
   <g id="patch_40">
    <path d="M 127.65481 262.781215 
L 131.28509 262.781215 
L 131.28509 203.958934 
L 127.65481 203.958934 
z
" clip-path="url(#p3cab221bed)" style="fill: #277f8e; opacity: 0.5"/>
   </g>
   <g id="patch_41">
    <path d="M 31.6625 262.781215 
L 31.6625 186.31225 
" style="fill: none; stroke: #000000; stroke-width: 0.8; stroke-linejoin: miter; stroke-linecap: square"/>
   </g>
   <g id="patch_42">
    <path d="M 31.6625 262.781215 
L 143.2625 262.781215 
" style="fill: none; stroke: #000000; stroke-width: 0.8; stroke-linejoin: miter; stroke-linecap: square"/>
   </g>
   <g id="legend_3">
    <g id="patch_43">
     <path d="M 38.8625 199.2385 
L 54.8625 199.2385 
L 54.8625 193.6385 
L 38.8625 193.6385 
z
" style="fill: #277f8e; opacity: 0.5"/>
    </g>
    <g id="text_22">
     <!-- 1000 -->
     <g transform="translate(61.2625 199.2385) scale(0.08 -0.08)">
      <use xlink:href="#ArialMT-31"/>
      <use xlink:href="#ArialMT-30" x="55.615234"/>
      <use xlink:href="#ArialMT-30" x="111.230469"/>
      <use xlink:href="#ArialMT-30" x="166.845703"/>
     </g>
    </g>
   </g>
  </g>
  <g id="axes_4">
   <g id="patch_44">
    <path d="M 31.6625 354.543974 
L 143.2625 354.543974 
L 143.2625 278.075008 
L 31.6625 278.075008 
L 31.6625 354.543974 
z
" style="fill: none"/>
   </g>
   <g id="matplotlib.axis_7">
    <g id="xtick_10">
     <g id="line2d_19">
      <g>
       <use xlink:href="#mdbc0a5e613" x="45.560505" y="354.543974" style="stroke: #000000; stroke-width: 0.8"/>
      </g>
     </g>
     <g id="text_23">
      <!-- 0.25 -->
      <g transform="translate(37.77613 367.270224) scale(0.08 -0.08)">
       <use xlink:href="#ArialMT-30"/>
       <use xlink:href="#ArialMT-2e" x="55.615234"/>
       <use xlink:href="#ArialMT-32" x="83.398438"/>
       <use xlink:href="#ArialMT-35" x="139.013672"/>
      </g>
     </g>
    </g>
    <g id="xtick_11">
     <g id="line2d_20">
      <g>
       <use xlink:href="#mdbc0a5e613" x="79.610024" y="354.543974" style="stroke: #000000; stroke-width: 0.8"/>
      </g>
     </g>
     <g id="text_24">
      <!-- 0.50 -->
      <g transform="translate(71.825649 367.270224) scale(0.08 -0.08)">
       <use xlink:href="#ArialMT-30"/>
       <use xlink:href="#ArialMT-2e" x="55.615234"/>
       <use xlink:href="#ArialMT-35" x="83.398438"/>
       <use xlink:href="#ArialMT-30" x="139.013672"/>
      </g>
     </g>
    </g>
    <g id="xtick_12">
     <g id="line2d_21">
      <g>
       <use xlink:href="#mdbc0a5e613" x="113.659544" y="354.543974" style="stroke: #000000; stroke-width: 0.8"/>
      </g>
     </g>
     <g id="text_25">
      <!-- 0.75 -->
      <g transform="translate(105.875169 367.270224) scale(0.08 -0.08)">
       <use xlink:href="#ArialMT-30"/>
       <use xlink:href="#ArialMT-2e" x="55.615234"/>
       <use xlink:href="#ArialMT-37" x="83.398438"/>
       <use xlink:href="#ArialMT-35" x="139.013672"/>
      </g>
     </g>
    </g>
   </g>
   <g id="matplotlib.axis_8">
    <g id="ytick_10">
     <g id="line2d_22">
      <g>
       <use xlink:href="#mf24ee908a6" x="31.6625" y="354.543974" style="stroke: #000000; stroke-width: 0.8"/>
      </g>
     </g>
     <g id="text_26">
      <!-- 0 -->
      <g transform="translate(20.21375 357.407099) scale(0.08 -0.08)">
       <use xlink:href="#ArialMT-30"/>
      </g>
     </g>
    </g>
    <g id="ytick_11">
     <g id="line2d_23">
      <g>
       <use xlink:href="#mf24ee908a6" x="31.6625" y="316.347687" style="stroke: #000000; stroke-width: 0.8"/>
      </g>
     </g>
     <g id="text_27">
      <!-- 50 -->
      <g transform="translate(15.765 319.210812) scale(0.08 -0.08)">
       <use xlink:href="#ArialMT-35"/>
       <use xlink:href="#ArialMT-30" x="55.615234"/>
      </g>
     </g>
    </g>
    <g id="ytick_12">
     <g id="line2d_24">
      <g>
       <use xlink:href="#mf24ee908a6" x="31.6625" y="278.151401" style="stroke: #000000; stroke-width: 0.8"/>
      </g>
     </g>
     <g id="text_28">
      <!-- 100 -->
      <g transform="translate(11.31625 281.014526) scale(0.08 -0.08)">
       <use xlink:href="#ArialMT-31"/>
       <use xlink:href="#ArialMT-30" x="55.615234"/>
       <use xlink:href="#ArialMT-30" x="111.230469"/>
      </g>
     </g>
    </g>
   </g>
   <g id="patch_45">
    <path d="M 59.305127 354.543974 
L 64.761339 354.543974 
L 64.761339 322.459093 
L 59.305127 322.459093 
z
" clip-path="url(#pf267c5d833)" style="fill: #1fa187; opacity: 0.5"/>
   </g>
   <g id="patch_46">
    <path d="M 64.761339 354.543974 
L 70.217552 354.543974 
L 70.217552 313.291984 
L 64.761339 313.291984 
z
" clip-path="url(#pf267c5d833)" style="fill: #1fa187; opacity: 0.5"/>
   </g>
   <g id="patch_47">
    <path d="M 70.217552 354.543974 
L 75.673765 354.543974 
L 75.673765 308.70843 
L 70.217552 308.70843 
z
" clip-path="url(#pf267c5d833)" style="fill: #1fa187; opacity: 0.5"/>
   </g>
   <g id="patch_48">
    <path d="M 75.673765 354.543974 
L 81.129977 354.543974 
L 81.129977 339.265459 
L 75.673765 339.265459 
z
" clip-path="url(#pf267c5d833)" style="fill: #1fa187; opacity: 0.5"/>
   </g>
   <g id="patch_49">
    <path d="M 81.129977 354.543974 
L 86.58619 354.543974 
L 86.58619 343.085088 
L 81.129977 343.085088 
z
" clip-path="url(#pf267c5d833)" style="fill: #1fa187; opacity: 0.5"/>
   </g>
   <g id="patch_50">
    <path d="M 86.58619 354.543974 
L 92.042403 354.543974 
L 92.042403 345.376865 
L 86.58619 345.376865 
z
" clip-path="url(#pf267c5d833)" style="fill: #1fa187; opacity: 0.5"/>
   </g>
   <g id="patch_51">
    <path d="M 92.042403 354.543974 
L 97.498615 354.543974 
L 97.498615 345.376865 
L 92.042403 345.376865 
z
" clip-path="url(#pf267c5d833)" style="fill: #1fa187; opacity: 0.5"/>
   </g>
   <g id="patch_52">
    <path d="M 97.498615 354.543974 
L 102.954828 354.543974 
L 102.954828 347.668642 
L 97.498615 347.668642 
z
" clip-path="url(#pf267c5d833)" style="fill: #1fa187; opacity: 0.5"/>
   </g>
   <g id="patch_53">
    <path d="M 102.954828 354.543974 
L 108.411041 354.543974 
L 108.411041 344.612939 
L 102.954828 344.612939 
z
" clip-path="url(#pf267c5d833)" style="fill: #1fa187; opacity: 0.5"/>
   </g>
   <g id="patch_54">
    <path d="M 108.411041 354.543974 
L 113.867253 354.543974 
L 113.867253 340.029385 
L 108.411041 340.029385 
z
" clip-path="url(#pf267c5d833)" style="fill: #1fa187; opacity: 0.5"/>
   </g>
   <g id="patch_55">
    <path d="M 31.6625 354.543974 
L 31.6625 278.075008 
" style="fill: none; stroke: #000000; stroke-width: 0.8; stroke-linejoin: miter; stroke-linecap: square"/>
   </g>
   <g id="patch_56">
    <path d="M 31.6625 354.543974 
L 143.2625 354.543974 
" style="fill: none; stroke: #000000; stroke-width: 0.8; stroke-linejoin: miter; stroke-linecap: square"/>
   </g>
   <g id="legend_4">
    <g id="patch_57">
     <path d="M 91.41875 291.001258 
L 107.41875 291.001258 
L 107.41875 285.401258 
L 91.41875 285.401258 
z
" style="fill: #1fa187; opacity: 0.5"/>
    </g>
    <g id="text_29">
     <!-- 10000 -->
     <g transform="translate(113.81875 291.001258) scale(0.08 -0.08)">
      <use xlink:href="#ArialMT-31"/>
      <use xlink:href="#ArialMT-30" x="55.615234"/>
      <use xlink:href="#ArialMT-30" x="111.230469"/>
      <use xlink:href="#ArialMT-30" x="166.845703"/>
      <use xlink:href="#ArialMT-30" x="222.460938"/>
     </g>
    </g>
   </g>
  </g>
  <g id="axes_5">
   <g id="patch_58">
    <path d="M 31.6625 446.306732 
L 143.2625 446.306732 
L 143.2625 369.837767 
L 31.6625 369.837767 
L 31.6625 446.306732 
z
" style="fill: none"/>
   </g>
   <g id="matplotlib.axis_9">
    <g id="xtick_13">
     <g id="line2d_25">
      <g>
       <use xlink:href="#mdbc0a5e613" x="45.560505" y="446.306732" style="stroke: #000000; stroke-width: 0.8"/>
      </g>
     </g>
     <g id="text_30">
      <!-- 0.25 -->
      <g transform="translate(37.77613 459.032982) scale(0.08 -0.08)">
       <use xlink:href="#ArialMT-30"/>
       <use xlink:href="#ArialMT-2e" x="55.615234"/>
       <use xlink:href="#ArialMT-32" x="83.398438"/>
       <use xlink:href="#ArialMT-35" x="139.013672"/>
      </g>
     </g>
    </g>
    <g id="xtick_14">
     <g id="line2d_26">
      <g>
       <use xlink:href="#mdbc0a5e613" x="79.610024" y="446.306732" style="stroke: #000000; stroke-width: 0.8"/>
      </g>
     </g>
     <g id="text_31">
      <!-- 0.50 -->
      <g transform="translate(71.825649 459.032982) scale(0.08 -0.08)">
       <use xlink:href="#ArialMT-30"/>
       <use xlink:href="#ArialMT-2e" x="55.615234"/>
       <use xlink:href="#ArialMT-35" x="83.398438"/>
       <use xlink:href="#ArialMT-30" x="139.013672"/>
      </g>
     </g>
    </g>
    <g id="xtick_15">
     <g id="line2d_27">
      <g>
       <use xlink:href="#mdbc0a5e613" x="113.659544" y="446.306732" style="stroke: #000000; stroke-width: 0.8"/>
      </g>
     </g>
     <g id="text_32">
      <!-- 0.75 -->
      <g transform="translate(105.875169 459.032982) scale(0.08 -0.08)">
       <use xlink:href="#ArialMT-30"/>
       <use xlink:href="#ArialMT-2e" x="55.615234"/>
       <use xlink:href="#ArialMT-37" x="83.398438"/>
       <use xlink:href="#ArialMT-35" x="139.013672"/>
      </g>
     </g>
    </g>
    <g id="text_33">
     <!-- Band Score -->
     <g transform="translate(66.56125 470.349232) scale(0.08 -0.08)">
      <defs>
       <path id="ArialMT-42" d="M 469 0 
L 469 4581 
L 2188 4581 
Q 2713 4581 3030 4442 
Q 3347 4303 3526 4014 
Q 3706 3725 3706 3409 
Q 3706 3116 3547 2856 
Q 3388 2597 3066 2438 
Q 3481 2316 3704 2022 
Q 3928 1728 3928 1328 
Q 3928 1006 3792 729 
Q 3656 453 3456 303 
Q 3256 153 2954 76 
Q 2653 0 2216 0 
L 469 0 
z
M 1075 2656 
L 2066 2656 
Q 2469 2656 2644 2709 
Q 2875 2778 2992 2937 
Q 3109 3097 3109 3338 
Q 3109 3566 3000 3739 
Q 2891 3913 2687 3977 
Q 2484 4041 1991 4041 
L 1075 4041 
L 1075 2656 
z
M 1075 541 
L 2216 541 
Q 2509 541 2628 563 
Q 2838 600 2978 687 
Q 3119 775 3209 942 
Q 3300 1109 3300 1328 
Q 3300 1584 3169 1773 
Q 3038 1963 2805 2039 
Q 2572 2116 2134 2116 
L 1075 2116 
L 1075 541 
z
" transform="scale(0.015625)"/>
       <path id="ArialMT-61" d="M 2588 409 
Q 2275 144 1986 34 
Q 1697 -75 1366 -75 
Q 819 -75 525 192 
Q 231 459 231 875 
Q 231 1119 342 1320 
Q 453 1522 633 1644 
Q 813 1766 1038 1828 
Q 1203 1872 1538 1913 
Q 2219 1994 2541 2106 
Q 2544 2222 2544 2253 
Q 2544 2597 2384 2738 
Q 2169 2928 1744 2928 
Q 1347 2928 1158 2789 
Q 969 2650 878 2297 
L 328 2372 
Q 403 2725 575 2942 
Q 747 3159 1072 3276 
Q 1397 3394 1825 3394 
Q 2250 3394 2515 3294 
Q 2781 3194 2906 3042 
Q 3031 2891 3081 2659 
Q 3109 2516 3109 2141 
L 3109 1391 
Q 3109 606 3145 398 
Q 3181 191 3288 0 
L 2700 0 
Q 2613 175 2588 409 
z
M 2541 1666 
Q 2234 1541 1622 1453 
Q 1275 1403 1131 1340 
Q 988 1278 909 1158 
Q 831 1038 831 891 
Q 831 666 1001 516 
Q 1172 366 1500 366 
Q 1825 366 2078 508 
Q 2331 650 2450 897 
Q 2541 1088 2541 1459 
L 2541 1666 
z
" transform="scale(0.015625)"/>
       <path id="ArialMT-64" d="M 2575 0 
L 2575 419 
Q 2259 -75 1647 -75 
Q 1250 -75 917 144 
Q 584 363 401 755 
Q 219 1147 219 1656 
Q 219 2153 384 2558 
Q 550 2963 881 3178 
Q 1213 3394 1622 3394 
Q 1922 3394 2156 3267 
Q 2391 3141 2538 2938 
L 2538 4581 
L 3097 4581 
L 3097 0 
L 2575 0 
z
M 797 1656 
Q 797 1019 1065 703 
Q 1334 388 1700 388 
Q 2069 388 2326 689 
Q 2584 991 2584 1609 
Q 2584 2291 2321 2609 
Q 2059 2928 1675 2928 
Q 1300 2928 1048 2622 
Q 797 2316 797 1656 
z
" transform="scale(0.015625)"/>
       <path id="ArialMT-20" transform="scale(0.015625)"/>
       <path id="ArialMT-53" d="M 288 1472 
L 859 1522 
Q 900 1178 1048 958 
Q 1197 738 1509 602 
Q 1822 466 2213 466 
Q 2559 466 2825 569 
Q 3091 672 3220 851 
Q 3350 1031 3350 1244 
Q 3350 1459 3225 1620 
Q 3100 1781 2813 1891 
Q 2628 1963 1997 2114 
Q 1366 2266 1113 2400 
Q 784 2572 623 2826 
Q 463 3081 463 3397 
Q 463 3744 659 4045 
Q 856 4347 1234 4503 
Q 1613 4659 2075 4659 
Q 2584 4659 2973 4495 
Q 3363 4331 3572 4012 
Q 3781 3694 3797 3291 
L 3216 3247 
Q 3169 3681 2898 3903 
Q 2628 4125 2100 4125 
Q 1550 4125 1298 3923 
Q 1047 3722 1047 3438 
Q 1047 3191 1225 3031 
Q 1400 2872 2139 2705 
Q 2878 2538 3153 2413 
Q 3553 2228 3743 1945 
Q 3934 1663 3934 1294 
Q 3934 928 3725 604 
Q 3516 281 3123 101 
Q 2731 -78 2241 -78 
Q 1619 -78 1198 103 
Q 778 284 539 648 
Q 300 1013 288 1472 
z
" transform="scale(0.015625)"/>
       <path id="ArialMT-63" d="M 2588 1216 
L 3141 1144 
Q 3050 572 2676 248 
Q 2303 -75 1759 -75 
Q 1078 -75 664 370 
Q 250 816 250 1647 
Q 250 2184 428 2587 
Q 606 2991 970 3192 
Q 1334 3394 1763 3394 
Q 2303 3394 2647 3120 
Q 2991 2847 3088 2344 
L 2541 2259 
Q 2463 2594 2264 2762 
Q 2066 2931 1784 2931 
Q 1359 2931 1093 2626 
Q 828 2322 828 1663 
Q 828 994 1084 691 
Q 1341 388 1753 388 
Q 2084 388 2306 591 
Q 2528 794 2588 1216 
z
" transform="scale(0.015625)"/>
       <path id="ArialMT-72" d="M 416 0 
L 416 3319 
L 922 3319 
L 922 2816 
Q 1116 3169 1280 3281 
Q 1444 3394 1641 3394 
Q 1925 3394 2219 3213 
L 2025 2691 
Q 1819 2813 1613 2813 
Q 1428 2813 1281 2702 
Q 1134 2591 1072 2394 
Q 978 2094 978 1738 
L 978 0 
L 416 0 
z
" transform="scale(0.015625)"/>
       <path id="ArialMT-65" d="M 2694 1069 
L 3275 997 
Q 3138 488 2766 206 
Q 2394 -75 1816 -75 
Q 1088 -75 661 373 
Q 234 822 234 1631 
Q 234 2469 665 2931 
Q 1097 3394 1784 3394 
Q 2450 3394 2872 2941 
Q 3294 2488 3294 1666 
Q 3294 1616 3291 1516 
L 816 1516 
Q 847 969 1125 678 
Q 1403 388 1819 388 
Q 2128 388 2347 550 
Q 2566 713 2694 1069 
z
M 847 1978 
L 2700 1978 
Q 2663 2397 2488 2606 
Q 2219 2931 1791 2931 
Q 1403 2931 1139 2672 
Q 875 2413 847 1978 
z
" transform="scale(0.015625)"/>
      </defs>
      <use xlink:href="#ArialMT-42"/>
      <use xlink:href="#ArialMT-61" x="66.699219"/>
      <use xlink:href="#ArialMT-6e" x="122.314453"/>
      <use xlink:href="#ArialMT-64" x="177.929688"/>
      <use xlink:href="#ArialMT-20" x="233.544922"/>
      <use xlink:href="#ArialMT-53" x="261.328125"/>
      <use xlink:href="#ArialMT-63" x="328.027344"/>
      <use xlink:href="#ArialMT-6f" x="378.027344"/>
      <use xlink:href="#ArialMT-72" x="433.642578"/>
      <use xlink:href="#ArialMT-65" x="466.943359"/>
     </g>
    </g>
   </g>
   <g id="matplotlib.axis_10">
    <g id="ytick_13">
     <g id="line2d_28">
      <g>
       <use xlink:href="#mf24ee908a6" x="31.6625" y="446.306732" style="stroke: #000000; stroke-width: 0.8"/>
      </g>
     </g>
     <g id="text_34">
      <!-- 0 -->
      <g transform="translate(20.21375 449.169857) scale(0.08 -0.08)">
       <use xlink:href="#ArialMT-30"/>
      </g>
     </g>
    </g>
    <g id="ytick_14">
     <g id="line2d_29">
      <g>
       <use xlink:href="#mf24ee908a6" x="31.6625" y="408.110446" style="stroke: #000000; stroke-width: 0.8"/>
      </g>
     </g>
     <g id="text_35">
      <!-- 50 -->
      <g transform="translate(15.765 410.973571) scale(0.08 -0.08)">
       <use xlink:href="#ArialMT-35"/>
       <use xlink:href="#ArialMT-30" x="55.615234"/>
      </g>
     </g>
    </g>
    <g id="ytick_15">
     <g id="line2d_30">
      <g>
       <use xlink:href="#mf24ee908a6" x="31.6625" y="369.914159" style="stroke: #000000; stroke-width: 0.8"/>
      </g>
     </g>
     <g id="text_36">
      <!-- 100 -->
      <g transform="translate(11.31625 372.777284) scale(0.08 -0.08)">
       <use xlink:href="#ArialMT-31"/>
       <use xlink:href="#ArialMT-30" x="55.615234"/>
       <use xlink:href="#ArialMT-30" x="111.230469"/>
      </g>
     </g>
    </g>
   </g>
   <g id="patch_59">
    <path d="M 59.31507 446.306732 
L 64.442729 446.306732 
L 64.442729 431.028218 
L 59.31507 431.028218 
z
" clip-path="url(#p52ec653766)" style="fill: #4ac16d; opacity: 0.5"/>
   </g>
   <g id="patch_60">
    <path d="M 64.442729 446.306732 
L 69.570387 446.306732 
L 69.570387 408.874372 
L 64.442729 408.874372 
z
" clip-path="url(#p52ec653766)" style="fill: #4ac16d; opacity: 0.5"/>
   </g>
   <g id="patch_61">
    <path d="M 69.570387 446.306732 
L 74.698045 446.306732 
L 74.698045 376.789491 
L 69.570387 376.789491 
z
" clip-path="url(#p52ec653766)" style="fill: #4ac16d; opacity: 0.5"/>
   </g>
   <g id="patch_62">
    <path d="M 74.698045 446.306732 
L 79.825703 446.306732 
L 79.825703 420.333258 
L 74.698045 420.333258 
z
" clip-path="url(#p52ec653766)" style="fill: #4ac16d; opacity: 0.5"/>
   </g>
   <g id="patch_63">
    <path d="M 79.825703 446.306732 
L 84.953361 446.306732 
L 84.953361 435.611772 
L 79.825703 435.611772 
z
" clip-path="url(#p52ec653766)" style="fill: #4ac16d; opacity: 0.5"/>
   </g>
   <g id="patch_64">
    <path d="M 84.953361 446.306732 
L 90.081019 446.306732 
L 90.081019 435.611772 
L 84.953361 435.611772 
z
" clip-path="url(#p52ec653766)" style="fill: #4ac16d; opacity: 0.5"/>
   </g>
   <g id="patch_65">
    <path d="M 90.081019 446.306732 
L 95.208677 446.306732 
L 95.208677 442.487104 
L 90.081019 442.487104 
z
" clip-path="url(#p52ec653766)" style="fill: #4ac16d; opacity: 0.5"/>
   </g>
   <g id="patch_66">
    <path d="M 95.208677 446.306732 
L 100.336335 446.306732 
L 100.336335 442.487104 
L 95.208677 442.487104 
z
" clip-path="url(#p52ec653766)" style="fill: #4ac16d; opacity: 0.5"/>
   </g>
   <g id="patch_67">
    <path d="M 100.336335 446.306732 
L 105.463994 446.306732 
L 105.463994 442.487104 
L 100.336335 442.487104 
z
" clip-path="url(#p52ec653766)" style="fill: #4ac16d; opacity: 0.5"/>
   </g>
   <g id="patch_68">
    <path d="M 105.463994 446.306732 
L 110.591652 446.306732 
L 110.591652 431.792144 
L 105.463994 431.792144 
z
" clip-path="url(#p52ec653766)" style="fill: #4ac16d; opacity: 0.5"/>
   </g>
   <g id="patch_69">
    <path d="M 31.6625 446.306732 
L 31.6625 369.837767 
" style="fill: none; stroke: #000000; stroke-width: 0.8; stroke-linejoin: miter; stroke-linecap: square"/>
   </g>
   <g id="patch_70">
    <path d="M 31.6625 446.306732 
L 143.2625 446.306732 
" style="fill: none; stroke: #000000; stroke-width: 0.8; stroke-linejoin: miter; stroke-linecap: square"/>
   </g>
   <g id="legend_5">
    <g id="patch_71">
     <path d="M 91.41875 382.764017 
L 107.41875 382.764017 
L 107.41875 377.164017 
L 91.41875 377.164017 
z
" style="fill: #4ac16d; opacity: 0.5"/>
    </g>
    <g id="text_37">
     <!-- 49999 -->
     <g transform="translate(113.81875 382.764017) scale(0.08 -0.08)">
      <defs>
       <path id="ArialMT-34" d="M 2069 0 
L 2069 1097 
L 81 1097 
L 81 1613 
L 2172 4581 
L 2631 4581 
L 2631 1613 
L 3250 1613 
L 3250 1097 
L 2631 1097 
L 2631 0 
L 2069 0 
z
M 2069 1613 
L 2069 3678 
L 634 1613 
L 2069 1613 
z
" transform="scale(0.015625)"/>
       <path id="ArialMT-39" d="M 350 1059 
L 891 1109 
Q 959 728 1153 556 
Q 1347 384 1650 384 
Q 1909 384 2104 503 
Q 2300 622 2425 820 
Q 2550 1019 2634 1356 
Q 2719 1694 2719 2044 
Q 2719 2081 2716 2156 
Q 2547 1888 2255 1720 
Q 1963 1553 1622 1553 
Q 1053 1553 659 1965 
Q 266 2378 266 3053 
Q 266 3750 677 4175 
Q 1088 4600 1706 4600 
Q 2153 4600 2523 4359 
Q 2894 4119 3086 3673 
Q 3278 3228 3278 2384 
Q 3278 1506 3087 986 
Q 2897 466 2520 194 
Q 2144 -78 1638 -78 
Q 1100 -78 759 220 
Q 419 519 350 1059 
z
M 2653 3081 
Q 2653 3566 2395 3850 
Q 2138 4134 1775 4134 
Q 1400 4134 1122 3828 
Q 844 3522 844 3034 
Q 844 2597 1108 2323 
Q 1372 2050 1759 2050 
Q 2150 2050 2401 2323 
Q 2653 2597 2653 3081 
z
" transform="scale(0.015625)"/>
      </defs>
      <use xlink:href="#ArialMT-34"/>
      <use xlink:href="#ArialMT-39" x="55.615234"/>
      <use xlink:href="#ArialMT-39" x="111.230469"/>
      <use xlink:href="#ArialMT-39" x="166.845703"/>
      <use xlink:href="#ArialMT-39" x="222.460938"/>
     </g>
    </g>
   </g>
  </g>
 </g>
 <defs>
  <clipPath id="p1be036c412">
   <rect x="31.6625" y="2.786732" width="111.6" height="76.468966"/>
  </clipPath>
  <clipPath id="p3126fcc3c9">
   <rect x="31.6625" y="94.549491" width="111.6" height="76.468966"/>
  </clipPath>
  <clipPath id="p3cab221bed">
   <rect x="31.6625" y="186.31225" width="111.6" height="76.468966"/>
  </clipPath>
  <clipPath id="pf267c5d833">
   <rect x="31.6625" y="278.075008" width="111.6" height="76.468966"/>
  </clipPath>
  <clipPath id="p52ec653766">
   <rect x="31.6625" y="369.837767" width="111.6" height="76.468966"/>
  </clipPath>
 </defs>
</svg>
