<?xml version="1.0" encoding="utf-8" standalone="no"?>
<!DOCTYPE svg PUBLIC "-//W3C//DTD SVG 1.1//EN"
  "http://www.w3.org/Graphics/SVG/1.1/DTD/svg11.dtd">
<svg xmlns:xlink="http://www.w3.org/1999/xlink" width="245.965pt" height="192.04625pt" viewBox="0 0 245.965 192.04625" xmlns="http://www.w3.org/2000/svg" version="1.1">
 <metadata>
  <rdf:RDF xmlns:dc="http://purl.org/dc/elements/1.1/" xmlns:cc="http://creativecommons.org/ns#" xmlns:rdf="http://www.w3.org/1999/02/22-rdf-syntax-ns#">
   <cc:Work>
    <dc:type rdf:resource="http://purl.org/dc/dcmitype/StillImage"/>
    <dc:date>2024-11-27T00:16:40.545746</dc:date>
    <dc:format>image/svg+xml</dc:format>
    <dc:creator>
     <cc:Agent>
      <dc:title>Matplotlib v3.9.2, https://matplotlib.org/</dc:title>
     </cc:Agent>
    </dc:creator>
   </cc:Work>
  </rdf:RDF>
 </metadata>
 <defs>
  <style type="text/css">*{stroke-linejoin: round; stroke-linecap: butt}</style>
 </defs>
 <g id="figure_1">
  <g id="patch_1">
   <path d="M 0 192.04625 
L 245.965 192.04625 
L 245.965 0 
L 0 0 
L 0 192.04625 
z
" style="fill: none"/>
  </g>
  <g id="axes_1">
   <g id="patch_2">
    <path d="M 22.765 166.32 
L 245.965 166.32 
L 245.965 -0 
L 22.765 -0 
L 22.765 166.32 
z
" style="fill: none"/>
   </g>
   <g id="matplotlib.axis_1">
    <g id="xtick_1">
     <g id="line2d_1">
      <defs>
       <path id="m21b63bcc0e" d="M 0 0 
L 0 3.5 
" style="stroke: #000000; stroke-width: 0.8"/>
      </defs>
      <g>
       <use xlink:href="#m21b63bcc0e" x="32.910455" y="166.32" style="stroke: #000000; stroke-width: 0.8"/>
      </g>
     </g>
     <g id="text_1">
      <!-- 0 -->
      <g transform="translate(30.68608 179.04625) scale(0.08 -0.08)">
       <defs>
        <path id="ArialMT-30" d="M 266 2259 
Q 266 3072 433 3567 
Q 600 4063 929 4331 
Q 1259 4600 1759 4600 
Q 2128 4600 2406 4451 
Q 2684 4303 2865 4023 
Q 3047 3744 3150 3342 
Q 3253 2941 3253 2259 
Q 3253 1453 3087 958 
Q 2922 463 2592 192 
Q 2263 -78 1759 -78 
Q 1097 -78 719 397 
Q 266 969 266 2259 
z
M 844 2259 
Q 844 1131 1108 757 
Q 1372 384 1759 384 
Q 2147 384 2411 759 
Q 2675 1134 2675 2259 
Q 2675 3391 2411 3762 
Q 2147 4134 1753 4134 
Q 1366 4134 1134 3806 
Q 844 3388 844 2259 
z
" transform="scale(0.015625)"/>
       </defs>
       <use xlink:href="#ArialMT-30"/>
      </g>
     </g>
    </g>
    <g id="xtick_2">
     <g id="line2d_2">
      <g>
       <use xlink:href="#m21b63bcc0e" x="73.573599" y="166.32" style="stroke: #000000; stroke-width: 0.8"/>
      </g>
     </g>
     <g id="text_2">
      <!-- 100 -->
      <g transform="translate(66.900474 179.04625) scale(0.08 -0.08)">
       <defs>
        <path id="ArialMT-31" d="M 2384 0 
L 1822 0 
L 1822 3584 
Q 1619 3391 1289 3197 
Q 959 3003 697 2906 
L 697 3450 
Q 1169 3672 1522 3987 
Q 1875 4303 2022 4600 
L 2384 4600 
L 2384 0 
z
" transform="scale(0.015625)"/>
       </defs>
       <use xlink:href="#ArialMT-31"/>
       <use xlink:href="#ArialMT-30" x="55.615234"/>
       <use xlink:href="#ArialMT-30" x="111.230469"/>
      </g>
     </g>
    </g>
    <g id="xtick_3">
     <g id="line2d_3">
      <g>
       <use xlink:href="#m21b63bcc0e" x="114.236743" y="166.32" style="stroke: #000000; stroke-width: 0.8"/>
      </g>
     </g>
     <g id="text_3">
      <!-- 200 -->
      <g transform="translate(107.563618 179.04625) scale(0.08 -0.08)">
       <defs>
        <path id="ArialMT-32" d="M 3222 541 
L 3222 0 
L 194 0 
Q 188 203 259 391 
Q 375 700 629 1000 
Q 884 1300 1366 1694 
Q 2113 2306 2375 2664 
Q 2638 3022 2638 3341 
Q 2638 3675 2398 3904 
Q 2159 4134 1775 4134 
Q 1369 4134 1125 3890 
Q 881 3647 878 3216 
L 300 3275 
Q 359 3922 746 4261 
Q 1134 4600 1788 4600 
Q 2447 4600 2831 4234 
Q 3216 3869 3216 3328 
Q 3216 3053 3103 2787 
Q 2991 2522 2730 2228 
Q 2469 1934 1863 1422 
Q 1356 997 1212 845 
Q 1069 694 975 541 
L 3222 541 
z
" transform="scale(0.015625)"/>
       </defs>
       <use xlink:href="#ArialMT-32"/>
       <use xlink:href="#ArialMT-30" x="55.615234"/>
       <use xlink:href="#ArialMT-30" x="111.230469"/>
      </g>
     </g>
    </g>
    <g id="xtick_4">
     <g id="line2d_4">
      <g>
       <use xlink:href="#m21b63bcc0e" x="154.899888" y="166.32" style="stroke: #000000; stroke-width: 0.8"/>
      </g>
     </g>
     <g id="text_4">
      <!-- 300 -->
      <g transform="translate(148.226763 179.04625) scale(0.08 -0.08)">
       <defs>
        <path id="ArialMT-33" d="M 269 1209 
L 831 1284 
Q 928 806 1161 595 
Q 1394 384 1728 384 
Q 2125 384 2398 659 
Q 2672 934 2672 1341 
Q 2672 1728 2419 1979 
Q 2166 2231 1775 2231 
Q 1616 2231 1378 2169 
L 1441 2663 
Q 1497 2656 1531 2656 
Q 1891 2656 2178 2843 
Q 2466 3031 2466 3422 
Q 2466 3731 2256 3934 
Q 2047 4138 1716 4138 
Q 1388 4138 1169 3931 
Q 950 3725 888 3313 
L 325 3413 
Q 428 3978 793 4289 
Q 1159 4600 1703 4600 
Q 2078 4600 2393 4439 
Q 2709 4278 2876 4000 
Q 3044 3722 3044 3409 
Q 3044 3113 2884 2869 
Q 2725 2625 2413 2481 
Q 2819 2388 3044 2092 
Q 3269 1797 3269 1353 
Q 3269 753 2831 336 
Q 2394 -81 1725 -81 
Q 1122 -81 723 278 
Q 325 638 269 1209 
z
" transform="scale(0.015625)"/>
       </defs>
       <use xlink:href="#ArialMT-33"/>
       <use xlink:href="#ArialMT-30" x="55.615234"/>
       <use xlink:href="#ArialMT-30" x="111.230469"/>
      </g>
     </g>
    </g>
    <g id="xtick_5">
     <g id="line2d_5">
      <g>
       <use xlink:href="#m21b63bcc0e" x="195.563032" y="166.32" style="stroke: #000000; stroke-width: 0.8"/>
      </g>
     </g>
     <g id="text_5">
      <!-- 400 -->
      <g transform="translate(188.889907 179.04625) scale(0.08 -0.08)">
       <defs>
        <path id="ArialMT-34" d="M 2069 0 
L 2069 1097 
L 81 1097 
L 81 1613 
L 2172 4581 
L 2631 4581 
L 2631 1613 
L 3250 1613 
L 3250 1097 
L 2631 1097 
L 2631 0 
L 2069 0 
z
M 2069 1613 
L 2069 3678 
L 634 1613 
L 2069 1613 
z
" transform="scale(0.015625)"/>
       </defs>
       <use xlink:href="#ArialMT-34"/>
       <use xlink:href="#ArialMT-30" x="55.615234"/>
       <use xlink:href="#ArialMT-30" x="111.230469"/>
      </g>
     </g>
    </g>
    <g id="xtick_6">
     <g id="line2d_6">
      <g>
       <use xlink:href="#m21b63bcc0e" x="236.226177" y="166.32" style="stroke: #000000; stroke-width: 0.8"/>
      </g>
     </g>
     <g id="text_6">
      <!-- 500 -->
      <g transform="translate(229.553052 179.04625) scale(0.08 -0.08)">
       <defs>
        <path id="ArialMT-35" d="M 266 1200 
L 856 1250 
Q 922 819 1161 601 
Q 1400 384 1738 384 
Q 2144 384 2425 690 
Q 2706 997 2706 1503 
Q 2706 1984 2436 2262 
Q 2166 2541 1728 2541 
Q 1456 2541 1237 2417 
Q 1019 2294 894 2097 
L 366 2166 
L 809 4519 
L 3088 4519 
L 3088 3981 
L 1259 3981 
L 1013 2750 
Q 1425 3038 1878 3038 
Q 2478 3038 2890 2622 
Q 3303 2206 3303 1553 
Q 3303 931 2941 478 
Q 2500 -78 1738 -78 
Q 1113 -78 717 272 
Q 322 622 266 1200 
z
" transform="scale(0.015625)"/>
       </defs>
       <use xlink:href="#ArialMT-35"/>
       <use xlink:href="#ArialMT-30" x="55.615234"/>
       <use xlink:href="#ArialMT-30" x="111.230469"/>
      </g>
     </g>
    </g>
    <g id="text_7">
     <!-- Trajectory time -->
     <g transform="translate(108.0675 190.3625) scale(0.08 -0.08)">
      <defs>
       <path id="ArialMT-54" d="M 1659 0 
L 1659 4041 
L 150 4041 
L 150 4581 
L 3781 4581 
L 3781 4041 
L 2266 4041 
L 2266 0 
L 1659 0 
z
" transform="scale(0.015625)"/>
       <path id="ArialMT-72" d="M 416 0 
L 416 3319 
L 922 3319 
L 922 2816 
Q 1116 3169 1280 3281 
Q 1444 3394 1641 3394 
Q 1925 3394 2219 3213 
L 2025 2691 
Q 1819 2813 1613 2813 
Q 1428 2813 1281 2702 
Q 1134 2591 1072 2394 
Q 978 2094 978 1738 
L 978 0 
L 416 0 
z
" transform="scale(0.015625)"/>
       <path id="ArialMT-61" d="M 2588 409 
Q 2275 144 1986 34 
Q 1697 -75 1366 -75 
Q 819 -75 525 192 
Q 231 459 231 875 
Q 231 1119 342 1320 
Q 453 1522 633 1644 
Q 813 1766 1038 1828 
Q 1203 1872 1538 1913 
Q 2219 1994 2541 2106 
Q 2544 2222 2544 2253 
Q 2544 2597 2384 2738 
Q 2169 2928 1744 2928 
Q 1347 2928 1158 2789 
Q 969 2650 878 2297 
L 328 2372 
Q 403 2725 575 2942 
Q 747 3159 1072 3276 
Q 1397 3394 1825 3394 
Q 2250 3394 2515 3294 
Q 2781 3194 2906 3042 
Q 3031 2891 3081 2659 
Q 3109 2516 3109 2141 
L 3109 1391 
Q 3109 606 3145 398 
Q 3181 191 3288 0 
L 2700 0 
Q 2613 175 2588 409 
z
M 2541 1666 
Q 2234 1541 1622 1453 
Q 1275 1403 1131 1340 
Q 988 1278 909 1158 
Q 831 1038 831 891 
Q 831 666 1001 516 
Q 1172 366 1500 366 
Q 1825 366 2078 508 
Q 2331 650 2450 897 
Q 2541 1088 2541 1459 
L 2541 1666 
z
" transform="scale(0.015625)"/>
       <path id="ArialMT-6a" d="M 419 3928 
L 419 4581 
L 981 4581 
L 981 3928 
L 419 3928 
z
M -294 -1288 
L -188 -809 
Q -19 -853 78 -853 
Q 250 -853 334 -739 
Q 419 -625 419 -169 
L 419 3319 
L 981 3319 
L 981 -181 
Q 981 -794 822 -1034 
Q 619 -1347 147 -1347 
Q -81 -1347 -294 -1288 
z
" transform="scale(0.015625)"/>
       <path id="ArialMT-65" d="M 2694 1069 
L 3275 997 
Q 3138 488 2766 206 
Q 2394 -75 1816 -75 
Q 1088 -75 661 373 
Q 234 822 234 1631 
Q 234 2469 665 2931 
Q 1097 3394 1784 3394 
Q 2450 3394 2872 2941 
Q 3294 2488 3294 1666 
Q 3294 1616 3291 1516 
L 816 1516 
Q 847 969 1125 678 
Q 1403 388 1819 388 
Q 2128 388 2347 550 
Q 2566 713 2694 1069 
z
M 847 1978 
L 2700 1978 
Q 2663 2397 2488 2606 
Q 2219 2931 1791 2931 
Q 1403 2931 1139 2672 
Q 875 2413 847 1978 
z
" transform="scale(0.015625)"/>
       <path id="ArialMT-63" d="M 2588 1216 
L 3141 1144 
Q 3050 572 2676 248 
Q 2303 -75 1759 -75 
Q 1078 -75 664 370 
Q 250 816 250 1647 
Q 250 2184 428 2587 
Q 606 2991 970 3192 
Q 1334 3394 1763 3394 
Q 2303 3394 2647 3120 
Q 2991 2847 3088 2344 
L 2541 2259 
Q 2463 2594 2264 2762 
Q 2066 2931 1784 2931 
Q 1359 2931 1093 2626 
Q 828 2322 828 1663 
Q 828 994 1084 691 
Q 1341 388 1753 388 
Q 2084 388 2306 591 
Q 2528 794 2588 1216 
z
" transform="scale(0.015625)"/>
       <path id="ArialMT-74" d="M 1650 503 
L 1731 6 
Q 1494 -44 1306 -44 
Q 1000 -44 831 53 
Q 663 150 594 308 
Q 525 466 525 972 
L 525 2881 
L 113 2881 
L 113 3319 
L 525 3319 
L 525 4141 
L 1084 4478 
L 1084 3319 
L 1650 3319 
L 1650 2881 
L 1084 2881 
L 1084 941 
Q 1084 700 1114 631 
Q 1144 563 1211 522 
Q 1278 481 1403 481 
Q 1497 481 1650 503 
z
" transform="scale(0.015625)"/>
       <path id="ArialMT-6f" d="M 213 1659 
Q 213 2581 725 3025 
Q 1153 3394 1769 3394 
Q 2453 3394 2887 2945 
Q 3322 2497 3322 1706 
Q 3322 1066 3130 698 
Q 2938 331 2570 128 
Q 2203 -75 1769 -75 
Q 1072 -75 642 372 
Q 213 819 213 1659 
z
M 791 1659 
Q 791 1022 1069 705 
Q 1347 388 1769 388 
Q 2188 388 2466 706 
Q 2744 1025 2744 1678 
Q 2744 2294 2464 2611 
Q 2184 2928 1769 2928 
Q 1347 2928 1069 2612 
Q 791 2297 791 1659 
z
" transform="scale(0.015625)"/>
       <path id="ArialMT-79" d="M 397 -1278 
L 334 -750 
Q 519 -800 656 -800 
Q 844 -800 956 -737 
Q 1069 -675 1141 -563 
Q 1194 -478 1313 -144 
Q 1328 -97 1363 -6 
L 103 3319 
L 709 3319 
L 1400 1397 
Q 1534 1031 1641 628 
Q 1738 1016 1872 1384 
L 2581 3319 
L 3144 3319 
L 1881 -56 
Q 1678 -603 1566 -809 
Q 1416 -1088 1222 -1217 
Q 1028 -1347 759 -1347 
Q 597 -1347 397 -1278 
z
" transform="scale(0.015625)"/>
       <path id="ArialMT-20" transform="scale(0.015625)"/>
       <path id="ArialMT-69" d="M 425 3934 
L 425 4581 
L 988 4581 
L 988 3934 
L 425 3934 
z
M 425 0 
L 425 3319 
L 988 3319 
L 988 0 
L 425 0 
z
" transform="scale(0.015625)"/>
       <path id="ArialMT-6d" d="M 422 0 
L 422 3319 
L 925 3319 
L 925 2853 
Q 1081 3097 1340 3245 
Q 1600 3394 1931 3394 
Q 2300 3394 2536 3241 
Q 2772 3088 2869 2813 
Q 3263 3394 3894 3394 
Q 4388 3394 4653 3120 
Q 4919 2847 4919 2278 
L 4919 0 
L 4359 0 
L 4359 2091 
Q 4359 2428 4304 2576 
Q 4250 2725 4106 2815 
Q 3963 2906 3769 2906 
Q 3419 2906 3187 2673 
Q 2956 2441 2956 1928 
L 2956 0 
L 2394 0 
L 2394 2156 
Q 2394 2531 2256 2718 
Q 2119 2906 1806 2906 
Q 1569 2906 1367 2781 
Q 1166 2656 1075 2415 
Q 984 2175 984 1722 
L 984 0 
L 422 0 
z
" transform="scale(0.015625)"/>
      </defs>
      <use xlink:href="#ArialMT-54"/>
      <use xlink:href="#ArialMT-72" x="57.333984"/>
      <use xlink:href="#ArialMT-61" x="90.634766"/>
      <use xlink:href="#ArialMT-6a" x="146.25"/>
      <use xlink:href="#ArialMT-65" x="168.466797"/>
      <use xlink:href="#ArialMT-63" x="224.082031"/>
      <use xlink:href="#ArialMT-74" x="274.082031"/>
      <use xlink:href="#ArialMT-6f" x="301.865234"/>
      <use xlink:href="#ArialMT-72" x="357.480469"/>
      <use xlink:href="#ArialMT-79" x="390.78125"/>
      <use xlink:href="#ArialMT-20" x="440.78125"/>
      <use xlink:href="#ArialMT-74" x="468.564453"/>
      <use xlink:href="#ArialMT-69" x="496.347656"/>
      <use xlink:href="#ArialMT-6d" x="518.564453"/>
      <use xlink:href="#ArialMT-65" x="601.865234"/>
     </g>
    </g>
   </g>
   <g id="matplotlib.axis_2">
    <g id="ytick_1">
     <g id="line2d_7">
      <defs>
       <path id="m5fa33ad18d" d="M 0 0 
L -3.5 0 
" style="stroke: #000000; stroke-width: 0.8"/>
      </defs>
      <g>
       <use xlink:href="#m5fa33ad18d" x="22.765" y="158.76" style="stroke: #000000; stroke-width: 0.8"/>
      </g>
     </g>
     <g id="text_8">
      <!-- 0 -->
      <g transform="translate(11.31625 161.623125) scale(0.08 -0.08)">
       <use xlink:href="#ArialMT-30"/>
      </g>
     </g>
    </g>
    <g id="ytick_2">
     <g id="line2d_8">
      <g>
       <use xlink:href="#m5fa33ad18d" x="22.765" y="125.968071" style="stroke: #000000; stroke-width: 0.8"/>
      </g>
     </g>
     <g id="text_9">
      <!-- 2 -->
      <g transform="translate(11.31625 128.831196) scale(0.08 -0.08)">
       <use xlink:href="#ArialMT-32"/>
      </g>
     </g>
    </g>
    <g id="ytick_3">
     <g id="line2d_9">
      <g>
       <use xlink:href="#m5fa33ad18d" x="22.765" y="93.176141" style="stroke: #000000; stroke-width: 0.8"/>
      </g>
     </g>
     <g id="text_10">
      <!-- 4 -->
      <g transform="translate(11.31625 96.039266) scale(0.08 -0.08)">
       <use xlink:href="#ArialMT-34"/>
      </g>
     </g>
    </g>
    <g id="ytick_4">
     <g id="line2d_10">
      <g>
       <use xlink:href="#m5fa33ad18d" x="22.765" y="60.384212" style="stroke: #000000; stroke-width: 0.8"/>
      </g>
     </g>
     <g id="text_11">
      <!-- 6 -->
      <g transform="translate(11.31625 63.247337) scale(0.08 -0.08)">
       <defs>
        <path id="ArialMT-36" d="M 3184 3459 
L 2625 3416 
Q 2550 3747 2413 3897 
Q 2184 4138 1850 4138 
Q 1581 4138 1378 3988 
Q 1113 3794 959 3422 
Q 806 3050 800 2363 
Q 1003 2672 1297 2822 
Q 1591 2972 1913 2972 
Q 2475 2972 2870 2558 
Q 3266 2144 3266 1488 
Q 3266 1056 3080 686 
Q 2894 316 2569 119 
Q 2244 -78 1831 -78 
Q 1128 -78 684 439 
Q 241 956 241 2144 
Q 241 3472 731 4075 
Q 1159 4600 1884 4600 
Q 2425 4600 2770 4297 
Q 3116 3994 3184 3459 
z
M 888 1484 
Q 888 1194 1011 928 
Q 1134 663 1356 523 
Q 1578 384 1822 384 
Q 2178 384 2434 671 
Q 2691 959 2691 1453 
Q 2691 1928 2437 2201 
Q 2184 2475 1800 2475 
Q 1419 2475 1153 2201 
Q 888 1928 888 1484 
z
" transform="scale(0.015625)"/>
       </defs>
       <use xlink:href="#ArialMT-36"/>
      </g>
     </g>
    </g>
    <g id="ytick_5">
     <g id="line2d_11">
      <g>
       <use xlink:href="#m5fa33ad18d" x="22.765" y="27.592282" style="stroke: #000000; stroke-width: 0.8"/>
      </g>
     </g>
     <g id="text_12">
      <!-- 8 -->
      <g transform="translate(11.31625 30.455407) scale(0.08 -0.08)">
       <defs>
        <path id="ArialMT-38" d="M 1131 2484 
Q 781 2613 612 2850 
Q 444 3088 444 3419 
Q 444 3919 803 4259 
Q 1163 4600 1759 4600 
Q 2359 4600 2725 4251 
Q 3091 3903 3091 3403 
Q 3091 3084 2923 2848 
Q 2756 2613 2416 2484 
Q 2838 2347 3058 2040 
Q 3278 1734 3278 1309 
Q 3278 722 2862 322 
Q 2447 -78 1769 -78 
Q 1091 -78 675 323 
Q 259 725 259 1325 
Q 259 1772 486 2073 
Q 713 2375 1131 2484 
z
M 1019 3438 
Q 1019 3113 1228 2906 
Q 1438 2700 1772 2700 
Q 2097 2700 2305 2904 
Q 2513 3109 2513 3406 
Q 2513 3716 2298 3927 
Q 2084 4138 1766 4138 
Q 1444 4138 1231 3931 
Q 1019 3725 1019 3438 
z
M 838 1322 
Q 838 1081 952 856 
Q 1066 631 1291 507 
Q 1516 384 1775 384 
Q 2178 384 2440 643 
Q 2703 903 2703 1303 
Q 2703 1709 2433 1975 
Q 2163 2241 1756 2241 
Q 1359 2241 1098 1978 
Q 838 1716 838 1322 
z
" transform="scale(0.015625)"/>
       </defs>
       <use xlink:href="#ArialMT-38"/>
      </g>
     </g>
    </g>
    <g id="text_13">
     <!-- Error [Euclidean Distance] -->
     <g transform="translate(5.72625 129.6225) rotate(-90) scale(0.08 -0.08)">
      <defs>
       <path id="ArialMT-45" d="M 506 0 
L 506 4581 
L 3819 4581 
L 3819 4041 
L 1113 4041 
L 1113 2638 
L 3647 2638 
L 3647 2100 
L 1113 2100 
L 1113 541 
L 3925 541 
L 3925 0 
L 506 0 
z
" transform="scale(0.015625)"/>
       <path id="ArialMT-5b" d="M 434 -1272 
L 434 4581 
L 1675 4581 
L 1675 4116 
L 997 4116 
L 997 -806 
L 1675 -806 
L 1675 -1272 
L 434 -1272 
z
" transform="scale(0.015625)"/>
       <path id="ArialMT-75" d="M 2597 0 
L 2597 488 
Q 2209 -75 1544 -75 
Q 1250 -75 995 37 
Q 741 150 617 320 
Q 494 491 444 738 
Q 409 903 409 1263 
L 409 3319 
L 972 3319 
L 972 1478 
Q 972 1038 1006 884 
Q 1059 663 1231 536 
Q 1403 409 1656 409 
Q 1909 409 2131 539 
Q 2353 669 2445 892 
Q 2538 1116 2538 1541 
L 2538 3319 
L 3100 3319 
L 3100 0 
L 2597 0 
z
" transform="scale(0.015625)"/>
       <path id="ArialMT-6c" d="M 409 0 
L 409 4581 
L 972 4581 
L 972 0 
L 409 0 
z
" transform="scale(0.015625)"/>
       <path id="ArialMT-64" d="M 2575 0 
L 2575 419 
Q 2259 -75 1647 -75 
Q 1250 -75 917 144 
Q 584 363 401 755 
Q 219 1147 219 1656 
Q 219 2153 384 2558 
Q 550 2963 881 3178 
Q 1213 3394 1622 3394 
Q 1922 3394 2156 3267 
Q 2391 3141 2538 2938 
L 2538 4581 
L 3097 4581 
L 3097 0 
L 2575 0 
z
M 797 1656 
Q 797 1019 1065 703 
Q 1334 388 1700 388 
Q 2069 388 2326 689 
Q 2584 991 2584 1609 
Q 2584 2291 2321 2609 
Q 2059 2928 1675 2928 
Q 1300 2928 1048 2622 
Q 797 2316 797 1656 
z
" transform="scale(0.015625)"/>
       <path id="ArialMT-6e" d="M 422 0 
L 422 3319 
L 928 3319 
L 928 2847 
Q 1294 3394 1984 3394 
Q 2284 3394 2536 3286 
Q 2788 3178 2913 3003 
Q 3038 2828 3088 2588 
Q 3119 2431 3119 2041 
L 3119 0 
L 2556 0 
L 2556 2019 
Q 2556 2363 2490 2533 
Q 2425 2703 2258 2804 
Q 2091 2906 1866 2906 
Q 1506 2906 1245 2678 
Q 984 2450 984 1813 
L 984 0 
L 422 0 
z
" transform="scale(0.015625)"/>
       <path id="ArialMT-44" d="M 494 0 
L 494 4581 
L 2072 4581 
Q 2606 4581 2888 4516 
Q 3281 4425 3559 4188 
Q 3922 3881 4101 3404 
Q 4281 2928 4281 2316 
Q 4281 1794 4159 1391 
Q 4038 988 3847 723 
Q 3656 459 3429 307 
Q 3203 156 2883 78 
Q 2563 0 2147 0 
L 494 0 
z
M 1100 541 
L 2078 541 
Q 2531 541 2789 625 
Q 3047 709 3200 863 
Q 3416 1078 3536 1442 
Q 3656 1806 3656 2325 
Q 3656 3044 3420 3430 
Q 3184 3816 2847 3947 
Q 2603 4041 2063 4041 
L 1100 4041 
L 1100 541 
z
" transform="scale(0.015625)"/>
       <path id="ArialMT-73" d="M 197 991 
L 753 1078 
Q 800 744 1014 566 
Q 1228 388 1613 388 
Q 2000 388 2187 545 
Q 2375 703 2375 916 
Q 2375 1106 2209 1216 
Q 2094 1291 1634 1406 
Q 1016 1563 777 1677 
Q 538 1791 414 1992 
Q 291 2194 291 2438 
Q 291 2659 392 2848 
Q 494 3038 669 3163 
Q 800 3259 1026 3326 
Q 1253 3394 1513 3394 
Q 1903 3394 2198 3281 
Q 2494 3169 2634 2976 
Q 2775 2784 2828 2463 
L 2278 2388 
Q 2241 2644 2061 2787 
Q 1881 2931 1553 2931 
Q 1166 2931 1000 2803 
Q 834 2675 834 2503 
Q 834 2394 903 2306 
Q 972 2216 1119 2156 
Q 1203 2125 1616 2013 
Q 2213 1853 2448 1751 
Q 2684 1650 2818 1456 
Q 2953 1263 2953 975 
Q 2953 694 2789 445 
Q 2625 197 2315 61 
Q 2006 -75 1616 -75 
Q 969 -75 630 194 
Q 291 463 197 991 
z
" transform="scale(0.015625)"/>
       <path id="ArialMT-5d" d="M 1363 -1272 
L 122 -1272 
L 122 -806 
L 800 -806 
L 800 4116 
L 122 4116 
L 122 4581 
L 1363 4581 
L 1363 -1272 
z
" transform="scale(0.015625)"/>
      </defs>
      <use xlink:href="#ArialMT-45"/>
      <use xlink:href="#ArialMT-72" x="66.699219"/>
      <use xlink:href="#ArialMT-72" x="100"/>
      <use xlink:href="#ArialMT-6f" x="133.300781"/>
      <use xlink:href="#ArialMT-72" x="188.916016"/>
      <use xlink:href="#ArialMT-20" x="222.216797"/>
      <use xlink:href="#ArialMT-5b" x="250"/>
      <use xlink:href="#ArialMT-45" x="277.783203"/>
      <use xlink:href="#ArialMT-75" x="344.482422"/>
      <use xlink:href="#ArialMT-63" x="400.097656"/>
      <use xlink:href="#ArialMT-6c" x="450.097656"/>
      <use xlink:href="#ArialMT-69" x="472.314453"/>
      <use xlink:href="#ArialMT-64" x="494.53125"/>
      <use xlink:href="#ArialMT-65" x="550.146484"/>
      <use xlink:href="#ArialMT-61" x="605.761719"/>
      <use xlink:href="#ArialMT-6e" x="661.376953"/>
      <use xlink:href="#ArialMT-20" x="716.992188"/>
      <use xlink:href="#ArialMT-44" x="744.775391"/>
      <use xlink:href="#ArialMT-69" x="816.992188"/>
      <use xlink:href="#ArialMT-73" x="839.208984"/>
      <use xlink:href="#ArialMT-74" x="889.208984"/>
      <use xlink:href="#ArialMT-61" x="916.992188"/>
      <use xlink:href="#ArialMT-6e" x="972.607422"/>
      <use xlink:href="#ArialMT-63" x="1028.222656"/>
      <use xlink:href="#ArialMT-65" x="1078.222656"/>
      <use xlink:href="#ArialMT-5d" x="1133.837891"/>
     </g>
    </g>
   </g>
   <g id="PolyCollection_1">
    <path d="M 32.910455 158.76 
L 32.910455 158.76 
L 33.317086 158.624674 
L 33.723717 158.530485 
L 34.130349 158.504446 
L 34.53698 158.424365 
L 34.943612 158.332112 
L 35.350243 158.251066 
L 35.756875 158.183489 
L 36.163506 158.110523 
L 36.570138 158.043663 
L 36.976769 157.974831 
L 37.3834 157.894369 
L 37.790032 157.802217 
L 38.196663 157.727874 
L 38.603295 157.634702 
L 39.009926 157.551251 
L 39.416558 157.490403 
L 39.823189 157.427811 
L 40.229821 157.421701 
L 40.636452 157.407873 
L 41.043083 157.375267 
L 41.449715 157.336142 
L 41.856346 157.319058 
L 42.262978 157.304259 
L 42.669609 157.255703 
L 43.076241 157.231706 
L 43.482872 157.186704 
L 43.889504 157.159474 
L 44.296135 157.122732 
L 44.702766 157.11824 
L 45.109398 157.098369 
L 45.516029 157.117308 
L 45.922661 157.087783 
L 46.329292 157.073158 
L 46.735924 157.098118 
L 47.142555 157.086958 
L 47.549187 157.043698 
L 47.955818 157.025622 
L 48.362449 156.981116 
L 48.769081 156.94561 
L 49.175712 156.970569 
L 49.582344 156.897532 
L 49.988975 156.889516 
L 50.395607 156.883092 
L 50.802238 156.814028 
L 51.20887 156.819684 
L 51.615501 156.77884 
L 52.022132 156.757541 
L 52.428764 156.74246 
L 52.835395 156.718501 
L 53.242027 156.697655 
L 53.648658 156.67236 
L 54.05529 156.627421 
L 54.461921 156.621287 
L 54.868553 156.634311 
L 55.275184 156.602468 
L 55.681815 156.585983 
L 56.088447 156.542955 
L 56.495078 156.537508 
L 56.90171 156.563428 
L 57.308341 156.573936 
L 57.714973 156.6045 
L 58.121604 156.589135 
L 58.528236 156.560124 
L 58.934867 156.54791 
L 59.341498 156.54038 
L 59.74813 156.501075 
L 60.154761 156.502476 
L 60.561393 156.471173 
L 60.968024 156.483044 
L 61.374656 156.427974 
L 61.781287 156.434415 
L 62.187919 156.392882 
L 62.59455 156.40485 
L 63.001181 156.337941 
L 63.407813 156.286334 
L 63.814444 156.280479 
L 64.221076 156.276196 
L 64.627707 156.267698 
L 65.034339 156.294137 
L 65.44097 156.272354 
L 65.847602 156.22376 
L 66.254233 156.227731 
L 66.660864 156.183888 
L 67.067496 156.173085 
L 67.474127 156.182706 
L 67.880759 156.183115 
L 68.28739 156.142561 
L 68.694022 156.178558 
L 69.100653 156.136826 
L 69.507285 156.101785 
L 69.913916 156.058396 
L 70.320547 155.989485 
L 70.727179 155.952421 
L 71.13381 155.907989 
L 71.540442 155.88494 
L 71.947073 155.870742 
L 72.353705 155.801581 
L 72.760336 155.785667 
L 73.166968 155.712338 
L 73.573599 155.694472 
L 73.98023 155.643402 
L 74.386862 155.605302 
L 74.793493 155.578716 
L 75.200125 155.561365 
L 75.606756 155.588781 
L 76.013388 155.581934 
L 76.420019 155.61385 
L 76.826651 155.594514 
L 77.233282 155.591714 
L 77.639913 155.564444 
L 78.046545 155.577687 
L 78.453176 155.563926 
L 78.859808 155.499311 
L 79.266439 155.511181 
L 79.673071 155.515301 
L 80.079702 155.519737 
L 80.486334 155.452279 
L 80.892965 155.42531 
L 81.299596 155.389982 
L 81.706228 155.371949 
L 82.112859 155.308574 
L 82.519491 155.312253 
L 82.926122 155.305903 
L 83.332754 155.32247 
L 83.739385 155.25074 
L 84.146017 155.247987 
L 84.552648 155.227936 
L 84.959279 155.188729 
L 85.365911 155.177227 
L 85.772542 155.17607 
L 86.179174 155.155447 
L 86.585805 155.16592 
L 86.992437 155.146454 
L 87.399068 155.102366 
L 87.8057 155.000218 
L 88.212331 154.975757 
L 88.618962 154.966564 
L 89.025594 154.924916 
L 89.432225 154.948108 
L 89.838857 154.934279 
L 90.245488 154.903209 
L 90.65212 154.83389 
L 91.058751 154.845806 
L 91.465383 154.775902 
L 91.872014 154.713001 
L 92.278645 154.7141 
L 92.685277 154.6453 
L 93.091908 154.582602 
L 93.49854 154.530988 
L 93.905171 154.519744 
L 94.311803 154.48629 
L 94.718434 154.396677 
L 95.125066 154.438456 
L 95.531697 154.379668 
L 95.938328 154.316673 
L 96.34496 154.304789 
L 96.751591 154.286231 
L 97.158223 154.28508 
L 97.564854 154.262244 
L 97.971486 154.252681 
L 98.378117 154.258657 
L 98.784749 154.20257 
L 99.19138 154.230676 
L 99.598011 154.208476 
L 100.004643 154.153757 
L 100.411274 154.163199 
L 100.817906 154.115739 
L 101.224537 154.099126 
L 101.631169 154.135779 
L 102.0378 154.082481 
L 102.444432 154.097619 
L 102.851063 154.090298 
L 103.257694 154.040919 
L 103.664326 154.059039 
L 104.070957 154.047409 
L 104.477589 154.024944 
L 104.88422 153.974342 
L 105.290852 153.964474 
L 105.697483 153.885991 
L 106.104115 153.87692 
L 106.510746 153.824327 
L 106.917377 153.829277 
L 107.324009 153.738837 
L 107.73064 153.665944 
L 108.137272 153.646167 
L 108.543903 153.692996 
L 108.950535 153.699409 
L 109.357166 153.671325 
L 109.763798 153.593316 
L 110.170429 153.557036 
L 110.57706 153.471542 
L 110.983692 153.420108 
L 111.390323 153.43859 
L 111.796955 153.45015 
L 112.203586 153.430115 
L 112.610218 153.32094 
L 113.016849 153.327453 
L 113.423481 153.249712 
L 113.830112 153.179921 
L 114.236743 153.134558 
L 114.643375 153.088878 
L 115.050006 153.063873 
L 115.456638 153.058882 
L 115.863269 153.061076 
L 116.269901 153.012682 
L 116.676532 153.02979 
L 117.083164 152.919133 
L 117.489795 152.894818 
L 117.896426 152.834832 
L 118.303058 152.79525 
L 118.709689 152.743773 
L 119.116321 152.726691 
L 119.522952 152.610775 
L 119.929584 152.608057 
L 120.336215 152.635008 
L 120.742847 152.695036 
L 121.149478 152.690638 
L 121.556109 152.668496 
L 121.962741 152.565476 
L 122.369372 152.500806 
L 122.776004 152.474211 
L 123.182635 152.441334 
L 123.589267 152.362773 
L 123.995898 152.314691 
L 124.40253 152.188205 
L 124.809161 152.188854 
L 125.215792 152.192849 
L 125.622424 152.188681 
L 126.029055 152.165131 
L 126.435687 152.129275 
L 126.842318 152.000824 
L 127.24895 151.998561 
L 127.655581 151.913564 
L 128.062213 151.829029 
L 128.468844 151.86492 
L 128.875475 151.823596 
L 129.282107 151.753427 
L 129.688738 151.696744 
L 130.09537 151.660932 
L 130.502001 151.616587 
L 130.908633 151.558875 
L 131.315264 151.677943 
L 131.721896 151.63744 
L 132.128527 151.580138 
L 132.535158 151.602859 
L 132.94179 151.568541 
L 133.348421 151.51547 
L 133.755053 151.490806 
L 134.161684 151.386973 
L 134.568316 151.292145 
L 134.974947 151.285587 
L 135.381579 151.222598 
L 135.78821 151.193701 
L 136.194842 151.143244 
L 136.601473 151.151806 
L 137.008104 151.198303 
L 137.414736 151.251176 
L 137.821367 151.231761 
L 138.227999 151.130999 
L 138.63463 151.103649 
L 139.041262 151.056302 
L 139.447893 150.972266 
L 139.854525 151.007615 
L 140.261156 150.949477 
L 140.667787 150.919822 
L 141.074419 150.891697 
L 141.48105 150.884288 
L 141.887682 150.868037 
L 142.294313 150.755594 
L 142.700945 150.660126 
L 143.107576 150.617144 
L 143.514208 150.595942 
L 143.920839 150.5522 
L 144.32747 150.600832 
L 144.734102 150.44663 
L 145.140733 150.319615 
L 145.547365 150.379032 
L 145.953996 150.312013 
L 146.360628 150.348856 
L 146.767259 150.271552 
L 147.173891 150.213942 
L 147.580522 150.208571 
L 147.987153 150.163395 
L 148.393785 150.245795 
L 148.800416 150.213637 
L 149.207048 150.214388 
L 149.613679 150.098127 
L 150.020311 150.084087 
L 150.426942 150.161288 
L 150.833574 150.137098 
L 151.240205 150.047623 
L 151.646836 149.914919 
L 152.053468 149.9642 
L 152.460099 149.969095 
L 152.866731 149.94036 
L 153.273362 149.934499 
L 153.679994 149.973703 
L 154.086625 149.871104 
L 154.493257 149.761518 
L 154.899888 149.71362 
L 155.306519 149.720218 
L 155.713151 149.705064 
L 156.119782 149.69299 
L 156.526414 149.677575 
L 156.933045 149.566869 
L 157.339677 149.557111 
L 157.746308 149.359657 
L 158.15294 149.367542 
L 158.559571 149.402197 
L 158.966202 149.390667 
L 159.372834 149.289271 
L 159.779465 149.303655 
L 160.186097 149.236351 
L 160.592728 149.19517 
L 160.99936 149.143708 
L 161.405991 149.122891 
L 161.812623 149.104507 
L 162.219254 149.099296 
L 162.625885 149.042578 
L 163.032517 148.992746 
L 163.439148 148.937201 
L 163.84578 149.00825 
L 164.252411 148.950955 
L 164.659043 148.918555 
L 165.065674 148.865791 
L 165.472306 148.857105 
L 165.878937 148.890699 
L 166.285568 148.876229 
L 166.6922 148.835489 
L 167.098831 148.750546 
L 167.505463 148.758948 
L 167.912094 148.834679 
L 168.318726 148.838741 
L 168.725357 148.746317 
L 169.131989 148.667545 
L 169.53862 148.636548 
L 169.945251 148.664683 
L 170.351883 148.629332 
L 170.758514 148.621802 
L 171.165146 148.591077 
L 171.571777 148.518535 
L 171.978409 148.484017 
L 172.38504 148.506325 
L 172.791672 148.41906 
L 173.198303 148.301789 
L 173.604934 148.332505 
L 174.011566 148.248575 
L 174.418197 148.215248 
L 174.824829 148.231034 
L 175.23146 148.112674 
L 175.638092 148.038987 
L 176.044723 148.056182 
L 176.451355 148.052231 
L 176.857986 148.066664 
L 177.264617 148.056472 
L 177.671249 147.941658 
L 178.07788 147.999091 
L 178.484512 147.966738 
L 178.891143 147.98262 
L 179.297775 147.919362 
L 179.704406 147.896899 
L 180.111038 147.868749 
L 180.517669 147.714754 
L 180.9243 147.729618 
L 181.330932 147.74808 
L 181.737563 147.727888 
L 182.144195 147.664194 
L 182.550826 147.584158 
L 182.957458 147.564305 
L 183.364089 147.679749 
L 183.770721 147.716822 
L 184.177352 147.589453 
L 184.583983 147.621484 
L 184.990615 147.516202 
L 185.397246 147.482201 
L 185.803878 147.308324 
L 186.210509 147.244601 
L 186.617141 147.22641 
L 187.023772 147.223926 
L 187.430404 147.135423 
L 187.837035 147.105609 
L 188.243666 147.066416 
L 188.650298 147.003478 
L 189.056929 146.908801 
L 189.463561 146.873633 
L 189.870192 146.780832 
L 190.276824 146.752512 
L 190.683455 146.724125 
L 191.090087 146.68876 
L 191.496718 146.640315 
L 191.903349 146.601521 
L 192.309981 146.566815 
L 192.716612 146.519826 
L 193.123244 146.55766 
L 193.529875 146.393274 
L 193.936507 146.344521 
L 194.343138 146.320275 
L 194.74977 146.312584 
L 195.156401 146.258011 
L 195.563032 146.171283 
L 195.969664 146.173436 
L 196.376295 146.207836 
L 196.782927 146.125411 
L 197.189558 146.124302 
L 197.59619 146.112056 
L 198.002821 145.983184 
L 198.409453 145.962559 
L 198.816084 145.948331 
L 199.222715 145.929506 
L 199.629347 145.765106 
L 200.035978 145.790602 
L 200.44261 145.778646 
L 200.849241 145.733505 
L 201.255873 145.783961 
L 201.662504 145.667694 
L 202.069136 145.641541 
L 202.475767 145.630093 
L 202.882398 145.640563 
L 203.28903 145.63929 
L 203.695661 145.555804 
L 204.102293 145.532153 
L 204.508924 145.412774 
L 204.915556 145.416235 
L 205.322187 145.402646 
L 205.728819 145.291876 
L 206.13545 145.184501 
L 206.542081 145.145762 
L 206.948713 145.212565 
L 207.355344 145.069819 
L 207.761976 145.109145 
L 208.168607 144.997691 
L 208.575239 144.920184 
L 208.98187 144.884274 
L 209.388502 144.913857 
L 209.795133 144.87039 
L 210.201764 144.946635 
L 210.608396 144.914932 
L 211.015027 144.91088 
L 211.421659 144.917667 
L 211.82829 144.905156 
L 212.234922 144.95007 
L 212.641553 144.864506 
L 213.048185 144.917345 
L 213.454816 144.908287 
L 213.861447 144.786063 
L 214.268079 144.804981 
L 214.67471 144.785016 
L 215.081342 144.783805 
L 215.487973 144.706012 
L 215.894605 144.70189 
L 216.301236 144.664237 
L 216.707868 144.60462 
L 217.114499 144.583524 
L 217.52113 144.413172 
L 217.927762 144.560597 
L 218.334393 144.425892 
L 218.741025 144.390414 
L 219.147656 144.47287 
L 219.554288 144.488591 
L 219.960919 144.476309 
L 220.367551 144.433734 
L 220.774182 144.424807 
L 221.180813 144.42094 
L 221.587445 144.386923 
L 221.994076 144.303901 
L 222.400708 144.295201 
L 222.807339 144.261133 
L 223.213971 144.305555 
L 223.620602 144.176253 
L 224.027234 144.185854 
L 224.433865 144.164409 
L 224.840496 144.068486 
L 225.247128 144.023188 
L 225.653759 144.006237 
L 226.060391 143.875903 
L 226.467022 143.884334 
L 226.873654 143.830874 
L 227.280285 143.791969 
L 227.686917 143.763382 
L 228.093548 143.7381 
L 228.500179 143.661301 
L 228.906811 143.644607 
L 229.313442 143.608347 
L 229.720074 143.55844 
L 230.126705 143.533026 
L 230.533337 143.427863 
L 230.939968 143.462196 
L 231.3466 143.553464 
L 231.753231 143.46329 
L 232.159862 143.386932 
L 232.566494 143.394911 
L 232.973125 143.231709 
L 233.379757 143.345079 
L 233.786388 143.29225 
L 234.19302 143.186038 
L 234.599651 143.20738 
L 235.006283 143.135992 
L 235.412914 143.1434 
L 235.819545 143.024099 
L 235.819545 124.529922 
L 235.819545 124.529922 
L 235.412914 124.542414 
L 235.006283 124.604362 
L 234.599651 124.791393 
L 234.19302 124.864555 
L 233.786388 124.96683 
L 233.379757 125.001052 
L 232.973125 124.911225 
L 232.566494 125.073044 
L 232.159862 125.15268 
L 231.753231 125.221351 
L 231.3466 125.440979 
L 230.939968 125.496002 
L 230.533337 125.58533 
L 230.126705 125.739043 
L 229.720074 125.859877 
L 229.313442 125.841159 
L 228.906811 125.920606 
L 228.500179 125.938045 
L 228.093548 125.947216 
L 227.686917 126.004834 
L 227.280285 126.064462 
L 226.873654 126.16183 
L 226.467022 126.230978 
L 226.060391 126.399222 
L 225.653759 126.518626 
L 225.247128 126.630577 
L 224.840496 126.692207 
L 224.433865 126.788715 
L 224.027234 126.859685 
L 223.620602 127.028828 
L 223.213971 127.167711 
L 222.807339 127.168675 
L 222.400708 127.245498 
L 221.994076 127.296259 
L 221.587445 127.319892 
L 221.180813 127.475817 
L 220.774182 127.667465 
L 220.367551 127.777571 
L 219.960919 127.769697 
L 219.554288 127.893081 
L 219.147656 127.982944 
L 218.741025 128.077636 
L 218.334393 128.130719 
L 217.927762 128.239067 
L 217.52113 128.332236 
L 217.114499 128.435143 
L 216.707868 128.569294 
L 216.301236 128.696947 
L 215.894605 128.732667 
L 215.487973 128.685784 
L 215.081342 128.712598 
L 214.67471 128.740562 
L 214.268079 128.838428 
L 213.861447 128.741766 
L 213.454816 128.867905 
L 213.048185 129.075745 
L 212.641553 129.175717 
L 212.234922 129.16381 
L 211.82829 129.339783 
L 211.421659 129.528311 
L 211.015027 129.829486 
L 210.608396 129.838224 
L 210.201764 130.050683 
L 209.795133 130.165009 
L 209.388502 130.314414 
L 208.98187 130.412263 
L 208.575239 130.575702 
L 208.168607 130.657948 
L 207.761976 130.577659 
L 207.355344 130.758609 
L 206.948713 130.960931 
L 206.542081 131.090186 
L 206.13545 131.090967 
L 205.728819 131.075826 
L 205.322187 131.085459 
L 204.915556 131.116431 
L 204.508924 131.273791 
L 204.102293 131.317708 
L 203.695661 131.482846 
L 203.28903 131.56731 
L 202.882398 131.561824 
L 202.475767 131.654418 
L 202.069136 131.735086 
L 201.662504 131.861989 
L 201.255873 131.915923 
L 200.849241 131.932181 
L 200.44261 132.122302 
L 200.035978 132.243907 
L 199.629347 132.211334 
L 199.222715 132.256116 
L 198.816084 132.514822 
L 198.409453 132.628027 
L 198.002821 132.634922 
L 197.59619 132.634969 
L 197.189558 132.603837 
L 196.782927 132.61891 
L 196.376295 132.66912 
L 195.969664 132.708163 
L 195.563032 132.762466 
L 195.156401 132.842476 
L 194.74977 132.926242 
L 194.343138 132.965752 
L 193.936507 133.000734 
L 193.529875 133.034514 
L 193.123244 133.130915 
L 192.716612 133.350756 
L 192.309981 133.400349 
L 191.903349 133.474877 
L 191.496718 133.567387 
L 191.090087 133.588686 
L 190.683455 133.63618 
L 190.276824 133.762723 
L 189.870192 133.920745 
L 189.463561 134.024532 
L 189.056929 134.006958 
L 188.650298 134.096168 
L 188.243666 134.145894 
L 187.837035 134.17378 
L 187.430404 134.335317 
L 187.023772 134.363801 
L 186.617141 134.394321 
L 186.210509 134.487538 
L 185.803878 134.61018 
L 185.397246 134.561784 
L 184.990615 134.544079 
L 184.583983 134.631216 
L 184.177352 134.809673 
L 183.770721 134.822572 
L 183.364089 134.897232 
L 182.957458 134.981493 
L 182.550826 135.073423 
L 182.144195 134.980841 
L 181.737563 134.983148 
L 181.330932 135.150488 
L 180.9243 135.12155 
L 180.517669 135.192703 
L 180.111038 135.27071 
L 179.704406 135.275511 
L 179.297775 135.44115 
L 178.891143 135.346206 
L 178.484512 135.399152 
L 178.07788 135.467094 
L 177.671249 135.468013 
L 177.264617 135.547405 
L 176.857986 135.62514 
L 176.451355 135.657522 
L 176.044723 135.744957 
L 175.638092 135.787835 
L 175.23146 135.859553 
L 174.824829 135.885561 
L 174.418197 136.01206 
L 174.011566 136.023035 
L 173.604934 136.081425 
L 173.198303 136.146529 
L 172.791672 136.332941 
L 172.38504 136.310783 
L 171.978409 136.36019 
L 171.571777 136.460019 
L 171.165146 136.650044 
L 170.758514 136.676335 
L 170.351883 136.775905 
L 169.945251 136.779611 
L 169.53862 136.893424 
L 169.131989 136.857869 
L 168.725357 136.934672 
L 168.318726 137.003586 
L 167.912094 137.095352 
L 167.505463 137.143587 
L 167.098831 137.220462 
L 166.6922 137.313465 
L 166.285568 137.272388 
L 165.878937 137.335827 
L 165.472306 137.454623 
L 165.065674 137.536365 
L 164.659043 137.547542 
L 164.252411 137.659666 
L 163.84578 137.798596 
L 163.439148 137.820248 
L 163.032517 137.948212 
L 162.625885 138.051608 
L 162.219254 138.221658 
L 161.812623 138.272683 
L 161.405991 138.250912 
L 160.99936 138.335507 
L 160.592728 138.379378 
L 160.186097 138.45812 
L 159.779465 138.538799 
L 159.372834 138.542922 
L 158.966202 138.647351 
L 158.559571 138.782052 
L 158.15294 138.774171 
L 157.746308 138.78593 
L 157.339677 138.900648 
L 156.933045 138.996709 
L 156.526414 139.038944 
L 156.119782 139.018032 
L 155.713151 139.131424 
L 155.306519 139.215329 
L 154.899888 139.289722 
L 154.493257 139.405859 
L 154.086625 139.426116 
L 153.679994 139.520556 
L 153.273362 139.497435 
L 152.866731 139.631749 
L 152.460099 139.674323 
L 152.053468 139.775225 
L 151.646836 139.903022 
L 151.240205 140.002536 
L 150.833574 140.005424 
L 150.426942 140.097628 
L 150.020311 140.083853 
L 149.613679 140.160131 
L 149.207048 140.21727 
L 148.800416 140.332505 
L 148.393785 140.456499 
L 147.987153 140.492306 
L 147.580522 140.587717 
L 147.173891 140.670714 
L 146.767259 140.694111 
L 146.360628 140.792869 
L 145.953996 140.878195 
L 145.547365 141.019351 
L 145.140733 141.007914 
L 144.734102 141.120049 
L 144.32747 141.102561 
L 143.920839 141.22756 
L 143.514208 141.227317 
L 143.107576 141.264199 
L 142.700945 141.477649 
L 142.294313 141.507319 
L 141.887682 141.553886 
L 141.48105 141.536791 
L 141.074419 141.649875 
L 140.667787 141.701634 
L 140.261156 141.726091 
L 139.854525 141.883997 
L 139.447893 141.972595 
L 139.041262 142.076956 
L 138.63463 142.238746 
L 138.227999 142.263643 
L 137.821367 142.345804 
L 137.414736 142.364993 
L 137.008104 142.478613 
L 136.601473 142.582644 
L 136.194842 142.69803 
L 135.78821 142.771878 
L 135.381579 142.788047 
L 134.974947 142.892799 
L 134.568316 142.901949 
L 134.161684 142.985115 
L 133.755053 143.02261 
L 133.348421 143.068364 
L 132.94179 143.084832 
L 132.535158 143.212023 
L 132.128527 143.291287 
L 131.721896 143.337486 
L 131.315264 143.477377 
L 130.908633 143.549453 
L 130.502001 143.628812 
L 130.09537 143.736934 
L 129.688738 143.806393 
L 129.282107 143.894199 
L 128.875475 144.031332 
L 128.468844 144.096091 
L 128.062213 144.20286 
L 127.655581 144.334824 
L 127.24895 144.349011 
L 126.842318 144.422045 
L 126.435687 144.613996 
L 126.029055 144.697838 
L 125.622424 144.786182 
L 125.215792 144.769807 
L 124.809161 144.844893 
L 124.40253 145.048115 
L 123.995898 145.027047 
L 123.589267 145.170044 
L 123.182635 145.19518 
L 122.776004 145.195336 
L 122.369372 145.265176 
L 121.962741 145.294788 
L 121.556109 145.45308 
L 121.149478 145.407838 
L 120.742847 145.405168 
L 120.336215 145.566136 
L 119.929584 145.672263 
L 119.522952 145.709077 
L 119.116321 145.832551 
L 118.709689 145.900375 
L 118.303058 146.014158 
L 117.896426 146.041741 
L 117.489795 146.103944 
L 117.083164 146.139872 
L 116.676532 146.191563 
L 116.269901 146.200323 
L 115.863269 146.325844 
L 115.456638 146.380766 
L 115.050006 146.409652 
L 114.643375 146.475039 
L 114.236743 146.562266 
L 113.830112 146.566013 
L 113.423481 146.699 
L 113.016849 146.735648 
L 112.610218 146.822245 
L 112.203586 146.897565 
L 111.796955 146.969151 
L 111.390323 147.051752 
L 110.983692 147.128861 
L 110.57706 147.197189 
L 110.170429 147.158513 
L 109.763798 147.185721 
L 109.357166 147.241645 
L 108.950535 147.289639 
L 108.543903 147.378841 
L 108.137272 147.546123 
L 107.73064 147.607319 
L 107.324009 147.691656 
L 106.917377 147.77515 
L 106.510746 147.815667 
L 106.104115 147.898502 
L 105.697483 147.902699 
L 105.290852 147.913335 
L 104.88422 147.981818 
L 104.477589 148.109652 
L 104.070957 148.215614 
L 103.664326 148.292864 
L 103.257694 148.401655 
L 102.851063 148.482818 
L 102.444432 148.488939 
L 102.0378 148.574199 
L 101.631169 148.505262 
L 101.224537 148.547568 
L 100.817906 148.636242 
L 100.411274 148.728186 
L 100.004643 148.739535 
L 99.598011 148.850163 
L 99.19138 148.914117 
L 98.784749 148.908099 
L 98.378117 148.936978 
L 97.971486 148.903025 
L 97.564854 148.983876 
L 97.158223 149.07928 
L 96.751591 149.160091 
L 96.34496 149.176852 
L 95.938328 149.267534 
L 95.531697 149.307268 
L 95.125066 149.362545 
L 94.718434 149.461812 
L 94.311803 149.532261 
L 93.905171 149.59874 
L 93.49854 149.649403 
L 93.091908 149.770209 
L 92.685277 149.785055 
L 92.278645 149.870841 
L 91.872014 149.992467 
L 91.465383 150.060145 
L 91.058751 150.117459 
L 90.65212 150.227692 
L 90.245488 150.236059 
L 89.838857 150.274404 
L 89.432225 150.369828 
L 89.025594 150.499611 
L 88.618962 150.531874 
L 88.212331 150.556663 
L 87.8057 150.634791 
L 87.399068 150.711924 
L 86.992437 150.822194 
L 86.585805 150.903894 
L 86.179174 150.980947 
L 85.772542 151.0748 
L 85.365911 151.153523 
L 84.959279 151.145819 
L 84.552648 151.132165 
L 84.146017 151.150778 
L 83.739385 151.213606 
L 83.332754 151.253884 
L 82.926122 151.377318 
L 82.519491 151.371596 
L 82.112859 151.418369 
L 81.706228 151.48269 
L 81.299596 151.566822 
L 80.892965 151.644991 
L 80.486334 151.721202 
L 80.079702 151.835495 
L 79.673071 151.916486 
L 79.266439 151.986583 
L 78.859808 152.06438 
L 78.453176 152.08271 
L 78.046545 152.076804 
L 77.639913 152.12853 
L 77.233282 152.175308 
L 76.826651 152.309563 
L 76.420019 152.353493 
L 76.013388 152.399205 
L 75.606756 152.465446 
L 75.200125 152.522997 
L 74.793493 152.576371 
L 74.386862 152.606616 
L 73.98023 152.600918 
L 73.573599 152.616767 
L 73.166968 152.666655 
L 72.760336 152.692089 
L 72.353705 152.733557 
L 71.947073 152.746464 
L 71.540442 152.816147 
L 71.13381 152.865134 
L 70.727179 152.849447 
L 70.320547 152.877707 
L 69.913916 152.885715 
L 69.507285 152.969068 
L 69.100653 152.965852 
L 68.694022 153.032518 
L 68.28739 153.099969 
L 67.880759 153.127614 
L 67.474127 153.180136 
L 67.067496 153.239649 
L 66.660864 153.306479 
L 66.254233 153.359007 
L 65.847602 153.390997 
L 65.44097 153.42516 
L 65.034339 153.424006 
L 64.627707 153.433191 
L 64.221076 153.450503 
L 63.814444 153.53066 
L 63.407813 153.593472 
L 63.001181 153.616484 
L 62.59455 153.6273 
L 62.187919 153.653166 
L 61.781287 153.685151 
L 61.374656 153.751094 
L 60.968024 153.745564 
L 60.561393 153.845608 
L 60.154761 153.874278 
L 59.74813 153.915479 
L 59.341498 153.925226 
L 58.934867 153.941678 
L 58.528236 153.98787 
L 58.121604 154.025874 
L 57.714973 154.043034 
L 57.308341 154.051219 
L 56.90171 154.093858 
L 56.495078 154.130531 
L 56.088447 154.175294 
L 55.681815 154.191801 
L 55.275184 154.215128 
L 54.868553 154.272485 
L 54.461921 154.281895 
L 54.05529 154.288223 
L 53.648658 154.355007 
L 53.242027 154.432797 
L 52.835395 154.493594 
L 52.428764 154.498074 
L 52.022132 154.540987 
L 51.615501 154.624072 
L 51.20887 154.683991 
L 50.802238 154.734779 
L 50.395607 154.743606 
L 49.988975 154.781179 
L 49.582344 154.834687 
L 49.175712 154.907557 
L 48.769081 154.908396 
L 48.362449 154.937268 
L 47.955818 154.992281 
L 47.549187 155.036864 
L 47.142555 155.085384 
L 46.735924 155.177775 
L 46.329292 155.199581 
L 45.922661 155.241269 
L 45.516029 155.320657 
L 45.109398 155.369958 
L 44.702766 155.446733 
L 44.296135 155.560793 
L 43.889504 155.646857 
L 43.482872 155.74196 
L 43.076241 155.784224 
L 42.669609 155.865926 
L 42.262978 155.933266 
L 41.856346 156.043598 
L 41.449715 156.094444 
L 41.043083 156.175624 
L 40.636452 156.231785 
L 40.229821 156.304171 
L 39.823189 156.379763 
L 39.416558 156.474531 
L 39.009926 156.569983 
L 38.603295 156.702174 
L 38.196663 156.798794 
L 37.790032 156.920899 
L 37.3834 157.012873 
L 36.976769 157.15764 
L 36.570138 157.282369 
L 36.163506 157.428925 
L 35.756875 157.593915 
L 35.350243 157.735476 
L 34.943612 157.913754 
L 34.53698 158.085711 
L 34.130349 158.240845 
L 33.723717 158.381611 
L 33.317086 158.369402 
L 32.910455 158.76 
z
" clip-path="url(#p1725fd8933)" style="fill: #46327e; fill-opacity: 0.2"/>
   </g>
   <g id="PolyCollection_2">
    <path d="M 32.910455 158.76 
L 32.910455 158.76 
L 33.317086 156.958785 
L 33.723717 154.400555 
L 34.130349 151.809303 
L 34.53698 149.265263 
L 34.943612 146.997447 
L 35.350243 144.396044 
L 35.756875 141.852687 
L 36.163506 139.624533 
L 36.570138 137.118057 
L 36.976769 135.051648 
L 37.3834 133.005415 
L 37.790032 130.901385 
L 38.196663 128.996258 
L 38.603295 127.093945 
L 39.009926 124.85696 
L 39.416558 122.997216 
L 39.823189 121.311088 
L 40.229821 119.748965 
L 40.636452 118.054076 
L 41.043083 116.48246 
L 41.449715 115.225109 
L 41.856346 114.019892 
L 42.262978 113.03714 
L 42.669609 111.668212 
L 43.076241 111.270823 
L 43.482872 110.529716 
L 43.889504 109.734705 
L 44.296135 108.653759 
L 44.702766 108.335831 
L 45.109398 107.809135 
L 45.516029 106.63378 
L 45.922661 106.003899 
L 46.329292 105.297344 
L 46.735924 104.371196 
L 47.142555 103.08955 
L 47.549187 102.092523 
L 47.955818 101.800234 
L 48.362449 101.354644 
L 48.769081 101.790984 
L 49.175712 101.086736 
L 49.582344 101.122222 
L 49.988975 100.869348 
L 50.395607 100.799951 
L 50.802238 100.184397 
L 51.20887 99.528546 
L 51.615501 99.134395 
L 52.022132 98.287178 
L 52.428764 97.365613 
L 52.835395 97.128808 
L 53.242027 96.693097 
L 53.648658 95.322838 
L 54.05529 96.170886 
L 54.461921 95.889282 
L 54.868553 95.754124 
L 55.275184 95.848921 
L 55.681815 95.463222 
L 56.088447 94.598879 
L 56.495078 94.662429 
L 56.90171 93.871811 
L 57.308341 93.90145 
L 57.714973 94.221766 
L 58.121604 94.191772 
L 58.528236 94.079805 
L 58.934867 94.160962 
L 59.341498 94.348358 
L 59.74813 93.601244 
L 60.154761 93.436737 
L 60.561393 93.464655 
L 60.968024 93.604445 
L 61.374656 92.737258 
L 61.781287 92.889274 
L 62.187919 92.615343 
L 62.59455 92.708698 
L 63.001181 92.073852 
L 63.407813 92.099707 
L 63.814444 91.933754 
L 64.221076 93.10334 
L 64.627707 94.096016 
L 65.034339 94.110799 
L 65.44097 94.198083 
L 65.847602 94.131357 
L 66.254233 93.576683 
L 66.660864 94.125202 
L 67.067496 94.151689 
L 67.474127 95.007608 
L 67.880759 93.464713 
L 68.28739 93.278551 
L 68.694022 92.740575 
L 69.100653 93.026309 
L 69.507285 93.528636 
L 69.913916 93.68686 
L 70.320547 93.27727 
L 70.727179 92.457021 
L 71.13381 92.910893 
L 71.540442 92.930681 
L 71.947073 93.091384 
L 72.353705 92.851023 
L 72.760336 92.233103 
L 73.166968 92.15705 
L 73.573599 92.333008 
L 73.98023 93.764219 
L 74.386862 93.428677 
L 74.793493 93.988873 
L 75.200125 93.578323 
L 75.606756 93.312181 
L 76.013388 93.032238 
L 76.420019 92.445043 
L 76.826651 92.800439 
L 77.233282 91.413912 
L 77.639913 92.181707 
L 78.046545 92.179322 
L 78.453176 91.600018 
L 78.859808 90.923867 
L 79.266439 89.71303 
L 79.673071 89.131676 
L 80.079702 88.588538 
L 80.486334 89.814974 
L 80.892965 89.33529 
L 81.299596 88.529129 
L 81.706228 87.772921 
L 82.112859 88.307135 
L 82.519491 88.576124 
L 82.926122 89.659956 
L 83.332754 89.772925 
L 83.739385 89.227361 
L 84.146017 90.305982 
L 84.552648 91.62885 
L 84.959279 91.410489 
L 85.365911 92.26853 
L 85.772542 92.073456 
L 86.179174 91.881552 
L 86.585805 90.407468 
L 86.992437 90.322271 
L 87.399068 90.523002 
L 87.8057 90.29343 
L 88.212331 89.191061 
L 88.618962 88.537991 
L 89.025594 89.354323 
L 89.432225 89.49781 
L 89.838857 88.989414 
L 90.245488 89.175628 
L 90.65212 88.793851 
L 91.058751 88.813788 
L 91.465383 88.508282 
L 91.872014 89.48201 
L 92.278645 90.078492 
L 92.685277 90.040423 
L 93.091908 89.951777 
L 93.49854 88.957557 
L 93.905171 89.278717 
L 94.311803 89.508105 
L 94.718434 88.714981 
L 95.125066 89.204311 
L 95.531697 89.330984 
L 95.938328 89.139137 
L 96.34496 89.719079 
L 96.751591 89.190389 
L 97.158223 89.286346 
L 97.564854 89.256891 
L 97.971486 89.911878 
L 98.378117 90.032107 
L 98.784749 90.714175 
L 99.19138 91.038996 
L 99.598011 91.671346 
L 100.004643 91.562667 
L 100.411274 91.387279 
L 100.817906 91.985579 
L 101.224537 91.942327 
L 101.631169 92.087759 
L 102.0378 92.863941 
L 102.444432 91.674004 
L 102.851063 92.547946 
L 103.257694 92.949065 
L 103.664326 93.423422 
L 104.070957 93.00217 
L 104.477589 92.856664 
L 104.88422 92.679927 
L 105.290852 91.680909 
L 105.697483 91.157913 
L 106.104115 91.355279 
L 106.510746 92.276661 
L 106.917377 91.824974 
L 107.324009 92.156487 
L 107.73064 92.699125 
L 108.137272 91.831037 
L 108.543903 92.824859 
L 108.950535 91.088579 
L 109.357166 90.704505 
L 109.763798 91.163798 
L 110.170429 91.800716 
L 110.57706 92.019989 
L 110.983692 90.940209 
L 111.390323 90.284171 
L 111.796955 89.764841 
L 112.203586 88.912047 
L 112.610218 89.013039 
L 113.016849 88.658305 
L 113.423481 89.904723 
L 113.830112 89.581776 
L 114.236743 90.154542 
L 114.643375 89.45768 
L 115.050006 90.399345 
L 115.456638 91.429624 
L 115.863269 91.773463 
L 116.269901 92.043316 
L 116.676532 91.012312 
L 117.083164 91.527213 
L 117.489795 92.096267 
L 117.896426 92.36753 
L 118.303058 91.495911 
L 118.709689 90.797444 
L 119.116321 90.214412 
L 119.522952 90.727534 
L 119.929584 90.427448 
L 120.336215 90.57581 
L 120.742847 90.937625 
L 121.149478 91.528673 
L 121.556109 91.554165 
L 121.962741 90.8016 
L 122.369372 90.461029 
L 122.776004 91.521602 
L 123.182635 91.638449 
L 123.589267 91.71415 
L 123.995898 91.197215 
L 124.40253 91.026191 
L 124.809161 90.895948 
L 125.215792 90.411626 
L 125.622424 90.394629 
L 126.029055 90.893081 
L 126.435687 90.609495 
L 126.842318 90.269823 
L 127.24895 89.559219 
L 127.655581 90.509715 
L 128.062213 90.171212 
L 128.468844 90.350427 
L 128.875475 90.486743 
L 129.282107 91.047379 
L 129.688738 90.955179 
L 130.09537 91.070698 
L 130.502001 91.760208 
L 130.908633 91.424412 
L 131.315264 91.219758 
L 131.721896 92.125216 
L 132.128527 92.242481 
L 132.535158 91.745099 
L 132.94179 91.452516 
L 133.348421 91.266627 
L 133.755053 91.352629 
L 134.161684 91.894862 
L 134.568316 92.42386 
L 134.974947 92.369492 
L 135.381579 92.716659 
L 135.78821 92.90627 
L 136.194842 93.181087 
L 136.601473 92.724718 
L 137.008104 92.897315 
L 137.414736 93.722334 
L 137.821367 94.425138 
L 138.227999 94.970237 
L 138.63463 95.183379 
L 139.041262 95.772293 
L 139.447893 95.389499 
L 139.854525 95.319904 
L 140.261156 95.153595 
L 140.667787 95.13611 
L 141.074419 94.939224 
L 141.48105 94.963939 
L 141.887682 95.970283 
L 142.294313 96.527057 
L 142.700945 96.978632 
L 143.107576 96.706074 
L 143.514208 95.885853 
L 143.920839 96.68655 
L 144.32747 97.519028 
L 144.734102 97.006099 
L 145.140733 96.579466 
L 145.547365 96.980946 
L 145.953996 97.038579 
L 146.360628 96.538906 
L 146.767259 96.315155 
L 147.173891 95.767571 
L 147.580522 95.190004 
L 147.987153 94.380784 
L 148.393785 93.330297 
L 148.800416 93.166226 
L 149.207048 91.394448 
L 149.613679 92.059932 
L 150.020311 91.878771 
L 150.426942 91.890404 
L 150.833574 92.383516 
L 151.240205 91.611419 
L 151.646836 91.405462 
L 152.053468 92.349653 
L 152.460099 93.94222 
L 152.866731 95.209521 
L 153.273362 95.724721 
L 153.679994 94.545905 
L 154.086625 94.296661 
L 154.493257 94.008736 
L 154.899888 93.974545 
L 155.306519 93.348358 
L 155.713151 93.674894 
L 156.119782 93.635826 
L 156.526414 93.916285 
L 156.933045 93.311691 
L 157.339677 93.022033 
L 157.746308 93.600443 
L 158.15294 94.227188 
L 158.559571 94.599894 
L 158.966202 94.715234 
L 159.372834 95.425463 
L 159.779465 94.238398 
L 160.186097 94.711574 
L 160.592728 94.903001 
L 160.99936 95.861925 
L 161.405991 95.207338 
L 161.812623 95.370406 
L 162.219254 95.973724 
L 162.625885 95.500178 
L 163.032517 95.848547 
L 163.439148 96.492424 
L 163.84578 96.858128 
L 164.252411 96.711209 
L 164.659043 96.127756 
L 165.065674 96.363044 
L 165.472306 96.033947 
L 165.878937 96.578748 
L 166.285568 96.873196 
L 166.6922 95.650623 
L 167.098831 95.536314 
L 167.505463 95.241035 
L 167.912094 94.880597 
L 168.318726 95.751426 
L 168.725357 95.510173 
L 169.131989 95.002583 
L 169.53862 94.42276 
L 169.945251 94.33781 
L 170.351883 94.41814 
L 170.758514 93.8078 
L 171.165146 93.582158 
L 171.571777 93.469338 
L 171.978409 93.213059 
L 172.38504 94.163727 
L 172.791672 93.541561 
L 173.198303 92.775656 
L 173.604934 92.482103 
L 174.011566 91.887779 
L 174.418197 92.546739 
L 174.824829 92.56309 
L 175.23146 92.878236 
L 175.638092 92.337293 
L 176.044723 91.941267 
L 176.451355 91.550021 
L 176.857986 89.918293 
L 177.264617 89.597878 
L 177.671249 88.300175 
L 178.07788 88.366569 
L 178.484512 87.767808 
L 178.891143 88.00973 
L 179.297775 88.6692 
L 179.704406 89.2189 
L 180.111038 89.232158 
L 180.517669 89.507667 
L 180.9243 89.638399 
L 181.330932 88.895076 
L 181.737563 88.88931 
L 182.144195 88.515123 
L 182.550826 88.296555 
L 182.957458 88.202463 
L 183.364089 88.500647 
L 183.770721 87.990376 
L 184.177352 88.007225 
L 184.583983 88.066747 
L 184.990615 89.10792 
L 185.397246 89.767716 
L 185.803878 90.467985 
L 186.210509 90.304123 
L 186.617141 90.839317 
L 187.023772 91.086577 
L 187.430404 91.081744 
L 187.837035 90.194467 
L 188.243666 91.144882 
L 188.650298 91.016767 
L 189.056929 91.68484 
L 189.463561 91.692207 
L 189.870192 92.768164 
L 190.276824 92.091774 
L 190.683455 91.368314 
L 191.090087 91.526246 
L 191.496718 91.639162 
L 191.903349 91.95148 
L 192.309981 90.914708 
L 192.716612 91.235446 
L 193.123244 91.326782 
L 193.529875 91.043401 
L 193.936507 90.990204 
L 194.343138 91.015297 
L 194.74977 91.226433 
L 195.156401 90.865746 
L 195.563032 91.172761 
L 195.969664 91.260829 
L 196.376295 91.668402 
L 196.782927 91.539288 
L 197.189558 91.182348 
L 197.59619 91.614066 
L 198.002821 90.725808 
L 198.409453 91.320088 
L 198.816084 92.085615 
L 199.222715 92.035479 
L 199.629347 92.527942 
L 200.035978 91.677749 
L 200.44261 91.380911 
L 200.849241 91.711139 
L 201.255873 91.360142 
L 201.662504 91.159238 
L 202.069136 90.532067 
L 202.475767 90.29894 
L 202.882398 89.93625 
L 203.28903 89.649101 
L 203.695661 89.182645 
L 204.102293 89.514268 
L 204.508924 89.397016 
L 204.915556 90.22326 
L 205.322187 90.036223 
L 205.728819 89.985618 
L 206.13545 90.677619 
L 206.542081 91.015445 
L 206.948713 91.637868 
L 207.355344 90.862089 
L 207.761976 90.161048 
L 208.168607 90.404892 
L 208.575239 89.906136 
L 208.98187 91.732775 
L 209.388502 92.115934 
L 209.795133 92.446845 
L 210.201764 91.78581 
L 210.608396 91.871744 
L 211.015027 92.863947 
L 211.421659 92.532689 
L 211.82829 92.886095 
L 212.234922 92.673689 
L 212.641553 93.065473 
L 213.048185 93.217379 
L 213.454816 92.742221 
L 213.861447 92.854256 
L 214.268079 92.374075 
L 214.67471 92.050736 
L 215.081342 91.76148 
L 215.487973 92.372576 
L 215.894605 92.241391 
L 216.301236 92.608027 
L 216.707868 92.97147 
L 217.114499 92.775308 
L 217.52113 92.346211 
L 217.927762 91.981199 
L 218.334393 92.078651 
L 218.741025 91.626493 
L 219.147656 91.145351 
L 219.554288 91.743176 
L 219.960919 91.262487 
L 220.367551 91.05075 
L 220.774182 90.860141 
L 221.180813 91.127652 
L 221.587445 91.010588 
L 221.994076 91.382825 
L 222.400708 91.109219 
L 222.807339 90.914497 
L 223.213971 92.323509 
L 223.620602 92.079917 
L 224.027234 91.570166 
L 224.433865 91.645473 
L 224.840496 92.463727 
L 225.247128 92.43204 
L 225.653759 92.154167 
L 226.060391 92.636046 
L 226.467022 92.514637 
L 226.873654 93.326872 
L 227.280285 93.307542 
L 227.686917 92.830455 
L 228.093548 92.470499 
L 228.500179 92.680162 
L 228.906811 93.291018 
L 229.313442 92.846899 
L 229.720074 93.224233 
L 230.126705 94.107384 
L 230.533337 94.969446 
L 230.939968 94.220108 
L 231.3466 93.666045 
L 231.753231 94.105349 
L 232.159862 93.696145 
L 232.566494 94.017389 
L 232.973125 93.747265 
L 233.379757 93.626596 
L 233.786388 93.464241 
L 234.19302 93.883489 
L 234.599651 94.009322 
L 235.006283 94.433142 
L 235.412914 95.4118 
L 235.819545 95.02827 
L 235.819545 14.994601 
L 235.819545 14.994601 
L 235.412914 15.556124 
L 235.006283 15.671341 
L 234.599651 15.590743 
L 234.19302 14.481344 
L 233.786388 13.925505 
L 233.379757 13.680619 
L 232.973125 14.275971 
L 232.566494 14.012388 
L 232.159862 14.553725 
L 231.753231 14.518058 
L 231.3466 14.643583 
L 230.939968 14.068754 
L 230.533337 14.050725 
L 230.126705 14.162302 
L 229.720074 13.97309 
L 229.313442 14.433743 
L 228.906811 15.463662 
L 228.500179 15.882796 
L 228.093548 15.793841 
L 227.686917 14.986157 
L 227.280285 15.385805 
L 226.873654 15.842665 
L 226.467022 15.913877 
L 226.060391 16.654054 
L 225.653759 16.575462 
L 225.247128 16.582803 
L 224.840496 15.507475 
L 224.433865 15.689053 
L 224.027234 16.293924 
L 223.620602 15.881854 
L 223.213971 16.574848 
L 222.807339 16.884422 
L 222.400708 17.457109 
L 221.994076 17.383211 
L 221.587445 18.626791 
L 221.180813 17.83381 
L 220.774182 17.545705 
L 220.367551 17.834478 
L 219.960919 17.030876 
L 219.554288 16.585582 
L 219.147656 16.665086 
L 218.741025 17.124937 
L 218.334393 17.102702 
L 217.927762 17.411095 
L 217.52113 16.132107 
L 217.114499 16.677239 
L 216.707868 16.695053 
L 216.301236 16.373584 
L 215.894605 16.529123 
L 215.487973 15.950701 
L 215.081342 14.932939 
L 214.67471 15.52774 
L 214.268079 14.68473 
L 213.861447 16.081003 
L 213.454816 15.26368 
L 213.048185 14.753546 
L 212.641553 14.80843 
L 212.234922 15.546355 
L 211.82829 15.580599 
L 211.421659 13.786028 
L 211.015027 14.899328 
L 210.608396 14.691904 
L 210.201764 15.181304 
L 209.795133 15.582608 
L 209.388502 15.357487 
L 208.98187 16.439589 
L 208.575239 16.590602 
L 208.168607 16.124226 
L 207.761976 15.621981 
L 207.355344 15.195939 
L 206.948713 14.604731 
L 206.542081 15.091375 
L 206.13545 15.061912 
L 205.728819 14.530231 
L 205.322187 14.164902 
L 204.915556 13.425249 
L 204.508924 13.686549 
L 204.102293 13.58422 
L 203.695661 13.215373 
L 203.28903 13.724737 
L 202.882398 13.50055 
L 202.475767 12.850665 
L 202.069136 13.311478 
L 201.662504 14.455497 
L 201.255873 14.586972 
L 200.849241 13.765704 
L 200.44261 14.248897 
L 200.035978 13.586038 
L 199.629347 13.648373 
L 199.222715 13.908476 
L 198.816084 14.689386 
L 198.409453 15.061001 
L 198.002821 15.256613 
L 197.59619 14.415554 
L 197.189558 13.684309 
L 196.782927 12.964667 
L 196.376295 13.953713 
L 195.969664 13.355772 
L 195.563032 13.41238 
L 195.156401 12.887931 
L 194.74977 12.433337 
L 194.343138 12.036036 
L 193.936507 12.80763 
L 193.529875 12.47536 
L 193.123244 11.986945 
L 192.716612 11.33411 
L 192.309981 12.16841 
L 191.903349 12.350586 
L 191.496718 12.208994 
L 191.090087 12.500375 
L 190.683455 12.650132 
L 190.276824 12.700259 
L 189.870192 13.403592 
L 189.463561 14.04463 
L 189.056929 14.018252 
L 188.650298 14.468193 
L 188.243666 15.385062 
L 187.837035 15.81149 
L 187.430404 14.864791 
L 187.023772 15.051404 
L 186.617141 15.773556 
L 186.210509 16.685651 
L 185.803878 16.431095 
L 185.397246 16.786737 
L 184.990615 17.172612 
L 184.583983 16.921722 
L 184.177352 17.008743 
L 183.770721 16.291297 
L 183.364089 16.567589 
L 182.957458 15.224351 
L 182.550826 15.411429 
L 182.144195 16.055743 
L 181.737563 16.078189 
L 181.330932 15.222791 
L 180.9243 16.594984 
L 180.517669 15.874837 
L 180.111038 16.150554 
L 179.704406 16.90763 
L 179.297775 16.276822 
L 178.891143 16.10549 
L 178.484512 17.079689 
L 178.07788 16.975457 
L 177.671249 16.880782 
L 177.264617 16.232633 
L 176.857986 16.39155 
L 176.451355 15.951209 
L 176.044723 16.600464 
L 175.638092 16.822626 
L 175.23146 17.539529 
L 174.824829 17.513185 
L 174.418197 17.892114 
L 174.011566 17.795735 
L 173.604934 17.938171 
L 173.198303 18.36508 
L 172.791672 18.428165 
L 172.38504 18.019637 
L 171.978409 18.579111 
L 171.571777 18.217328 
L 171.165146 17.944168 
L 170.758514 17.5767 
L 170.351883 17.767007 
L 169.945251 17.227746 
L 169.53862 18.069204 
L 169.131989 18.090728 
L 168.725357 18.10283 
L 168.318726 18.385118 
L 167.912094 19.300685 
L 167.505463 20.02306 
L 167.098831 19.703893 
L 166.6922 19.235543 
L 166.285568 19.761447 
L 165.878937 19.381697 
L 165.472306 20.195001 
L 165.065674 20.668757 
L 164.659043 20.471926 
L 164.252411 19.371271 
L 163.84578 20.430771 
L 163.439148 20.570213 
L 163.032517 19.409741 
L 162.625885 19.644037 
L 162.219254 19.978703 
L 161.812623 20.34275 
L 161.405991 20.589027 
L 160.99936 21.357787 
L 160.592728 20.379468 
L 160.186097 20.358081 
L 159.779465 20.038864 
L 159.372834 19.83185 
L 158.966202 20.103325 
L 158.559571 19.809243 
L 158.15294 18.958548 
L 157.746308 19.590177 
L 157.339677 21.547121 
L 156.933045 20.917091 
L 156.526414 19.465496 
L 156.119782 19.309754 
L 155.713151 20.029416 
L 155.306519 20.375907 
L 154.899888 20.319647 
L 154.493257 19.44866 
L 154.086625 18.498846 
L 153.679994 19.165367 
L 153.273362 19.820064 
L 152.866731 19.175117 
L 152.460099 17.96245 
L 152.053468 17.823247 
L 151.646836 16.810364 
L 151.240205 17.750687 
L 150.833574 18.166341 
L 150.426942 18.037505 
L 150.020311 18.150936 
L 149.613679 18.740268 
L 149.207048 18.047989 
L 148.800416 17.551228 
L 148.393785 17.328097 
L 147.987153 17.787295 
L 147.580522 17.514972 
L 147.173891 18.247119 
L 146.767259 17.705634 
L 146.360628 17.43489 
L 145.953996 17.52121 
L 145.547365 17.222942 
L 145.140733 17.553332 
L 144.734102 17.680033 
L 144.32747 17.437794 
L 143.920839 16.943871 
L 143.514208 16.618391 
L 143.107576 17.60499 
L 142.700945 18.508572 
L 142.294313 17.59159 
L 141.887682 17.182713 
L 141.48105 17.186669 
L 141.074419 18.097158 
L 140.667787 18.128634 
L 140.261156 17.469618 
L 139.854525 17.646763 
L 139.447893 17.841859 
L 139.041262 17.876818 
L 138.63463 17.596707 
L 138.227999 17.470916 
L 137.821367 16.277056 
L 137.414736 16.983502 
L 137.008104 17.052877 
L 136.601473 18.080075 
L 136.194842 17.510488 
L 135.78821 16.549591 
L 135.381579 16.41452 
L 134.974947 16.336944 
L 134.568316 16.563015 
L 134.161684 16.856941 
L 133.755053 16.482445 
L 133.348421 16.702019 
L 132.94179 16.620831 
L 132.535158 16.888933 
L 132.128527 17.365921 
L 131.721896 17.338335 
L 131.315264 17.17269 
L 130.908633 16.66455 
L 130.502001 16.881552 
L 130.09537 16.801951 
L 129.688738 17.482542 
L 129.282107 16.888682 
L 128.875475 16.342639 
L 128.468844 16.495954 
L 128.062213 17.156511 
L 127.655581 16.740015 
L 127.24895 17.009161 
L 126.842318 16.984471 
L 126.435687 16.704439 
L 126.029055 16.859575 
L 125.622424 15.939771 
L 125.215792 16.910702 
L 124.809161 16.530491 
L 124.40253 16.174869 
L 123.995898 17.751949 
L 123.589267 17.444959 
L 123.182635 18.113052 
L 122.776004 17.640297 
L 122.369372 17.423319 
L 121.962741 17.00533 
L 121.556109 17.021932 
L 121.149478 16.850444 
L 120.742847 16.952803 
L 120.336215 16.997696 
L 119.929584 16.872116 
L 119.522952 17.721509 
L 119.116321 18.183502 
L 118.709689 18.625137 
L 118.303058 18.807544 
L 117.896426 17.970835 
L 117.489795 18.200116 
L 117.083164 18.254296 
L 116.676532 17.685995 
L 116.269901 18.381823 
L 115.863269 18.127618 
L 115.456638 18.617878 
L 115.050006 18.707525 
L 114.643375 18.110203 
L 114.236743 16.814507 
L 113.830112 16.492858 
L 113.423481 16.349308 
L 113.016849 16.470557 
L 112.610218 15.284891 
L 112.203586 15.073151 
L 111.796955 15.441243 
L 111.390323 15.896896 
L 110.983692 15.525094 
L 110.57706 14.840778 
L 110.170429 13.431433 
L 109.763798 13.851951 
L 109.357166 13.497598 
L 108.950535 13.484609 
L 108.543903 12.685436 
L 108.137272 12.795918 
L 107.73064 13.489503 
L 107.324009 13.515713 
L 106.917377 13.035765 
L 106.510746 12.47597 
L 106.104115 12.644613 
L 105.697483 12.29184 
L 105.290852 12.366285 
L 104.88422 12.725261 
L 104.477589 13.181462 
L 104.070957 13.2476 
L 103.664326 13.128951 
L 103.257694 13.116195 
L 102.851063 13.475414 
L 102.444432 13.612342 
L 102.0378 13.456053 
L 101.631169 12.794519 
L 101.224537 12.707143 
L 100.817906 13.108506 
L 100.411274 12.137688 
L 100.004643 11.195458 
L 99.598011 11.720837 
L 99.19138 11.946642 
L 98.784749 11.928993 
L 98.378117 11.924279 
L 97.971486 11.165924 
L 97.564854 10.41384 
L 97.158223 10.430466 
L 96.751591 10.391078 
L 96.34496 11.483359 
L 95.938328 12.406939 
L 95.531697 13.066295 
L 95.125066 13.723017 
L 94.718434 13.607014 
L 94.311803 13.243534 
L 93.905171 13.368844 
L 93.49854 13.278919 
L 93.091908 13.296014 
L 92.685277 13.606901 
L 92.278645 13.184894 
L 91.872014 12.55228 
L 91.465383 12.43738 
L 91.058751 12.38499 
L 90.65212 12.447465 
L 90.245488 11.83134 
L 89.838857 10.736654 
L 89.432225 10.443088 
L 89.025594 10.535038 
L 88.618962 10.743909 
L 88.212331 10.723265 
L 87.8057 10.877378 
L 87.399068 11.195766 
L 86.992437 11.372075 
L 86.585805 11.403426 
L 86.179174 11.428491 
L 85.772542 10.696586 
L 85.365911 10.836109 
L 84.959279 11.204144 
L 84.552648 11.13068 
L 84.146017 10.279617 
L 83.739385 10.965473 
L 83.332754 10.445465 
L 82.926122 10.669625 
L 82.519491 10.941413 
L 82.112859 11.122912 
L 81.706228 10.829308 
L 81.299596 10.547465 
L 80.892965 9.843197 
L 80.486334 9.791941 
L 80.079702 9.727324 
L 79.673071 9.044079 
L 79.266439 9.069187 
L 78.859808 9.099287 
L 78.453176 8.48306 
L 78.046545 8.439536 
L 77.639913 8.41313 
L 77.233282 8.116875 
L 76.826651 7.993007 
L 76.420019 7.569495 
L 76.013388 7.867697 
L 75.606756 8.866035 
L 75.200125 8.805753 
L 74.793493 7.926416 
L 74.386862 7.997835 
L 73.98023 7.746761 
L 73.573599 7.56 
L 73.166968 7.98954 
L 72.760336 9.304511 
L 72.353705 9.502437 
L 71.947073 10.051627 
L 71.540442 10.390738 
L 71.13381 10.110865 
L 70.727179 10.192186 
L 70.320547 9.81477 
L 69.913916 9.7177 
L 69.507285 11.124464 
L 69.100653 11.421341 
L 68.694022 11.586778 
L 68.28739 12.68886 
L 67.880759 13.158515 
L 67.474127 13.828672 
L 67.067496 13.924293 
L 66.660864 14.504744 
L 66.254233 14.600571 
L 65.847602 14.549331 
L 65.44097 14.571218 
L 65.034339 15.764425 
L 64.627707 15.886686 
L 64.221076 15.435247 
L 63.814444 16.751962 
L 63.407813 17.711822 
L 63.001181 18.788862 
L 62.59455 19.517273 
L 62.187919 18.885608 
L 61.781287 20.019381 
L 61.374656 20.402661 
L 60.968024 21.680746 
L 60.561393 22.525816 
L 60.154761 22.012828 
L 59.74813 23.022475 
L 59.341498 24.731398 
L 58.934867 26.484748 
L 58.528236 26.517537 
L 58.121604 28.012034 
L 57.714973 29.293647 
L 57.308341 30.073075 
L 56.90171 31.299251 
L 56.495078 32.218541 
L 56.088447 33.455899 
L 55.681815 33.662354 
L 55.275184 35.276697 
L 54.868553 36.297086 
L 54.461921 37.83797 
L 54.05529 39.266448 
L 53.648658 40.351325 
L 53.242027 41.528696 
L 52.835395 42.62717 
L 52.428764 44.697698 
L 52.022132 45.921865 
L 51.615501 47.555151 
L 51.20887 49.290601 
L 50.802238 50.568652 
L 50.395607 52.486769 
L 49.988975 54.536906 
L 49.582344 56.726087 
L 49.175712 58.576373 
L 48.769081 60.374093 
L 48.362449 62.161413 
L 47.955818 63.963212 
L 47.549187 65.718862 
L 47.142555 68.00996 
L 46.735924 69.356968 
L 46.329292 71.651532 
L 45.922661 73.272789 
L 45.516029 75.480666 
L 45.109398 77.308187 
L 44.702766 79.577794 
L 44.296135 82.184114 
L 43.889504 84.232873 
L 43.482872 86.755913 
L 43.076241 89.11611 
L 42.669609 91.547826 
L 42.262978 93.973776 
L 41.856346 96.168781 
L 41.449715 98.676227 
L 41.043083 101.069208 
L 40.636452 103.589734 
L 40.229821 105.771804 
L 39.823189 108.396853 
L 39.416558 110.854632 
L 39.009926 113.404656 
L 38.603295 116.06435 
L 38.196663 118.9095 
L 37.790032 121.745337 
L 37.3834 124.524866 
L 36.976769 127.311978 
L 36.570138 130.301507 
L 36.163506 132.919468 
L 35.756875 136.079803 
L 35.350243 139.033869 
L 34.943612 142.167225 
L 34.53698 145.062943 
L 34.130349 148.249521 
L 33.723717 151.47139 
L 33.317086 154.776867 
L 32.910455 158.76 
z
" clip-path="url(#p1725fd8933)" style="fill: #365c8d; fill-opacity: 0.2"/>
   </g>
   <g id="line2d_12">
    <path d="M 32.910455 158.76 
L 33.317086 158.499762 
L 34.53698 158.260496 
L 38.196663 157.277182 
L 40.636452 156.8432 
L 42.669609 156.639909 
L 48.362449 156.008386 
L 49.988975 155.96331 
L 50.802238 155.825193 
L 57.714973 155.408229 
L 60.154761 155.280503 
L 61.781287 155.172118 
L 62.59455 155.132342 
L 63.407813 155.080959 
L 64.627707 154.990351 
L 66.254233 154.847123 
L 67.474127 154.76782 
L 68.28739 154.718883 
L 70.727179 154.485461 
L 73.166968 154.281438 
L 75.200125 154.204814 
L 76.420019 154.091287 
L 78.453176 154.077221 
L 84.146017 153.444989 
L 85.365911 153.314355 
L 86.585805 153.12833 
L 88.212331 152.896699 
L 89.432225 152.775512 
L 92.278645 152.434421 
L 94.311803 152.264901 
L 97.564854 152.03856 
L 98.378117 151.899153 
L 103.257694 151.36967 
L 104.88422 151.189659 
L 108.543903 150.816958 
L 109.763798 150.568971 
L 110.57706 150.547114 
L 110.983692 150.531447 
L 111.796955 150.338657 
L 112.610218 150.268237 
L 115.456638 149.984041 
L 116.269901 149.770134 
L 117.489795 149.6374 
L 119.522952 149.496578 
L 119.929584 149.373773 
L 120.336215 149.394719 
L 121.962741 149.069899 
L 124.809161 148.806876 
L 126.842318 148.445471 
L 127.24895 148.512293 
L 128.875475 148.233983 
L 133.348421 147.759332 
L 133.755053 147.673302 
L 134.974947 147.704863 
L 137.414736 147.30545 
L 137.821367 147.386603 
L 138.63463 147.274945 
L 139.447893 147.217794 
L 142.294313 146.830789 
L 144.734102 146.541625 
L 145.547365 146.529933 
L 145.953996 146.413273 
L 146.767259 146.374982 
L 147.173891 146.145983 
L 149.613679 145.852751 
L 154.086625 145.006139 
L 158.559571 144.623347 
L 159.372834 144.423355 
L 162.219254 144.078155 
L 162.625885 144.068271 
L 163.439148 143.857008 
L 177.671249 142.24426 
L 178.07788 142.080322 
L 178.484512 142.166063 
L 179.704406 141.978692 
L 180.517669 141.914795 
L 180.9243 141.884125 
L 181.330932 141.698698 
L 182.957458 141.460806 
L 183.364089 141.332619 
L 183.770721 141.418838 
L 184.583983 141.383832 
L 184.990615 141.428423 
L 187.837035 140.82451 
L 188.243666 140.846901 
L 189.056929 140.704051 
L 199.629347 139.225655 
L 200.44261 138.98814 
L 201.255873 138.663135 
L 202.475767 138.565537 
L 203.28903 138.331262 
L 206.13545 137.938876 
L 206.542081 137.786949 
L 208.168607 137.67442 
L 208.98187 137.415838 
L 210.608396 137.331015 
L 211.015027 137.107039 
L 214.67471 136.467506 
L 216.301236 136.335589 
L 217.52113 136.012658 
L 217.927762 136.026446 
L 219.554288 135.737891 
L 221.994076 135.26281 
L 222.807339 135.274633 
L 223.213971 135.19496 
L 223.620602 135.23755 
L 225.247128 134.965322 
L 225.653759 134.973384 
L 228.093548 134.450722 
L 231.3466 133.91804 
L 231.753231 133.801897 
L 232.566494 133.862261 
L 233.786388 133.772746 
L 235.006283 133.499633 
L 235.819545 133.502688 
L 235.819545 133.502688 
" clip-path="url(#p1725fd8933)" style="fill: none; stroke: #46327e; stroke-linecap: square"/>
   </g>
   <g id="line2d_13">
    <path d="M 32.910455 158.76 
L 37.3834 128.552906 
L 40.229821 111.560971 
L 42.262978 101.696343 
L 43.482872 96.825488 
L 44.702766 91.033507 
L 45.516029 87.468703 
L 45.922661 86.325548 
L 46.329292 84.784689 
L 46.735924 83.689914 
L 47.549187 80.396769 
L 47.955818 79.823913 
L 48.362449 78.657421 
L 48.769081 77.956293 
L 49.175712 76.736441 
L 49.988975 73.407887 
L 50.395607 73.257762 
L 51.20887 70.759173 
L 52.428764 68.740263 
L 52.835395 67.782345 
L 53.242027 66.348674 
L 53.648658 65.395134 
L 54.05529 66.193021 
L 54.461921 64.968917 
L 54.868553 64.917113 
L 55.275184 64.458106 
L 55.681815 64.619318 
L 56.495078 62.36988 
L 56.90171 61.918597 
L 57.714973 60.498186 
L 58.121604 59.390752 
L 59.341498 58.421608 
L 59.74813 58.415838 
L 60.154761 58.089397 
L 60.968024 58.559177 
L 61.781287 57.542591 
L 62.187919 56.918839 
L 62.59455 56.959971 
L 63.001181 57.117117 
L 63.407813 56.07785 
L 63.814444 55.855907 
L 65.034339 53.37677 
L 65.44097 53.940822 
L 66.254233 52.823382 
L 66.660864 52.128351 
L 67.474127 52.388213 
L 67.880759 51.897941 
L 68.28739 52.282307 
L 68.694022 51.70136 
L 69.100653 50.591206 
L 69.507285 50.158922 
L 69.913916 50.888892 
L 70.320547 50.628812 
L 70.727179 49.661309 
L 71.13381 49.134729 
L 71.540442 49.322421 
L 71.947073 48.48101 
L 72.760336 47.759546 
L 73.166968 47.904777 
L 73.573599 48.215574 
L 73.98023 47.540886 
L 74.386862 48.236816 
L 74.793493 47.848455 
L 75.200125 47.645932 
L 75.606756 48.197788 
L 76.420019 46.544026 
L 76.826651 47.046025 
L 77.639913 48.581755 
L 78.046545 48.404345 
L 78.453176 48.359069 
L 78.859808 48.59747 
L 79.266439 49.687187 
L 79.673071 49.924141 
L 80.079702 49.639136 
L 80.486334 48.642518 
L 80.892965 48.401405 
L 81.299596 48.806318 
L 81.706228 47.957143 
L 82.112859 47.40338 
L 82.519491 47.130853 
L 82.926122 48.525965 
L 83.739385 47.269313 
L 84.146017 47.542966 
L 84.552648 48.554517 
L 85.772542 49.987938 
L 86.179174 49.756284 
L 86.585805 49.935603 
L 87.399068 50.768328 
L 87.8057 50.236682 
L 88.212331 50.438845 
L 88.618962 50.856814 
L 89.025594 51.063175 
L 89.432225 51.448253 
L 90.65212 49.516813 
L 91.058751 49.773735 
L 91.465383 50.225752 
L 91.872014 50.908555 
L 92.278645 51.127332 
L 92.685277 52.474799 
L 93.091908 52.604535 
L 93.905171 52.05461 
L 94.311803 51.461607 
L 94.718434 51.641707 
L 95.125066 51.636273 
L 96.34496 50.613191 
L 96.751591 51.358281 
L 97.158223 51.476587 
L 97.564854 52.137061 
L 98.378117 53.959242 
L 99.19138 53.391351 
L 99.598011 53.807022 
L 100.004643 52.81995 
L 100.411274 53.157766 
L 100.817906 52.682154 
L 101.224537 53.192698 
L 101.631169 52.462978 
L 102.0378 52.032414 
L 102.444432 52.364109 
L 102.851063 51.909699 
L 103.664326 53.145476 
L 104.477589 52.006598 
L 104.88422 51.637986 
L 105.290852 52.443831 
L 105.697483 52.665313 
L 106.104115 53.136501 
L 106.510746 54.305495 
L 106.917377 53.821923 
L 107.324009 54.083129 
L 107.73064 53.787038 
L 108.137272 53.710842 
L 108.543903 53.862382 
L 108.950535 53.696863 
L 109.357166 52.76473 
L 109.763798 53.342057 
L 110.170429 53.265759 
L 110.57706 53.975895 
L 110.983692 54.237179 
L 111.390323 55.44112 
L 111.796955 55.811719 
L 112.203586 55.662962 
L 112.610218 55.102146 
L 113.423481 56.196593 
L 114.236743 54.828454 
L 114.643375 54.933672 
L 115.050006 55.769485 
L 115.456638 55.89442 
L 115.863269 55.723373 
L 116.269901 55.313668 
L 116.676532 55.254406 
L 117.083164 54.672864 
L 117.489795 54.479481 
L 117.896426 54.000092 
L 118.303058 53.169861 
L 118.709689 52.993256 
L 119.116321 53.570177 
L 119.522952 53.716362 
L 119.929584 54.116388 
L 120.742847 53.733413 
L 121.149478 54.207697 
L 121.556109 53.229749 
L 122.369372 54.468113 
L 123.182635 54.461515 
L 123.589267 55.458742 
L 123.995898 55.881629 
L 124.809161 56.504904 
L 125.215792 55.821695 
L 125.622424 56.093096 
L 126.029055 55.067144 
L 126.435687 55.50709 
L 126.842318 55.253108 
L 127.24895 54.627972 
L 127.655581 54.534678 
L 128.062213 54.985053 
L 128.468844 54.851424 
L 128.875475 54.464681 
L 129.282107 54.668955 
L 130.09537 54.7448 
L 130.502001 54.074201 
L 130.908633 53.869903 
L 131.721896 54.125246 
L 132.535158 55.087925 
L 132.94179 55.243257 
L 133.348421 54.314783 
L 133.755053 54.870258 
L 134.161684 54.321413 
L 134.568316 55.239786 
L 134.974947 54.776244 
L 135.381579 55.323925 
L 135.78821 55.057575 
L 136.194842 55.862811 
L 137.008104 55.586992 
L 137.414736 55.982187 
L 137.821367 56.694019 
L 138.63463 55.050882 
L 139.854525 56.346031 
L 140.667787 55.231311 
L 141.074419 56.163038 
L 141.887682 56.329534 
L 142.294313 56.376326 
L 142.700945 55.558112 
L 143.107576 56.044443 
L 143.514208 56.153875 
L 143.920839 55.873983 
L 144.32747 55.288462 
L 144.734102 55.183135 
L 145.140733 55.481267 
L 145.547365 55.966754 
L 146.360628 55.654573 
L 146.767259 55.845665 
L 147.173891 55.267783 
L 147.580522 55.840521 
L 147.987153 55.681507 
L 148.393785 56.432609 
L 149.207048 56.798142 
L 149.613679 57.255757 
L 150.020311 57.072373 
L 150.426942 57.259979 
L 150.833574 56.723118 
L 151.240205 56.775492 
L 151.646836 56.27451 
L 152.053468 56.538108 
L 152.460099 56.239078 
L 152.866731 56.319746 
L 153.273362 56.082479 
L 153.679994 55.992476 
L 154.086625 56.367468 
L 154.493257 56.195077 
L 154.899888 56.770543 
L 155.306519 55.983852 
L 156.119782 56.972566 
L 156.526414 56.591593 
L 156.933045 56.508946 
L 157.746308 54.874207 
L 158.15294 54.889264 
L 158.559571 55.314747 
L 158.966202 55.453723 
L 159.372834 55.065893 
L 159.779465 55.720731 
L 160.186097 55.889369 
L 160.99936 55.706642 
L 161.405991 56.677616 
L 161.812623 56.995614 
L 162.219254 57.591783 
L 162.625885 57.548252 
L 163.032517 57.716796 
L 163.84578 57.222686 
L 164.252411 56.72573 
L 165.065674 58.330244 
L 165.472306 58.226027 
L 165.878937 58.716463 
L 166.285568 58.778219 
L 166.6922 58.672822 
L 167.098831 58.831063 
L 167.505463 58.200524 
L 167.912094 58.230914 
L 168.725357 57.741393 
L 169.131989 58.18714 
L 169.53862 57.906263 
L 169.945251 58.084635 
L 170.351883 58.132803 
L 170.758514 58.45729 
L 171.165146 58.470096 
L 171.571777 58.28235 
L 171.978409 57.661272 
L 172.38504 57.541919 
L 172.791672 58.054527 
L 173.198303 57.285896 
L 173.604934 57.625003 
L 174.011566 58.193011 
L 174.418197 58.505669 
L 174.824829 58.047249 
L 175.23146 57.211006 
L 176.044723 56.85509 
L 176.451355 56.839985 
L 177.264617 56.148871 
L 177.671249 54.874316 
L 178.07788 55.141245 
L 178.891143 56.069657 
L 179.297775 55.238386 
L 179.704406 55.454052 
L 180.111038 54.957377 
L 180.517669 55.593606 
L 180.9243 56.852087 
L 181.330932 55.923081 
L 182.144195 54.879265 
L 182.550826 54.731524 
L 182.957458 55.050116 
L 183.364089 54.443486 
L 183.770721 54.685647 
L 184.177352 54.454463 
L 184.583983 54.385936 
L 184.990615 53.676325 
L 185.397246 52.682998 
L 185.803878 52.185721 
L 186.210509 52.081544 
L 187.023772 52.556093 
L 187.430404 52.065923 
L 187.837035 52.322047 
L 188.243666 52.215712 
L 189.056929 53.019713 
L 189.463561 53.922559 
L 190.276824 54.65557 
L 190.683455 53.807084 
L 191.090087 53.576635 
L 191.496718 53.745586 
L 191.903349 53.05441 
L 192.309981 52.709189 
L 192.716612 52.777606 
L 193.123244 52.05737 
L 193.529875 51.97549 
L 194.343138 50.773448 
L 194.74977 51.26587 
L 195.156401 51.091571 
L 195.563032 51.218437 
L 195.969664 51.147471 
L 196.376295 51.557912 
L 196.782927 51.680954 
L 197.189558 51.06649 
L 197.59619 52.174268 
L 198.002821 52.043047 
L 198.409453 52.288531 
L 198.816084 52.246516 
L 199.222715 51.807359 
L 199.629347 52.093709 
L 200.035978 52.622603 
L 200.44261 53.725165 
L 200.849241 54.209862 
L 201.255873 54.400017 
L 201.662504 54.441172 
L 202.069136 55.554922 
L 202.475767 55.608399 
L 202.882398 56.577449 
L 203.695661 56.135549 
L 204.102293 55.702014 
L 204.915556 54.533724 
L 205.322187 54.522559 
L 206.13545 55.394399 
L 206.542081 54.392324 
L 206.948713 54.883362 
L 207.355344 55.678246 
L 207.761976 55.486309 
L 208.168607 54.836773 
L 208.575239 53.765741 
L 208.98187 54.146394 
L 209.795133 54.018692 
L 210.201764 54.333781 
L 210.608396 54.399939 
L 211.015027 54.312766 
L 211.421659 54.010443 
L 211.82829 54.612351 
L 212.234922 54.834107 
L 213.048185 53.672017 
L 213.454816 54.725833 
L 213.861447 54.667274 
L 214.268079 55.19308 
L 214.67471 55.043885 
L 215.081342 55.77993 
L 215.487973 55.944003 
L 215.894605 56.548037 
L 216.301236 56.630371 
L 216.707868 56.431953 
L 217.114499 56.906275 
L 217.52113 56.397983 
L 217.927762 55.396416 
L 218.334393 56.306236 
L 218.741025 56.584501 
L 219.960919 55.958201 
L 220.367551 55.58718 
L 220.774182 56.007682 
L 221.587445 56.183498 
L 221.994076 56.582406 
L 222.400708 55.808764 
L 222.807339 55.714155 
L 223.213971 56.226529 
L 223.620602 55.829951 
L 224.027234 55.654448 
L 224.433865 55.746061 
L 224.840496 55.551685 
L 225.247128 55.914567 
L 226.060391 55.29972 
L 226.467022 55.292981 
L 226.873654 55.115766 
L 227.280285 55.067879 
L 227.686917 55.429643 
L 228.093548 56.071909 
L 228.500179 55.922815 
L 228.906811 57.553185 
L 229.313442 57.33372 
L 229.720074 56.002092 
L 230.126705 55.228058 
L 230.533337 55.114702 
L 230.939968 55.635559 
L 231.3466 55.659279 
L 231.753231 55.890706 
L 232.159862 55.597789 
L 232.566494 55.094961 
L 232.973125 54.241135 
L 233.379757 54.740632 
L 233.786388 54.410087 
L 234.19302 54.426051 
L 235.006283 54.275481 
L 235.412914 54.290312 
L 235.819545 54.022124 
L 235.819545 54.022124 
" clip-path="url(#p1725fd8933)" style="fill: none; stroke: #365c8d; stroke-linecap: square"/>
   </g>
   <g id="patch_3">
    <path d="M 22.765 166.32 
L 22.765 -0 
" style="fill: none; stroke: #000000; stroke-width: 0.8; stroke-linejoin: miter; stroke-linecap: square"/>
   </g>
   <g id="patch_4">
    <path d="M 22.765 166.32 
L 245.965 166.32 
" style="fill: none; stroke: #000000; stroke-width: 0.8; stroke-linejoin: miter; stroke-linecap: square"/>
   </g>
   <g id="legend_1">
    <g id="line2d_14">
     <path d="M 29.965 10.12625 
L 37.965 10.12625 
L 45.965 10.12625 
" style="fill: none; stroke: #46327e; stroke-linecap: square"/>
    </g>
    <g id="text_14">
     <!-- Decoding Error -->
     <g transform="translate(52.365 12.92625) scale(0.08 -0.08)">
      <defs>
       <path id="ArialMT-67" d="M 319 -275 
L 866 -356 
Q 900 -609 1056 -725 
Q 1266 -881 1628 -881 
Q 2019 -881 2231 -725 
Q 2444 -569 2519 -288 
Q 2563 -116 2559 434 
Q 2191 0 1641 0 
Q 956 0 581 494 
Q 206 988 206 1678 
Q 206 2153 378 2554 
Q 550 2956 876 3175 
Q 1203 3394 1644 3394 
Q 2231 3394 2613 2919 
L 2613 3319 
L 3131 3319 
L 3131 450 
Q 3131 -325 2973 -648 
Q 2816 -972 2473 -1159 
Q 2131 -1347 1631 -1347 
Q 1038 -1347 672 -1080 
Q 306 -813 319 -275 
z
M 784 1719 
Q 784 1066 1043 766 
Q 1303 466 1694 466 
Q 2081 466 2343 764 
Q 2606 1063 2606 1700 
Q 2606 2309 2336 2618 
Q 2066 2928 1684 2928 
Q 1309 2928 1046 2623 
Q 784 2319 784 1719 
z
" transform="scale(0.015625)"/>
      </defs>
      <use xlink:href="#ArialMT-44"/>
      <use xlink:href="#ArialMT-65" x="72.216797"/>
      <use xlink:href="#ArialMT-63" x="127.832031"/>
      <use xlink:href="#ArialMT-6f" x="177.832031"/>
      <use xlink:href="#ArialMT-64" x="233.447266"/>
      <use xlink:href="#ArialMT-69" x="289.0625"/>
      <use xlink:href="#ArialMT-6e" x="311.279297"/>
      <use xlink:href="#ArialMT-67" x="366.894531"/>
      <use xlink:href="#ArialMT-20" x="422.509766"/>
      <use xlink:href="#ArialMT-45" x="450.292969"/>
      <use xlink:href="#ArialMT-72" x="516.992188"/>
      <use xlink:href="#ArialMT-72" x="550.292969"/>
      <use xlink:href="#ArialMT-6f" x="583.59375"/>
      <use xlink:href="#ArialMT-72" x="639.208984"/>
     </g>
    </g>
    <g id="line2d_15">
     <path d="M 29.965 21.53625 
L 37.965 21.53625 
L 45.965 21.53625 
" style="fill: none; stroke: #365c8d; stroke-linecap: square"/>
    </g>
    <g id="text_15">
     <!-- Baseline Error -->
     <g transform="translate(52.365 24.33625) scale(0.08 -0.08)">
      <defs>
       <path id="ArialMT-42" d="M 469 0 
L 469 4581 
L 2188 4581 
Q 2713 4581 3030 4442 
Q 3347 4303 3526 4014 
Q 3706 3725 3706 3409 
Q 3706 3116 3547 2856 
Q 3388 2597 3066 2438 
Q 3481 2316 3704 2022 
Q 3928 1728 3928 1328 
Q 3928 1006 3792 729 
Q 3656 453 3456 303 
Q 3256 153 2954 76 
Q 2653 0 2216 0 
L 469 0 
z
M 1075 2656 
L 2066 2656 
Q 2469 2656 2644 2709 
Q 2875 2778 2992 2937 
Q 3109 3097 3109 3338 
Q 3109 3566 3000 3739 
Q 2891 3913 2687 3977 
Q 2484 4041 1991 4041 
L 1075 4041 
L 1075 2656 
z
M 1075 541 
L 2216 541 
Q 2509 541 2628 563 
Q 2838 600 2978 687 
Q 3119 775 3209 942 
Q 3300 1109 3300 1328 
Q 3300 1584 3169 1773 
Q 3038 1963 2805 2039 
Q 2572 2116 2134 2116 
L 1075 2116 
L 1075 541 
z
" transform="scale(0.015625)"/>
      </defs>
      <use xlink:href="#ArialMT-42"/>
      <use xlink:href="#ArialMT-61" x="66.699219"/>
      <use xlink:href="#ArialMT-73" x="122.314453"/>
      <use xlink:href="#ArialMT-65" x="172.314453"/>
      <use xlink:href="#ArialMT-6c" x="227.929688"/>
      <use xlink:href="#ArialMT-69" x="250.146484"/>
      <use xlink:href="#ArialMT-6e" x="272.363281"/>
      <use xlink:href="#ArialMT-65" x="327.978516"/>
      <use xlink:href="#ArialMT-20" x="383.59375"/>
      <use xlink:href="#ArialMT-45" x="411.376953"/>
      <use xlink:href="#ArialMT-72" x="478.076172"/>
      <use xlink:href="#ArialMT-72" x="511.376953"/>
      <use xlink:href="#ArialMT-6f" x="544.677734"/>
      <use xlink:href="#ArialMT-72" x="600.292969"/>
     </g>
    </g>
   </g>
  </g>
 </g>
 <defs>
  <clipPath id="p1725fd8933">
   <rect x="22.765" y="-0" width="223.2" height="166.32"/>
  </clipPath>
 </defs>
</svg>
