<?xml version="1.0" encoding="utf-8" standalone="no"?>
<!DOCTYPE svg PUBLIC "-//W3C//DTD SVG 1.1//EN"
  "http://www.w3.org/Graphics/SVG/1.1/DTD/svg11.dtd">
<svg xmlns:xlink="http://www.w3.org/1999/xlink" width="145.9475pt" height="136.61pt" viewBox="0 0 145.9475 136.61" xmlns="http://www.w3.org/2000/svg" version="1.1">
 <metadata>
  <rdf:RDF xmlns:dc="http://purl.org/dc/elements/1.1/" xmlns:cc="http://creativecommons.org/ns#" xmlns:rdf="http://www.w3.org/1999/02/22-rdf-syntax-ns#">
   <cc:Work>
    <dc:type rdf:resource="http://purl.org/dc/dcmitype/StillImage"/>
    <dc:date>2024-11-27T00:19:55.223796</dc:date>
    <dc:format>image/svg+xml</dc:format>
    <dc:creator>
     <cc:Agent>
      <dc:title>Matplotlib v3.9.2, https://matplotlib.org/</dc:title>
     </cc:Agent>
    </dc:creator>
   </cc:Work>
  </rdf:RDF>
 </metadata>
 <defs>
  <style type="text/css">*{stroke-linejoin: round; stroke-linecap: butt}</style>
 </defs>
 <g id="figure_1">
  <g id="patch_1">
   <path d="M 0 136.61 
L 145.9475 136.61 
L 145.9475 0 
L 0 0 
L 0 136.61 
z
" style="fill: none"/>
  </g>
  <g id="axes_1">
   <g id="patch_2">
    <path d="M 34.3475 110.88 
L 145.9475 110.88 
L 145.9475 -0 
L 34.3475 -0 
L 34.3475 110.88 
z
" style="fill: none"/>
   </g>
   <g id="matplotlib.axis_1">
    <g id="xtick_1">
     <g id="line2d_1">
      <defs>
       <path id="mde7b5312e1" d="M 0 0 
L 0 3.5 
" style="stroke: #000000; stroke-width: 0.8"/>
      </defs>
      <g>
       <use xlink:href="#mde7b5312e1" x="39.420227" y="110.88" style="stroke: #000000; stroke-width: 0.8"/>
      </g>
     </g>
     <g id="text_1">
      <!-- 0 -->
      <g transform="translate(37.195852 123.60625) scale(0.08 -0.08)">
       <defs>
        <path id="ArialMT-30" d="M 266 2259 
Q 266 3072 433 3567 
Q 600 4063 929 4331 
Q 1259 4600 1759 4600 
Q 2128 4600 2406 4451 
Q 2684 4303 2865 4023 
Q 3047 3744 3150 3342 
Q 3253 2941 3253 2259 
Q 3253 1453 3087 958 
Q 2922 463 2592 192 
Q 2263 -78 1759 -78 
Q 1097 -78 719 397 
Q 266 969 266 2259 
z
M 844 2259 
Q 844 1131 1108 757 
Q 1372 384 1759 384 
Q 2147 384 2411 759 
Q 2675 1134 2675 2259 
Q 2675 3391 2411 3762 
Q 2147 4134 1753 4134 
Q 1366 4134 1134 3806 
Q 844 3388 844 2259 
z
" transform="scale(0.015625)"/>
       </defs>
       <use xlink:href="#ArialMT-30"/>
      </g>
     </g>
    </g>
    <g id="xtick_2">
     <g id="line2d_2">
      <g>
       <use xlink:href="#mde7b5312e1" x="80.002857" y="110.88" style="stroke: #000000; stroke-width: 0.8"/>
      </g>
     </g>
     <g id="text_2">
      <!-- 20000 -->
      <g transform="translate(68.880982 123.60625) scale(0.08 -0.08)">
       <defs>
        <path id="ArialMT-32" d="M 3222 541 
L 3222 0 
L 194 0 
Q 188 203 259 391 
Q 375 700 629 1000 
Q 884 1300 1366 1694 
Q 2113 2306 2375 2664 
Q 2638 3022 2638 3341 
Q 2638 3675 2398 3904 
Q 2159 4134 1775 4134 
Q 1369 4134 1125 3890 
Q 881 3647 878 3216 
L 300 3275 
Q 359 3922 746 4261 
Q 1134 4600 1788 4600 
Q 2447 4600 2831 4234 
Q 3216 3869 3216 3328 
Q 3216 3053 3103 2787 
Q 2991 2522 2730 2228 
Q 2469 1934 1863 1422 
Q 1356 997 1212 845 
Q 1069 694 975 541 
L 3222 541 
z
" transform="scale(0.015625)"/>
       </defs>
       <use xlink:href="#ArialMT-32"/>
       <use xlink:href="#ArialMT-30" x="55.615234"/>
       <use xlink:href="#ArialMT-30" x="111.230469"/>
       <use xlink:href="#ArialMT-30" x="166.845703"/>
       <use xlink:href="#ArialMT-30" x="222.460938"/>
      </g>
     </g>
    </g>
    <g id="xtick_3">
     <g id="line2d_3">
      <g>
       <use xlink:href="#mde7b5312e1" x="120.585487" y="110.88" style="stroke: #000000; stroke-width: 0.8"/>
      </g>
     </g>
     <g id="text_3">
      <!-- 40000 -->
      <g transform="translate(109.463612 123.60625) scale(0.08 -0.08)">
       <defs>
        <path id="ArialMT-34" d="M 2069 0 
L 2069 1097 
L 81 1097 
L 81 1613 
L 2172 4581 
L 2631 4581 
L 2631 1613 
L 3250 1613 
L 3250 1097 
L 2631 1097 
L 2631 0 
L 2069 0 
z
M 2069 1613 
L 2069 3678 
L 634 1613 
L 2069 1613 
z
" transform="scale(0.015625)"/>
       </defs>
       <use xlink:href="#ArialMT-34"/>
       <use xlink:href="#ArialMT-30" x="55.615234"/>
       <use xlink:href="#ArialMT-30" x="111.230469"/>
       <use xlink:href="#ArialMT-30" x="166.845703"/>
       <use xlink:href="#ArialMT-30" x="222.460938"/>
      </g>
     </g>
    </g>
    <g id="text_4">
     <!-- Train Step -->
     <g transform="translate(71.845625 135.02) scale(0.08 -0.08)">
      <defs>
       <path id="ArialMT-54" d="M 1659 0 
L 1659 4041 
L 150 4041 
L 150 4581 
L 3781 4581 
L 3781 4041 
L 2266 4041 
L 2266 0 
L 1659 0 
z
" transform="scale(0.015625)"/>
       <path id="ArialMT-72" d="M 416 0 
L 416 3319 
L 922 3319 
L 922 2816 
Q 1116 3169 1280 3281 
Q 1444 3394 1641 3394 
Q 1925 3394 2219 3213 
L 2025 2691 
Q 1819 2813 1613 2813 
Q 1428 2813 1281 2702 
Q 1134 2591 1072 2394 
Q 978 2094 978 1738 
L 978 0 
L 416 0 
z
" transform="scale(0.015625)"/>
       <path id="ArialMT-61" d="M 2588 409 
Q 2275 144 1986 34 
Q 1697 -75 1366 -75 
Q 819 -75 525 192 
Q 231 459 231 875 
Q 231 1119 342 1320 
Q 453 1522 633 1644 
Q 813 1766 1038 1828 
Q 1203 1872 1538 1913 
Q 2219 1994 2541 2106 
Q 2544 2222 2544 2253 
Q 2544 2597 2384 2738 
Q 2169 2928 1744 2928 
Q 1347 2928 1158 2789 
Q 969 2650 878 2297 
L 328 2372 
Q 403 2725 575 2942 
Q 747 3159 1072 3276 
Q 1397 3394 1825 3394 
Q 2250 3394 2515 3294 
Q 2781 3194 2906 3042 
Q 3031 2891 3081 2659 
Q 3109 2516 3109 2141 
L 3109 1391 
Q 3109 606 3145 398 
Q 3181 191 3288 0 
L 2700 0 
Q 2613 175 2588 409 
z
M 2541 1666 
Q 2234 1541 1622 1453 
Q 1275 1403 1131 1340 
Q 988 1278 909 1158 
Q 831 1038 831 891 
Q 831 666 1001 516 
Q 1172 366 1500 366 
Q 1825 366 2078 508 
Q 2331 650 2450 897 
Q 2541 1088 2541 1459 
L 2541 1666 
z
" transform="scale(0.015625)"/>
       <path id="ArialMT-69" d="M 425 3934 
L 425 4581 
L 988 4581 
L 988 3934 
L 425 3934 
z
M 425 0 
L 425 3319 
L 988 3319 
L 988 0 
L 425 0 
z
" transform="scale(0.015625)"/>
       <path id="ArialMT-6e" d="M 422 0 
L 422 3319 
L 928 3319 
L 928 2847 
Q 1294 3394 1984 3394 
Q 2284 3394 2536 3286 
Q 2788 3178 2913 3003 
Q 3038 2828 3088 2588 
Q 3119 2431 3119 2041 
L 3119 0 
L 2556 0 
L 2556 2019 
Q 2556 2363 2490 2533 
Q 2425 2703 2258 2804 
Q 2091 2906 1866 2906 
Q 1506 2906 1245 2678 
Q 984 2450 984 1813 
L 984 0 
L 422 0 
z
" transform="scale(0.015625)"/>
       <path id="ArialMT-20" transform="scale(0.015625)"/>
       <path id="ArialMT-53" d="M 288 1472 
L 859 1522 
Q 900 1178 1048 958 
Q 1197 738 1509 602 
Q 1822 466 2213 466 
Q 2559 466 2825 569 
Q 3091 672 3220 851 
Q 3350 1031 3350 1244 
Q 3350 1459 3225 1620 
Q 3100 1781 2813 1891 
Q 2628 1963 1997 2114 
Q 1366 2266 1113 2400 
Q 784 2572 623 2826 
Q 463 3081 463 3397 
Q 463 3744 659 4045 
Q 856 4347 1234 4503 
Q 1613 4659 2075 4659 
Q 2584 4659 2973 4495 
Q 3363 4331 3572 4012 
Q 3781 3694 3797 3291 
L 3216 3247 
Q 3169 3681 2898 3903 
Q 2628 4125 2100 4125 
Q 1550 4125 1298 3923 
Q 1047 3722 1047 3438 
Q 1047 3191 1225 3031 
Q 1400 2872 2139 2705 
Q 2878 2538 3153 2413 
Q 3553 2228 3743 1945 
Q 3934 1663 3934 1294 
Q 3934 928 3725 604 
Q 3516 281 3123 101 
Q 2731 -78 2241 -78 
Q 1619 -78 1198 103 
Q 778 284 539 648 
Q 300 1013 288 1472 
z
" transform="scale(0.015625)"/>
       <path id="ArialMT-74" d="M 1650 503 
L 1731 6 
Q 1494 -44 1306 -44 
Q 1000 -44 831 53 
Q 663 150 594 308 
Q 525 466 525 972 
L 525 2881 
L 113 2881 
L 113 3319 
L 525 3319 
L 525 4141 
L 1084 4478 
L 1084 3319 
L 1650 3319 
L 1650 2881 
L 1084 2881 
L 1084 941 
Q 1084 700 1114 631 
Q 1144 563 1211 522 
Q 1278 481 1403 481 
Q 1497 481 1650 503 
z
" transform="scale(0.015625)"/>
       <path id="ArialMT-65" d="M 2694 1069 
L 3275 997 
Q 3138 488 2766 206 
Q 2394 -75 1816 -75 
Q 1088 -75 661 373 
Q 234 822 234 1631 
Q 234 2469 665 2931 
Q 1097 3394 1784 3394 
Q 2450 3394 2872 2941 
Q 3294 2488 3294 1666 
Q 3294 1616 3291 1516 
L 816 1516 
Q 847 969 1125 678 
Q 1403 388 1819 388 
Q 2128 388 2347 550 
Q 2566 713 2694 1069 
z
M 847 1978 
L 2700 1978 
Q 2663 2397 2488 2606 
Q 2219 2931 1791 2931 
Q 1403 2931 1139 2672 
Q 875 2413 847 1978 
z
" transform="scale(0.015625)"/>
       <path id="ArialMT-70" d="M 422 -1272 
L 422 3319 
L 934 3319 
L 934 2888 
Q 1116 3141 1344 3267 
Q 1572 3394 1897 3394 
Q 2322 3394 2647 3175 
Q 2972 2956 3137 2557 
Q 3303 2159 3303 1684 
Q 3303 1175 3120 767 
Q 2938 359 2589 142 
Q 2241 -75 1856 -75 
Q 1575 -75 1351 44 
Q 1128 163 984 344 
L 984 -1272 
L 422 -1272 
z
M 931 1641 
Q 931 1000 1190 694 
Q 1450 388 1819 388 
Q 2194 388 2461 705 
Q 2728 1022 2728 1688 
Q 2728 2322 2467 2637 
Q 2206 2953 1844 2953 
Q 1484 2953 1207 2617 
Q 931 2281 931 1641 
z
" transform="scale(0.015625)"/>
      </defs>
      <use xlink:href="#ArialMT-54"/>
      <use xlink:href="#ArialMT-72" x="57.333984"/>
      <use xlink:href="#ArialMT-61" x="90.634766"/>
      <use xlink:href="#ArialMT-69" x="146.25"/>
      <use xlink:href="#ArialMT-6e" x="168.466797"/>
      <use xlink:href="#ArialMT-20" x="224.082031"/>
      <use xlink:href="#ArialMT-53" x="251.865234"/>
      <use xlink:href="#ArialMT-74" x="318.564453"/>
      <use xlink:href="#ArialMT-65" x="346.347656"/>
      <use xlink:href="#ArialMT-70" x="401.962891"/>
     </g>
    </g>
   </g>
   <g id="matplotlib.axis_2">
    <g id="ytick_1">
     <g id="line2d_4">
      <defs>
       <path id="m23a11d17e3" d="M 0 0 
L -3.5 0 
" style="stroke: #000000; stroke-width: 0.8"/>
      </defs>
      <g>
       <use xlink:href="#m23a11d17e3" x="34.3475" y="109.407635" style="stroke: #000000; stroke-width: 0.8"/>
      </g>
     </g>
     <g id="text_5">
      <!-- $\mathdefault{10^{-4}}$ -->
      <g transform="translate(11.5075 113.492635) scale(0.08 -0.08)">
       <defs>
        <path id="ArialMT-31" d="M 2384 0 
L 1822 0 
L 1822 3584 
Q 1619 3391 1289 3197 
Q 959 3003 697 2906 
L 697 3450 
Q 1169 3672 1522 3987 
Q 1875 4303 2022 4600 
L 2384 4600 
L 2384 0 
z
" transform="scale(0.015625)"/>
        <path id="ArialMT-2212" d="M 3381 1997 
L 356 1997 
L 356 2522 
L 3381 2522 
L 3381 1997 
z
" transform="scale(0.015625)"/>
       </defs>
       <use xlink:href="#ArialMT-31" transform="translate(0 0.201563)"/>
       <use xlink:href="#ArialMT-30" transform="translate(55.615234 0.201563)"/>
       <use xlink:href="#ArialMT-2212" transform="translate(112.972813 69.895313) scale(0.7)"/>
       <use xlink:href="#ArialMT-34" transform="translate(153.851719 69.895313) scale(0.7)"/>
      </g>
     </g>
    </g>
    <g id="ytick_2">
     <g id="line2d_5">
      <g>
       <use xlink:href="#m23a11d17e3" x="34.3475" y="89.139405" style="stroke: #000000; stroke-width: 0.8"/>
      </g>
     </g>
     <g id="text_6">
      <!-- $\mathdefault{10^{-3}}$ -->
      <g transform="translate(11.5075 93.264405) scale(0.08 -0.08)">
       <defs>
        <path id="ArialMT-33" d="M 269 1209 
L 831 1284 
Q 928 806 1161 595 
Q 1394 384 1728 384 
Q 2125 384 2398 659 
Q 2672 934 2672 1341 
Q 2672 1728 2419 1979 
Q 2166 2231 1775 2231 
Q 1616 2231 1378 2169 
L 1441 2663 
Q 1497 2656 1531 2656 
Q 1891 2656 2178 2843 
Q 2466 3031 2466 3422 
Q 2466 3731 2256 3934 
Q 2047 4138 1716 4138 
Q 1388 4138 1169 3931 
Q 950 3725 888 3313 
L 325 3413 
Q 428 3978 793 4289 
Q 1159 4600 1703 4600 
Q 2078 4600 2393 4439 
Q 2709 4278 2876 4000 
Q 3044 3722 3044 3409 
Q 3044 3113 2884 2869 
Q 2725 2625 2413 2481 
Q 2819 2388 3044 2092 
Q 3269 1797 3269 1353 
Q 3269 753 2831 336 
Q 2394 -81 1725 -81 
Q 1122 -81 723 278 
Q 325 638 269 1209 
z
" transform="scale(0.015625)"/>
       </defs>
       <use xlink:href="#ArialMT-31" transform="translate(0 0.99375)"/>
       <use xlink:href="#ArialMT-30" transform="translate(55.615234 0.99375)"/>
       <use xlink:href="#ArialMT-2212" transform="translate(112.972813 70.6875) scale(0.7)"/>
       <use xlink:href="#ArialMT-33" transform="translate(153.851719 70.6875) scale(0.7)"/>
      </g>
     </g>
    </g>
    <g id="ytick_3">
     <g id="line2d_6">
      <g>
       <use xlink:href="#m23a11d17e3" x="34.3475" y="68.871175" style="stroke: #000000; stroke-width: 0.8"/>
      </g>
     </g>
     <g id="text_7">
      <!-- $\mathdefault{10^{-2}}$ -->
      <g transform="translate(11.5075 72.996175) scale(0.08 -0.08)">
       <use xlink:href="#ArialMT-31" transform="translate(0 0.99375)"/>
       <use xlink:href="#ArialMT-30" transform="translate(55.615234 0.99375)"/>
       <use xlink:href="#ArialMT-2212" transform="translate(112.972813 70.6875) scale(0.7)"/>
       <use xlink:href="#ArialMT-32" transform="translate(153.851719 70.6875) scale(0.7)"/>
      </g>
     </g>
    </g>
    <g id="ytick_4">
     <g id="line2d_7">
      <g>
       <use xlink:href="#m23a11d17e3" x="34.3475" y="48.602945" style="stroke: #000000; stroke-width: 0.8"/>
      </g>
     </g>
     <g id="text_8">
      <!-- $\mathdefault{10^{-1}}$ -->
      <g transform="translate(11.5075 52.727945) scale(0.08 -0.08)">
       <use xlink:href="#ArialMT-31" transform="translate(0 0.99375)"/>
       <use xlink:href="#ArialMT-30" transform="translate(55.615234 0.99375)"/>
       <use xlink:href="#ArialMT-2212" transform="translate(112.972813 70.6875) scale(0.7)"/>
       <use xlink:href="#ArialMT-31" transform="translate(153.851719 70.6875) scale(0.7)"/>
      </g>
     </g>
    </g>
    <g id="ytick_5">
     <g id="line2d_8">
      <g>
       <use xlink:href="#m23a11d17e3" x="34.3475" y="28.334716" style="stroke: #000000; stroke-width: 0.8"/>
      </g>
     </g>
     <g id="text_9">
      <!-- $\mathdefault{10^{0}}$ -->
      <g transform="translate(14.7875 32.459716) scale(0.08 -0.08)">
       <use xlink:href="#ArialMT-31" transform="translate(0 0.99375)"/>
       <use xlink:href="#ArialMT-30" transform="translate(55.615234 0.99375)"/>
       <use xlink:href="#ArialMT-30" transform="translate(112.972813 70.6875) scale(0.7)"/>
      </g>
     </g>
    </g>
    <g id="ytick_6">
     <g id="line2d_9">
      <g>
       <use xlink:href="#m23a11d17e3" x="34.3475" y="8.066486" style="stroke: #000000; stroke-width: 0.8"/>
      </g>
     </g>
     <g id="text_10">
      <!-- $\mathdefault{10^{1}}$ -->
      <g transform="translate(14.7875 12.191486) scale(0.08 -0.08)">
       <use xlink:href="#ArialMT-31" transform="translate(0 0.99375)"/>
       <use xlink:href="#ArialMT-30" transform="translate(55.615234 0.99375)"/>
       <use xlink:href="#ArialMT-31" transform="translate(112.972813 70.6875) scale(0.7)"/>
      </g>
     </g>
    </g>
    <g id="ytick_7">
     <g id="line2d_10">
      <defs>
       <path id="m7ecf1a5c4a" d="M 0 0 
L -2 0 
" style="stroke: #000000; stroke-width: 0.6"/>
      </defs>
      <g>
       <use xlink:href="#m7ecf1a5c4a" x="34.3475" y="110.335058" style="stroke: #000000; stroke-width: 0.6"/>
      </g>
     </g>
    </g>
    <g id="ytick_8">
     <g id="line2d_11">
      <g>
       <use xlink:href="#m7ecf1a5c4a" x="34.3475" y="103.30629" style="stroke: #000000; stroke-width: 0.6"/>
      </g>
     </g>
    </g>
    <g id="ytick_9">
     <g id="line2d_12">
      <g>
       <use xlink:href="#m7ecf1a5c4a" x="34.3475" y="99.737232" style="stroke: #000000; stroke-width: 0.6"/>
      </g>
     </g>
    </g>
    <g id="ytick_10">
     <g id="line2d_13">
      <g>
       <use xlink:href="#m7ecf1a5c4a" x="34.3475" y="97.204945" style="stroke: #000000; stroke-width: 0.6"/>
      </g>
     </g>
    </g>
    <g id="ytick_11">
     <g id="line2d_14">
      <g>
       <use xlink:href="#m7ecf1a5c4a" x="34.3475" y="95.24075" style="stroke: #000000; stroke-width: 0.6"/>
      </g>
     </g>
    </g>
    <g id="ytick_12">
     <g id="line2d_15">
      <g>
       <use xlink:href="#m7ecf1a5c4a" x="34.3475" y="93.635886" style="stroke: #000000; stroke-width: 0.6"/>
      </g>
     </g>
    </g>
    <g id="ytick_13">
     <g id="line2d_16">
      <g>
       <use xlink:href="#m7ecf1a5c4a" x="34.3475" y="92.278994" style="stroke: #000000; stroke-width: 0.6"/>
      </g>
     </g>
    </g>
    <g id="ytick_14">
     <g id="line2d_17">
      <g>
       <use xlink:href="#m7ecf1a5c4a" x="34.3475" y="91.103599" style="stroke: #000000; stroke-width: 0.6"/>
      </g>
     </g>
    </g>
    <g id="ytick_15">
     <g id="line2d_18">
      <g>
       <use xlink:href="#m7ecf1a5c4a" x="34.3475" y="90.066828" style="stroke: #000000; stroke-width: 0.6"/>
      </g>
     </g>
    </g>
    <g id="ytick_16">
     <g id="line2d_19">
      <g>
       <use xlink:href="#m7ecf1a5c4a" x="34.3475" y="83.03806" style="stroke: #000000; stroke-width: 0.6"/>
      </g>
     </g>
    </g>
    <g id="ytick_17">
     <g id="line2d_20">
      <g>
       <use xlink:href="#m7ecf1a5c4a" x="34.3475" y="79.469002" style="stroke: #000000; stroke-width: 0.6"/>
      </g>
     </g>
    </g>
    <g id="ytick_18">
     <g id="line2d_21">
      <g>
       <use xlink:href="#m7ecf1a5c4a" x="34.3475" y="76.936715" style="stroke: #000000; stroke-width: 0.6"/>
      </g>
     </g>
    </g>
    <g id="ytick_19">
     <g id="line2d_22">
      <g>
       <use xlink:href="#m7ecf1a5c4a" x="34.3475" y="74.97252" style="stroke: #000000; stroke-width: 0.6"/>
      </g>
     </g>
    </g>
    <g id="ytick_20">
     <g id="line2d_23">
      <g>
       <use xlink:href="#m7ecf1a5c4a" x="34.3475" y="73.367657" style="stroke: #000000; stroke-width: 0.6"/>
      </g>
     </g>
    </g>
    <g id="ytick_21">
     <g id="line2d_24">
      <g>
       <use xlink:href="#m7ecf1a5c4a" x="34.3475" y="72.010764" style="stroke: #000000; stroke-width: 0.6"/>
      </g>
     </g>
    </g>
    <g id="ytick_22">
     <g id="line2d_25">
      <g>
       <use xlink:href="#m7ecf1a5c4a" x="34.3475" y="70.83537" style="stroke: #000000; stroke-width: 0.6"/>
      </g>
     </g>
    </g>
    <g id="ytick_23">
     <g id="line2d_26">
      <g>
       <use xlink:href="#m7ecf1a5c4a" x="34.3475" y="69.798599" style="stroke: #000000; stroke-width: 0.6"/>
      </g>
     </g>
    </g>
    <g id="ytick_24">
     <g id="line2d_27">
      <g>
       <use xlink:href="#m7ecf1a5c4a" x="34.3475" y="62.76983" style="stroke: #000000; stroke-width: 0.6"/>
      </g>
     </g>
    </g>
    <g id="ytick_25">
     <g id="line2d_28">
      <g>
       <use xlink:href="#m7ecf1a5c4a" x="34.3475" y="59.200772" style="stroke: #000000; stroke-width: 0.6"/>
      </g>
     </g>
    </g>
    <g id="ytick_26">
     <g id="line2d_29">
      <g>
       <use xlink:href="#m7ecf1a5c4a" x="34.3475" y="56.668485" style="stroke: #000000; stroke-width: 0.6"/>
      </g>
     </g>
    </g>
    <g id="ytick_27">
     <g id="line2d_30">
      <g>
       <use xlink:href="#m7ecf1a5c4a" x="34.3475" y="54.704291" style="stroke: #000000; stroke-width: 0.6"/>
      </g>
     </g>
    </g>
    <g id="ytick_28">
     <g id="line2d_31">
      <g>
       <use xlink:href="#m7ecf1a5c4a" x="34.3475" y="53.099427" style="stroke: #000000; stroke-width: 0.6"/>
      </g>
     </g>
    </g>
    <g id="ytick_29">
     <g id="line2d_32">
      <g>
       <use xlink:href="#m7ecf1a5c4a" x="34.3475" y="51.742534" style="stroke: #000000; stroke-width: 0.6"/>
      </g>
     </g>
    </g>
    <g id="ytick_30">
     <g id="line2d_33">
      <g>
       <use xlink:href="#m7ecf1a5c4a" x="34.3475" y="50.56714" style="stroke: #000000; stroke-width: 0.6"/>
      </g>
     </g>
    </g>
    <g id="ytick_31">
     <g id="line2d_34">
      <g>
       <use xlink:href="#m7ecf1a5c4a" x="34.3475" y="49.530369" style="stroke: #000000; stroke-width: 0.6"/>
      </g>
     </g>
    </g>
    <g id="ytick_32">
     <g id="line2d_35">
      <g>
       <use xlink:href="#m7ecf1a5c4a" x="34.3475" y="42.5016" style="stroke: #000000; stroke-width: 0.6"/>
      </g>
     </g>
    </g>
    <g id="ytick_33">
     <g id="line2d_36">
      <g>
       <use xlink:href="#m7ecf1a5c4a" x="34.3475" y="38.932542" style="stroke: #000000; stroke-width: 0.6"/>
      </g>
     </g>
    </g>
    <g id="ytick_34">
     <g id="line2d_37">
      <g>
       <use xlink:href="#m7ecf1a5c4a" x="34.3475" y="36.400255" style="stroke: #000000; stroke-width: 0.6"/>
      </g>
     </g>
    </g>
    <g id="ytick_35">
     <g id="line2d_38">
      <g>
       <use xlink:href="#m7ecf1a5c4a" x="34.3475" y="34.436061" style="stroke: #000000; stroke-width: 0.6"/>
      </g>
     </g>
    </g>
    <g id="ytick_36">
     <g id="line2d_39">
      <g>
       <use xlink:href="#m7ecf1a5c4a" x="34.3475" y="32.831197" style="stroke: #000000; stroke-width: 0.6"/>
      </g>
     </g>
    </g>
    <g id="ytick_37">
     <g id="line2d_40">
      <g>
       <use xlink:href="#m7ecf1a5c4a" x="34.3475" y="31.474304" style="stroke: #000000; stroke-width: 0.6"/>
      </g>
     </g>
    </g>
    <g id="ytick_38">
     <g id="line2d_41">
      <g>
       <use xlink:href="#m7ecf1a5c4a" x="34.3475" y="30.29891" style="stroke: #000000; stroke-width: 0.6"/>
      </g>
     </g>
    </g>
    <g id="ytick_39">
     <g id="line2d_42">
      <g>
       <use xlink:href="#m7ecf1a5c4a" x="34.3475" y="29.262139" style="stroke: #000000; stroke-width: 0.6"/>
      </g>
     </g>
    </g>
    <g id="ytick_40">
     <g id="line2d_43">
      <g>
       <use xlink:href="#m7ecf1a5c4a" x="34.3475" y="22.23337" style="stroke: #000000; stroke-width: 0.6"/>
      </g>
     </g>
    </g>
    <g id="ytick_41">
     <g id="line2d_44">
      <g>
       <use xlink:href="#m7ecf1a5c4a" x="34.3475" y="18.664312" style="stroke: #000000; stroke-width: 0.6"/>
      </g>
     </g>
    </g>
    <g id="ytick_42">
     <g id="line2d_45">
      <g>
       <use xlink:href="#m7ecf1a5c4a" x="34.3475" y="16.132025" style="stroke: #000000; stroke-width: 0.6"/>
      </g>
     </g>
    </g>
    <g id="ytick_43">
     <g id="line2d_46">
      <g>
       <use xlink:href="#m7ecf1a5c4a" x="34.3475" y="14.167831" style="stroke: #000000; stroke-width: 0.6"/>
      </g>
     </g>
    </g>
    <g id="ytick_44">
     <g id="line2d_47">
      <g>
       <use xlink:href="#m7ecf1a5c4a" x="34.3475" y="12.562967" style="stroke: #000000; stroke-width: 0.6"/>
      </g>
     </g>
    </g>
    <g id="ytick_45">
     <g id="line2d_48">
      <g>
       <use xlink:href="#m7ecf1a5c4a" x="34.3475" y="11.206074" style="stroke: #000000; stroke-width: 0.6"/>
      </g>
     </g>
    </g>
    <g id="ytick_46">
     <g id="line2d_49">
      <g>
       <use xlink:href="#m7ecf1a5c4a" x="34.3475" y="10.03068" style="stroke: #000000; stroke-width: 0.6"/>
      </g>
     </g>
    </g>
    <g id="ytick_47">
     <g id="line2d_50">
      <g>
       <use xlink:href="#m7ecf1a5c4a" x="34.3475" y="8.993909" style="stroke: #000000; stroke-width: 0.6"/>
      </g>
     </g>
    </g>
    <g id="ytick_48">
     <g id="line2d_51">
      <g>
       <use xlink:href="#m7ecf1a5c4a" x="34.3475" y="1.965141" style="stroke: #000000; stroke-width: 0.6"/>
      </g>
     </g>
    </g>
    <g id="text_11">
     <!-- Decoding Error [MSE] -->
     <g transform="translate(5.82375 94.340625) rotate(-90) scale(0.08 -0.08)">
      <defs>
       <path id="ArialMT-44" d="M 494 0 
L 494 4581 
L 2072 4581 
Q 2606 4581 2888 4516 
Q 3281 4425 3559 4188 
Q 3922 3881 4101 3404 
Q 4281 2928 4281 2316 
Q 4281 1794 4159 1391 
Q 4038 988 3847 723 
Q 3656 459 3429 307 
Q 3203 156 2883 78 
Q 2563 0 2147 0 
L 494 0 
z
M 1100 541 
L 2078 541 
Q 2531 541 2789 625 
Q 3047 709 3200 863 
Q 3416 1078 3536 1442 
Q 3656 1806 3656 2325 
Q 3656 3044 3420 3430 
Q 3184 3816 2847 3947 
Q 2603 4041 2063 4041 
L 1100 4041 
L 1100 541 
z
" transform="scale(0.015625)"/>
       <path id="ArialMT-63" d="M 2588 1216 
L 3141 1144 
Q 3050 572 2676 248 
Q 2303 -75 1759 -75 
Q 1078 -75 664 370 
Q 250 816 250 1647 
Q 250 2184 428 2587 
Q 606 2991 970 3192 
Q 1334 3394 1763 3394 
Q 2303 3394 2647 3120 
Q 2991 2847 3088 2344 
L 2541 2259 
Q 2463 2594 2264 2762 
Q 2066 2931 1784 2931 
Q 1359 2931 1093 2626 
Q 828 2322 828 1663 
Q 828 994 1084 691 
Q 1341 388 1753 388 
Q 2084 388 2306 591 
Q 2528 794 2588 1216 
z
" transform="scale(0.015625)"/>
       <path id="ArialMT-6f" d="M 213 1659 
Q 213 2581 725 3025 
Q 1153 3394 1769 3394 
Q 2453 3394 2887 2945 
Q 3322 2497 3322 1706 
Q 3322 1066 3130 698 
Q 2938 331 2570 128 
Q 2203 -75 1769 -75 
Q 1072 -75 642 372 
Q 213 819 213 1659 
z
M 791 1659 
Q 791 1022 1069 705 
Q 1347 388 1769 388 
Q 2188 388 2466 706 
Q 2744 1025 2744 1678 
Q 2744 2294 2464 2611 
Q 2184 2928 1769 2928 
Q 1347 2928 1069 2612 
Q 791 2297 791 1659 
z
" transform="scale(0.015625)"/>
       <path id="ArialMT-64" d="M 2575 0 
L 2575 419 
Q 2259 -75 1647 -75 
Q 1250 -75 917 144 
Q 584 363 401 755 
Q 219 1147 219 1656 
Q 219 2153 384 2558 
Q 550 2963 881 3178 
Q 1213 3394 1622 3394 
Q 1922 3394 2156 3267 
Q 2391 3141 2538 2938 
L 2538 4581 
L 3097 4581 
L 3097 0 
L 2575 0 
z
M 797 1656 
Q 797 1019 1065 703 
Q 1334 388 1700 388 
Q 2069 388 2326 689 
Q 2584 991 2584 1609 
Q 2584 2291 2321 2609 
Q 2059 2928 1675 2928 
Q 1300 2928 1048 2622 
Q 797 2316 797 1656 
z
" transform="scale(0.015625)"/>
       <path id="ArialMT-67" d="M 319 -275 
L 866 -356 
Q 900 -609 1056 -725 
Q 1266 -881 1628 -881 
Q 2019 -881 2231 -725 
Q 2444 -569 2519 -288 
Q 2563 -116 2559 434 
Q 2191 0 1641 0 
Q 956 0 581 494 
Q 206 988 206 1678 
Q 206 2153 378 2554 
Q 550 2956 876 3175 
Q 1203 3394 1644 3394 
Q 2231 3394 2613 2919 
L 2613 3319 
L 3131 3319 
L 3131 450 
Q 3131 -325 2973 -648 
Q 2816 -972 2473 -1159 
Q 2131 -1347 1631 -1347 
Q 1038 -1347 672 -1080 
Q 306 -813 319 -275 
z
M 784 1719 
Q 784 1066 1043 766 
Q 1303 466 1694 466 
Q 2081 466 2343 764 
Q 2606 1063 2606 1700 
Q 2606 2309 2336 2618 
Q 2066 2928 1684 2928 
Q 1309 2928 1046 2623 
Q 784 2319 784 1719 
z
" transform="scale(0.015625)"/>
       <path id="ArialMT-45" d="M 506 0 
L 506 4581 
L 3819 4581 
L 3819 4041 
L 1113 4041 
L 1113 2638 
L 3647 2638 
L 3647 2100 
L 1113 2100 
L 1113 541 
L 3925 541 
L 3925 0 
L 506 0 
z
" transform="scale(0.015625)"/>
       <path id="ArialMT-5b" d="M 434 -1272 
L 434 4581 
L 1675 4581 
L 1675 4116 
L 997 4116 
L 997 -806 
L 1675 -806 
L 1675 -1272 
L 434 -1272 
z
" transform="scale(0.015625)"/>
       <path id="ArialMT-4d" d="M 475 0 
L 475 4581 
L 1388 4581 
L 2472 1338 
Q 2622 884 2691 659 
Q 2769 909 2934 1394 
L 4031 4581 
L 4847 4581 
L 4847 0 
L 4263 0 
L 4263 3834 
L 2931 0 
L 2384 0 
L 1059 3900 
L 1059 0 
L 475 0 
z
" transform="scale(0.015625)"/>
       <path id="ArialMT-5d" d="M 1363 -1272 
L 122 -1272 
L 122 -806 
L 800 -806 
L 800 4116 
L 122 4116 
L 122 4581 
L 1363 4581 
L 1363 -1272 
z
" transform="scale(0.015625)"/>
      </defs>
      <use xlink:href="#ArialMT-44"/>
      <use xlink:href="#ArialMT-65" x="72.216797"/>
      <use xlink:href="#ArialMT-63" x="127.832031"/>
      <use xlink:href="#ArialMT-6f" x="177.832031"/>
      <use xlink:href="#ArialMT-64" x="233.447266"/>
      <use xlink:href="#ArialMT-69" x="289.0625"/>
      <use xlink:href="#ArialMT-6e" x="311.279297"/>
      <use xlink:href="#ArialMT-67" x="366.894531"/>
      <use xlink:href="#ArialMT-20" x="422.509766"/>
      <use xlink:href="#ArialMT-45" x="450.292969"/>
      <use xlink:href="#ArialMT-72" x="516.992188"/>
      <use xlink:href="#ArialMT-72" x="550.292969"/>
      <use xlink:href="#ArialMT-6f" x="583.59375"/>
      <use xlink:href="#ArialMT-72" x="639.208984"/>
      <use xlink:href="#ArialMT-20" x="672.509766"/>
      <use xlink:href="#ArialMT-5b" x="700.292969"/>
      <use xlink:href="#ArialMT-4d" x="728.076172"/>
      <use xlink:href="#ArialMT-53" x="811.376953"/>
      <use xlink:href="#ArialMT-45" x="878.076172"/>
      <use xlink:href="#ArialMT-5d" x="944.775391"/>
     </g>
    </g>
   </g>
   <g id="line2d_52">
    <path d="M 39.420227 6.261109 
L 39.426315 5.04 
L 39.519655 8.067744 
L 39.527771 7.526077 
L 39.535888 6.091611 
L 39.594733 8.504156 
L 39.62314 7.646244 
L 39.661694 10.669682 
L 39.633286 6.429524 
L 39.734743 9.589109 
L 39.781413 7.831437 
L 39.809821 11.139047 
L 39.842287 9.265993 
L 39.876782 8.870894 
L 39.953889 11.998832 
L 39.962005 9.855028 
L 40.055345 13.439742 
L 40.063462 12.676945 
L 40.065491 12.672949 
L 40.16086 14.206086 
L 40.069549 11.17463 
L 40.179122 13.360196 
L 40.181152 12.458544 
L 40.266375 15.872773 
L 40.286666 13.090593 
L 40.37189 16.857023 
L 40.398269 16.197624 
L 40.406385 14.605867 
L 40.495667 19.247685 
L 40.505813 17.548803 
L 40.524075 15.920242 
L 40.62959 19.472281 
L 40.666114 17.478158 
L 40.702638 21.186044 
L 40.739163 19.901169 
L 40.850765 22.800523 
L 40.747279 18.779943 
L 40.866998 22.040942 
L 40.911639 20.369471 
L 40.935988 23.945008 
L 40.974542 23.668804 
L 41.053678 22.298206 
L 41.023241 25.216591 
L 41.082086 23.793858 
L 41.18963 28.124006 
L 41.102377 23.759767 
L 41.195717 25.623373 
L 41.220067 24.885849 
L 41.309349 29.267344 
L 41.339786 26.922326 
L 41.396601 29.96082 
L 41.418922 29.547862 
L 41.42298 28.679922 
L 41.51632 32.254511 
L 41.524437 29.669505 
L 41.56299 34.536339 
L 41.532553 29.508107 
L 41.640097 33.686064 
L 41.664447 31.884636 
L 41.721262 36.200045 
L 41.745612 34.025411 
L 41.853156 37.588506 
L 41.857214 36.436827 
L 41.861272 35.704016 
L 41.926205 39.313413 
L 41.950554 38.388099 
L 41.962729 37.591667 
L 41.991137 40.209728 
L 42.003312 38.385396 
L 42.110856 41.683225 
L 42.013457 37.847401 
L 42.114914 40.63809 
L 42.242749 45.163957 
L 42.12506 40.259452 
L 42.261011 43.709895 
L 42.283332 42.687288 
L 42.364497 47.138326 
L 42.368555 45.523695 
L 42.453779 48.649501 
L 42.472041 47.37711 
L 42.579585 51.781469 
L 42.583643 50.116129 
L 42.695246 54.07194 
L 42.607993 49.472065 
L 42.701333 52.724261 
L 42.855547 57.329751 
L 42.717566 52.253848 
L 42.861634 56.049536 
L 42.863663 54.9792 
L 42.959033 59.798893 
L 42.967149 57.703796 
L 42.98947 57.447818 
L 43.092955 62.610091 
L 43.094984 60.575603 
L 43.196441 64.52994 
L 43.202528 63.893052 
L 43.214703 61.580997 
L 43.265431 65.898617 
L 43.301956 65.046598 
L 43.395296 67.885152 
L 43.31616 64.519499 
L 43.419645 67.594628 
L 43.490665 70.593224 
L 43.437908 66.290589 
L 43.539364 69.728841 
L 43.541393 67.953582 
L 43.608355 71.942416 
L 43.646908 71.016369 
L 43.746336 73.951007 
L 43.703724 70.278588 
L 43.76054 73.316813 
L 43.762569 72.088715 
L 43.845763 76.182864 
L 43.868084 74.553786 
L 43.908666 75.926589 
L 43.882287 73.023868 
L 43.943161 75.706321 
L 43.94519 73.102217 
L 43.973598 77.183937 
L 44.052734 76.079601 
L 44.066938 74.564699 
L 44.144045 79.29404 
L 44.15622 77.031925 
L 44.255648 79.234538 
L 44.168395 75.499472 
L 44.267822 78.489259 
L 44.271881 76.390731 
L 44.365221 80.013328 
L 44.377396 77.094288 
L 44.415949 80.750627 
L 44.488998 79.52145 
L 44.541755 78.552519 
L 44.568134 81.16527 
L 44.592483 79.515377 
L 44.697998 83.08399 
L 44.633066 78.88094 
L 44.706115 81.477025 
L 44.736552 82.584976 
L 44.730464 79.507314 
L 44.807571 81.243646 
L 44.81163 80.15832 
L 44.898882 83.401491 
L 44.915115 82.884097 
L 45.014543 80.603149 
L 44.957727 84.398459 
L 45.026718 82.42068 
L 45.11397 84.490116 
L 45.073388 80.760236 
L 45.13832 83.285528 
L 45.195135 81.496689 
L 45.172815 84.715172 
L 45.247893 83.311609 
L 45.329058 85.517426 
L 45.337175 82.445425 
L 45.359495 84.582385 
L 45.391961 82.715381 
L 45.458923 86.04545 
L 45.471097 83.285804 
L 45.507622 86.152403 
L 45.483272 82.924666 
L 45.584729 85.998437 
L 45.641544 83.75296 
L 45.65169 86.83087 
L 45.692273 85.412112 
L 45.696331 87.301692 
L 45.708506 83.569019 
L 45.803875 85.706356 
L 45.836341 83.68095 
L 45.903302 87.685644 
L 45.911419 85.415523 
L 45.976351 87.661922 
L 45.927652 84.20293 
L 46.023021 86.23822 
L 46.067662 87.823547 
L 46.110274 84.817542 
L 46.130565 87.637409 
L 46.132594 84.597582 
L 46.161002 88.424979 
L 46.240138 86.412449 
L 46.301012 89.839803 
L 46.266517 84.883698 
L 46.349711 87.26658 
L 46.432906 85.098386 
L 46.430877 89.273853 
L 46.457255 87.108728 
L 46.524217 89.067225 
L 46.534362 84.941211 
L 46.566828 88.167715 
L 46.643935 85.997673 
L 46.617557 89.688119 
L 46.676401 88.694374 
L 46.712926 86.087796 
L 46.725101 90.14547 
L 46.781916 86.559694 
L 46.812353 90.496074 
L 46.788004 86.226938 
L 46.893519 88.64379 
L 46.925985 86.056994 
L 47.003092 90.240268 
L 47.10049 86.724248 
L 47.094403 90.420132 
L 47.116723 86.973845 
L 47.151218 90.109943 
L 47.228325 89.751171 
L 47.277024 87.323008 
L 47.281083 90.431015 
L 47.339927 89.071346 
L 47.439355 87.315366 
L 47.417034 91.347475 
L 47.449501 88.952759 
L 47.546899 91.428492 
L 47.532695 87.435623 
L 47.557045 88.882225 
L 47.605744 86.782991 
L 47.652414 92.022942 
L 47.666618 89.219442 
L 47.717346 91.451351 
L 47.701113 87.174462 
L 47.77822 90.934954 
L 47.794453 87.467613 
L 47.869531 92.194495 
L 47.889822 87.855919 
L 47.94055 91.812613 
L 47.901997 86.913398 
L 48.001424 90.253944 
L 48.015628 87.685124 
L 48.096794 92.337076 
L 48.110997 89.837056 
L 48.115056 92.052886 
L 48.157667 88.283976 
L 48.220571 90.659935 
L 48.324056 87.155679 
L 48.309852 92.65154 
L 48.330144 90.4075 
L 48.344348 88.179268 
L 48.40928 92.398789 
L 48.460008 88.514195 
L 48.419425 92.951244 
L 48.520882 90.502861 
L 48.528999 92.828516 
L 48.543202 88.00787 
L 48.630455 90.129163 
L 48.634513 88.21088 
L 48.636543 93.178785 
L 48.737999 91.324948 
L 48.774523 88.40426 
L 48.847572 93.799225 
L 48.849601 88.659855 
L 48.959174 92.392393 
L 49.04034 93.268437 
L 49.005844 89.554825 
L 49.048456 91.778482 
L 49.054544 88.403248 
L 49.095126 93.293374 
L 49.158029 92.49434 
L 49.160058 93.836958 
L 49.229049 89.006491 
L 49.267602 91.780976 
L 49.302098 89.482006 
L 49.358913 93.910237 
L 49.379205 90.396853 
L 49.385292 93.801213 
L 49.405583 89.445815 
L 49.490807 92.605678 
L 49.541535 89.476397 
L 49.586176 93.871122 
L 49.602409 91.659367 
L 49.618642 89.352774 
L 49.711982 94.34349 
L 49.819526 94.701972 
L 49.825614 89.556289 
L 49.8804 94.567742 
L 49.939245 92.996944 
L 49.945332 90.006011 
L 49.95142 94.308011 
L 50.042731 91.475959 
L 50.119838 94.844329 
L 50.077226 90.4725 
L 50.154333 92.862925 
L 50.229411 90.486491 
L 50.174624 94.326213 
L 50.261877 93.534968 
L 50.302459 94.654565 
L 50.296372 91.023576 
L 50.37145 93.068095 
L 50.399858 95.446595 
L 50.466819 90.890615 
L 50.481023 93.03798 
L 50.495227 91.352091 
L 50.491169 94.23489 
L 50.529722 92.736057 
L 50.531751 95.018397 
L 50.608858 91.57185 
L 50.639295 92.650309 
L 50.690024 90.994312 
L 50.677849 94.999661 
L 50.728577 93.150286 
L 50.783364 95.917434 
L 50.734664 91.234534 
L 50.83815 93.237612 
L 50.8625 91.387841 
L 50.850325 96.427716 
L 50.941636 91.85697 
L 51.047151 96.841129 
L 51.039034 91.333491 
L 51.055267 95.302228 
L 51.150636 91.059128 
L 51.061355 96.245973 
L 51.168899 93.202762 
L 51.252093 96.682113 
L 51.174986 90.633157 
L 51.280501 93.938306 
L 51.28253 92.118217 
L 51.381957 96.019823 
L 51.390074 93.759349 
L 51.420511 91.522979 
L 51.396161 96.800435 
L 51.489501 94.030789 
L 51.54023 96.386249 
L 51.552404 92.22019 
L 51.599074 95.652637 
L 51.629511 92.825408 
L 51.617337 96.844047 
L 51.712706 93.889761 
L 51.789813 97.468489 
L 51.74923 92.854492 
L 51.824308 95.002371 
L 51.862862 96.757082 
L 51.93591 93.213586 
L 52.004901 97.062546 
L 51.984609 92.86799 
L 52.047513 95.990407 
L 52.055629 92.461298 
L 52.069833 97.412191 
L 52.157086 95.080302 
L 52.224047 97.385874 
L 52.181435 93.722173 
L 52.266659 95.75845 
L 52.3113 93.222601 
L 52.313329 97.600203 
L 52.376232 94.996441 
L 52.398552 97.702646 
L 52.477688 92.260626 
L 52.489863 96.574704 
L 52.5203 93.813965 
L 52.577116 97.886969 
L 52.603495 94.281541 
L 52.615669 97.976328 
L 52.66031 93.061261 
L 52.717126 96.559183 
L 52.769883 97.781991 
L 52.775971 94.432662 
L 52.820612 95.568432 
L 52.82467 95.05989 
L 52.826699 95.685059 
L 52.920039 97.789937 
L 52.905835 95.108333 
L 52.938301 96.673253 
L 53.029612 98.118191 
L 52.962651 94.396808 
L 53.047874 96.964304 
L 53.096574 95.023515 
L 53.153389 99.024081 
L 53.157447 96.208987 
L 53.196001 99.109186 
L 53.169622 94.175717 
L 53.267021 96.385395 
L 53.33804 94.779308 
L 53.319778 98.073097 
L 53.350215 95.246553 
L 53.366448 99.069924 
L 53.36239 94.772919 
L 53.461817 97.360167 
L 53.469934 94.810427 
L 53.473992 98.996842 
L 53.57139 96.362861 
L 53.636323 99.757562 
L 53.630235 95.46992 
L 53.682993 98.119856 
L 53.751983 95.494772 
L 53.73575 99.629102 
L 53.792566 96.689671 
L 53.859527 99.677108 
L 53.85141 95.296754 
L 53.902139 99.296806 
L 53.920401 95.902888 
L 53.94678 99.911985 
L 54.013741 96.631772 
L 54.042149 99.504235 
L 54.068528 95.765971 
L 54.125343 96.993527 
L 54.147664 95.782709 
L 54.18013 99.700229 
L 54.222742 97.936935 
L 54.251149 99.760653 
L 54.2268 95.507379 
L 54.330285 98.013787 
L 54.350577 96.68112 
L 54.376955 100.194682 
L 54.439859 98.202486 
L 54.48247 100.284405 
L 54.502762 95.361027 
L 54.551461 98.554198 
L 54.630597 96.941962 
L 54.573781 101.032698 
L 54.661034 98.588507 
L 54.734083 100.3179 
L 54.689442 96.1249 
L 54.772636 99.783149 
L 54.872064 96.216256 
L 54.835539 100.369052 
L 54.884238 98.061676 
L 54.930908 100.243393 
L 54.963374 96.894403 
L 54.993811 98.606441 
L 55.003957 97.539053 
L 55.068889 100.134019 
L 55.099326 98.973037 
L 55.200783 100.239265 
L 55.190637 96.596259 
L 55.20687 99.4993 
L 55.208899 96.599425 
L 55.310356 101.521 
L 55.316443 97.227194 
L 55.411813 101.422836 
L 55.428046 99.915262 
L 55.527473 97.31218 
L 55.517327 101.407114 
L 55.537619 99.849256 
L 55.539648 99.838718 
L 55.578201 101.679995 
L 55.566027 97.690874 
L 55.647192 100.119243 
L 55.6756 97.236581 
L 55.687774 101.036549 
L 55.758794 98.948969 
L 55.864309 101.435329 
L 55.86228 98.217287 
L 55.870396 100.762918 
L 55.904892 97.268492 
L 55.921125 101.619905 
L 55.979969 98.406104 
L 56.000261 101.64538 
L 56.081426 98.026185 
L 56.091572 100.285555 
L 56.103746 98.059283 
L 56.190999 101.260256 
L 56.201145 98.87757 
L 56.213319 101.625211 
L 56.23564 97.629468 
L 56.312747 99.964259 
L 56.395941 96.624374 
L 56.385796 102.419467 
L 56.424349 98.848077 
L 56.49334 101.350447 
L 56.495369 98.202412 
L 56.535951 100.612122 
L 56.621175 97.564996 
L 56.627262 101.523108 
L 56.647554 99.995556 
L 56.70234 102.045946 
L 56.708428 98.063445 
L 56.757127 100.321671 
L 56.77336 98.064541 
L 56.783505 102.152878 
L 56.868729 99.670846 
L 56.941778 102.182704 
L 56.968156 98.300581 
L 56.980331 101.072852 
L 56.98236 98.555967 
L 57.0757 102.670376 
L 57.089904 99.621258 
L 57.187303 102.281687 
L 57.093963 98.637683 
L 57.201507 100.060133 
L 57.298905 102.41615 
L 57.276584 97.872033 
L 57.31108 100.54709 
L 57.343546 98.637699 
L 57.369924 102.181687 
L 57.420653 100.645347 
L 57.47341 102.679751 
L 57.463264 98.936995 
L 57.530226 100.257434 
L 57.580954 102.619975 
L 57.538342 98.899542 
L 57.635741 101.952833 
L 57.735168 98.778448 
L 57.686469 102.474072 
L 57.745314 100.455554 
L 57.794013 102.464162 
L 57.830537 99.494839 
L 57.854887 100.999692 
L 57.960402 98.951652 
L 57.869091 102.358239 
L 57.96446 101.270512 
L 58.027363 102.781116 
L 58.021276 99.047943 
L 58.072004 101.533256 
L 58.145053 99.381757 
L 58.143024 102.999233 
L 58.181577 102.477863 
L 58.258684 99.073559 
L 58.289121 101.357346 
L 58.29115 102.814682 
L 58.339849 98.794679 
L 58.398694 101.259502 
L 58.463626 102.653992 
L 58.487976 99.435992 
L 58.508267 101.464141 
L 58.534646 99.184594 
L 58.577258 102.263292 
L 58.619869 99.487129 
L 58.71118 102.653009 
L 58.686831 99.143688 
L 58.731472 101.415401 
L 58.741617 99.496284 
L 58.749734 102.877603 
L 58.843074 100.894159 
L 58.859307 103.117457 
L 58.912064 99.335063 
L 58.950618 101.394053 
L 58.976997 99.022355 
L 59.023667 102.934687 
L 59.058162 101.447109 
L 59.102803 102.611431 
L 59.110919 98.920678 
L 59.165706 101.47371 
L 59.254988 98.58783 
L 59.17991 103.55514 
L 59.279337 98.997756 
L 59.301658 102.86505 
L 59.392969 101.909613 
L 59.409202 102.372757 
L 59.466017 99.952918 
L 59.478192 101.695843 
L 59.569503 99.149417 
L 59.545153 103.627002 
L 59.587765 101.515499 
L 59.589794 103.09818 
L 59.642552 99.239373 
L 59.697338 101.296452 
L 59.729804 103.208516 
L 59.780533 99.512168 
L 59.806911 101.953855 
L 59.808941 99.8195 
L 59.81097 102.487227 
L 59.918514 100.898249 
L 59.957067 103.77783 
L 59.936776 99.692915 
L 60.028087 101.721152 
L 60.105194 99.763036 
L 60.115339 103.217145 
L 60.13766 102.220146 
L 60.145776 100.215369 
L 60.18433 103.675895 
L 60.247233 101.185677 
L 60.316223 103.595345 
L 60.32434 99.530103 
L 60.358835 102.399776 
L 60.375068 99.351994 
L 60.425796 103.686674 
L 60.470437 100.344471 
L 60.494787 103.93678 
L 60.577981 99.590498 
L 60.584069 102.229905 
L 60.632768 99.980787 
L 60.667263 104.311503 
L 60.693642 102.603311 
L 60.795098 99.75 
L 60.786982 103.240282 
L 60.807273 101.078287 
L 60.825535 103.217226 
L 60.904672 99.663922 
L 60.918875 101.421799 
L 60.9554 100.020634 
L 60.937138 103.384187 
L 61.010186 102.101911 
L 61.032507 103.31634 
L 61.111643 99.769185 
L 61.121789 102.740833 
L 61.215129 99.741414 
L 61.140051 103.414815 
L 61.23542 101.26192 
L 61.265857 104.333913 
L 61.336877 99.308792 
L 61.349051 102.445869 
L 61.395721 103.595595 
L 61.371372 99.300303 
L 61.438333 102.870251 
L 61.487032 100.171033 
L 61.501236 103.166828 
L 61.549935 101.474005 
L 61.65545 100.110165 
L 61.590518 103.864065 
L 61.657479 100.442473 
L 61.769082 103.461787 
L 61.661538 99.088281 
L 61.771111 103.243452 
L 61.840101 99.904444 
L 61.829955 103.810928 
L 61.882713 102.435871 
L 61.898946 99.538726 
L 61.941558 103.278065 
L 61.992286 102.443227 
L 62.030839 103.662222 
L 62.083597 99.766569 
L 62.095772 101.527518 
L 62.097801 99.628273 
L 62.178966 103.786342 
L 62.205345 101.075803 
L 62.300714 104.256208 
L 62.314918 100.529657 
L 62.316947 102.218268 
L 62.418404 101.107402 
L 62.412316 103.996072 
L 62.42652 101.796466 
L 62.481307 103.998628 
L 62.436666 99.76135 
L 62.538122 102.103691 
L 62.584792 99.789454 
L 62.635521 103.355517 
L 62.647695 101.252648 
L 62.670016 104.15474 
L 62.680162 99.403646 
L 62.759298 101.897552 
L 62.842492 100.315002 
L 62.838434 103.974913 
L 62.868871 101.481539 
L 62.923657 103.634849 
L 62.958153 100.118143 
L 62.974386 102.396735 
L 62.976415 100.520451 
L 63.021056 104.192836 
L 63.083959 103.320782 
L 63.085988 103.295066 
L 63.088017 103.423934 
L 63.118454 99.468534 
L 63.132658 103.684373 
L 63.199619 102.613504 
L 63.284843 99.613626 
L 63.276726 104.09664 
L 63.311221 100.54846 
L 63.353833 103.68289 
L 63.349775 99.794754 
L 63.422824 103.402185 
L 63.451232 100.625188 
L 63.459348 104.348639 
L 63.538484 101.161445 
L 63.603416 100.484687 
L 63.593271 104.190552 
L 63.629795 101.685002 
L 63.66429 104.442894 
L 63.666319 100.058226 
L 63.739368 101.827027 
L 63.792126 100.326798 
L 63.753572 103.997927 
L 63.838796 103.173741 
L 63.853 103.897711 
L 63.89967 100.24937 
L 63.940252 102.832897 
L 64.021417 100.322743 
L 63.954456 104.446828 
L 64.049825 102.162262 
L 64.078233 104.021405 
L 64.092437 99.842412 
L 64.159398 102.089303 
L 64.195923 99.926935 
L 64.250709 103.742813 
L 64.271001 101.628765 
L 64.299408 104.045082 
L 64.333904 99.343131 
L 64.382603 102.028847 
L 64.384632 100.828825 
L 64.453622 104.472632 
L 64.492176 100.982705 
L 64.526671 104.208261 
L 64.591603 100.400285 
L 64.603778 101.510275 
L 64.615953 103.828918 
L 64.67074 100.45785 
L 64.71741 103.305199 
L 64.743788 99.661369 
L 64.820895 104.187509 
L 64.829012 102.670941 
L 64.877711 104.197781 
L 64.910177 99.829932 
L 64.92641 102.775202 
L 65.025838 100.551023 
L 64.987284 104.084591 
L 65.038012 101.382666 
L 65.107003 103.52728 
L 65.125265 100.120382 
L 65.147585 101.74614 
L 65.202372 100.453253 
L 65.236867 103.835268 
L 65.247013 101.054573 
L 65.348469 104.811734 
L 65.338324 99.076854 
L 65.358615 101.893111 
L 65.384994 99.611093 
L 65.405285 103.654968 
L 65.466159 102.911399 
L 65.482392 100.16464 
L 65.531091 103.985195 
L 65.571674 101.971454 
L 65.622402 104.527698 
L 65.638635 99.956811 
L 65.681247 103.051234 
L 65.762412 100.364652 
L 65.703567 105.056302 
L 65.792849 102.075764 
L 65.841548 104.25895 
L 65.800966 100.373894 
L 65.904452 102.99258 
L 65.945034 100.233215 
L 65.969384 103.847503 
L 66.020112 101.743483 
L 66.032287 103.583535 
L 66.038374 99.956862 
L 66.131714 102.780482 
L 66.2352 100.032998 
L 66.216938 104.343129 
L 66.241287 101.999409 
L 66.255491 103.847164 
L 66.283899 99.554401 
L 66.346802 100.744792 
L 66.348831 100.317225 
L 66.361006 103.830051 
L 66.44623 102.270807 
L 66.519278 104.218752 
L 66.486812 100.109019 
L 66.555803 102.517589 
L 66.636968 100.644852 
L 66.588269 103.844455 
L 66.663347 102.533393 
L 66.707988 104.403144 
L 66.718133 100.14563 
L 66.77292 103.757416 
L 66.835823 100.560358 
L 66.803357 103.795042 
L 66.886551 101.526046 
L 66.939309 104.610784 
L 66.916988 100.409521 
L 66.996124 101.995413 
L 67.002212 100.584578 
L 67.022503 103.585247 
L 67.105697 102.18561 
L 67.115843 104.619576 
L 67.19295 100.291082 
L 67.2173 102.77728 
L 67.225416 100.446574 
L 67.233533 103.931499 
L 67.318756 102.959075 
L 67.412096 104.322832 
L 67.410067 100.642711 
L 67.424271 102.218586 
L 67.436446 104.062907 
L 67.444562 100.032412 
L 67.525728 102.032446 
L 67.56631 100.8186 
L 67.623126 103.636885 
L 67.625155 103.522642 
L 67.688058 103.773053 
L 67.692116 99.890775 
L 67.708349 102.393553 
L 67.710379 100.410562 
L 67.769223 103.573228 
L 67.819952 101.334953 
L 67.899088 104.137135 
L 67.929525 100.174132 
L 68.000544 104.008423 
L 68.041127 102.888815 
L 68.136496 100.29853 
L 68.12838 103.864928 
L 68.154758 101.318815 
L 68.181137 104.757147 
L 68.250128 100.674769 
L 68.266361 103.310146 
L 68.321147 100.780153 
L 68.286652 104.307126 
L 68.377963 102.854202 
L 68.38405 100.351486 
L 68.396225 104.412015 
L 68.483478 102.669215 
L 68.520002 104.428022 
L 68.532177 100.377421 
L 68.591022 101.985934 
L 68.643779 104.094329 
L 68.694507 100.260435 
L 68.777702 104.587378 
L 68.80611 102.453339 
L 68.891333 100.638386 
L 68.889304 105.213917 
L 68.913654 100.701479 
L 68.970469 104.733095 
L 69.002935 99.925814 
L 69.025256 104.431496 
L 69.126712 99.549151 
L 69.037431 104.660551 
L 69.136858 101.971237 
L 69.205848 104.72262 
L 69.207878 100.328192 
L 69.24846 104.07996 
L 69.349917 104.78779 
L 69.362092 99.995258 
L 69.427024 104.005116 
L 69.473694 102.446112 
L 69.522393 100.817214 
L 69.546743 104.355965 
L 69.573121 103.454108 
L 69.672549 104.721331 
L 69.611675 100.100709 
L 69.678636 103.522059 
L 69.765889 100.20581 
L 69.705015 103.846936 
L 69.790238 102.262536 
L 69.796326 100.399256 
L 69.901841 104.313644 
L 70.015472 100.196926 
L 70.080404 104.082448 
L 70.127074 103.092958 
L 70.141278 100.585425 
L 70.200123 103.871108 
L 70.238676 102.735309 
L 70.263026 104.222725 
L 70.350279 100.722869 
L 70.358395 104.168717 
L 70.364483 99.285055 
L 70.461881 101.654038 
L 70.561308 104.646149 
L 70.549133 101.195076 
L 70.575512 103.893017 
L 70.662765 100.57827 
L 70.687114 100.824057 
L 70.741901 104.315324 
L 70.691173 100.491249 
L 70.798717 102.388052 
L 70.855532 100.882986 
L 70.827125 103.925665 
L 70.892057 102.707412 
L 70.979309 103.809058 
L 70.938727 100.117517 
L 71.003659 102.966684 
L 71.015834 99.658428 
L 71.072649 104.342349 
L 71.113232 102.772001 
L 71.125407 102.18123 
L 71.121349 103.795633 
L 71.131494 103.536759 
L 71.151786 100.417161 
L 71.239038 104.54674 
L 71.241067 102.029219 
L 71.332378 104.1631 
L 71.255271 99.837114 
L 71.35267 102.612921 
L 71.39731 104.016407 
L 71.409485 99.964379 
L 71.460214 102.500291 
L 71.517029 100.175968 
L 71.541379 104.545813 
L 71.563699 102.905201 
L 71.565728 104.60181 
L 71.594136 100.336782 
L 71.675301 103.784878 
L 71.689505 100.471321 
L 71.709797 104.818059 
L 71.784875 102.879569 
L 71.799078 104.779426 
L 71.792991 100.999148 
L 71.892419 102.273597 
L 71.91271 100.58846 
L 71.916768 104.312938 
L 72.004021 101.561838 
L 72.054749 104.139843 
L 72.020254 100.281242 
L 72.115623 102.272274 
L 72.178526 104.450493 
L 72.156206 100.899393 
L 72.227225 102.619396 
L 72.300274 100.496209 
L 72.334769 104.561116 
L 72.432168 100.917745 
L 72.448401 102.803948 
L 72.470721 104.967908 
L 72.529566 100.914794 
L 72.539711 102.955282 
L 72.557974 100.642527 
L 72.574207 104.586186 
L 72.649285 101.921886 
L 72.693925 104.008553 
L 72.671605 100.398124 
L 72.760887 103.432819 
L 72.801469 100.922551 
L 72.866402 103.909086 
L 72.872489 102.526638 
L 72.876547 104.147765 
L 72.929305 100.577331 
L 72.984091 103.588248 
L 73.051053 104.043446 
L 73.008441 101.042597 
L 73.07946 102.328567 
L 73.120043 100.284197 
L 73.10381 103.683543 
L 73.184975 102.232536 
L 73.213383 104.085837 
L 73.280344 100.246897 
L 73.294548 102.250991 
L 73.341218 100.977374 
L 73.355422 104.394799 
L 73.389918 103.376186 
L 73.418325 104.032305 
L 73.4305 101.313141 
L 73.489345 103.524541 
L 73.525869 99.721188 
L 73.536015 104.351185 
L 73.600947 103.001916 
L 73.645588 100.898684 
L 73.609064 103.98381 
L 73.71052 102.938543 
L 73.791686 104.102813 
L 73.779511 99.173047 
L 73.816035 103.272898 
L 73.864734 100.96121 
L 73.844443 104.378267 
L 73.925608 102.304699 
L 74.006774 104.296265 
L 73.970249 99.887583 
L 74.037211 102.846202 
L 74.100114 101.037909 
L 74.06156 104.443303 
L 74.146784 103.783205 
L 74.148813 103.825274 
L 74.158958 101.850386 
L 74.254328 100.903689 
L 74.207658 104.612048 
L 74.262444 101.553064 
L 74.268532 104.60704 
L 74.343609 99.901907 
L 74.374046 102.669545 
L 74.38825 103.876101 
L 74.420716 99.79679 
L 74.483619 103.018615 
L 74.568843 100.113693 
L 74.544493 104.655102 
L 74.595222 102.546015 
L 74.64595 100.021954 
L 74.603338 104.060327 
L 74.702766 103.319554 
L 74.721028 100.361481 
L 74.71494 104.842784 
L 74.820455 100.893806 
L 74.887417 104.75129 
L 74.932058 103.601435 
L 75.013223 104.607299 
L 74.938145 100.302316 
L 75.023368 103.260279 
L 75.025398 100.928065 
L 75.031485 104.94754 
L 75.132942 103.277707 
L 75.134971 104.813302 
L 75.232369 101.423501 
L 75.242515 102.368076 
L 75.270922 104.881374 
L 75.283097 100.051034 
L 75.352088 103.176733 
L 75.459632 101.131772 
L 75.457603 104.224209 
L 75.461661 101.618591 
L 75.48601 104.029674 
L 75.542826 100.56982 
L 75.571234 101.373122 
L 75.658487 104.291714 
L 75.605729 100.303013 
L 75.682836 102.30706 
L 75.776176 100.085324 
L 75.707186 104.617562 
L 75.79038 102.665546 
L 75.792409 104.790453 
L 75.867487 100.662989 
L 75.901982 104.021861 
L 75.962856 100.05688 
L 75.970973 104.548053 
L 76.013585 102.689627 
L 76.119099 104.227491 
L 76.02373 100.78203 
L 76.123158 101.959118 
L 76.186061 104.21471 
L 76.169828 100.34802 
L 76.228673 101.808419 
L 76.311867 100.499565 
L 76.287517 104.073973 
L 76.336217 102.07034 
L 76.419411 104.10051 
L 76.346362 100.732093 
L 76.44376 102.608681 
L 76.482314 100.679171 
L 76.459994 104.991704 
L 76.555363 101.881122 
L 76.557392 101.840338 
L 76.559421 103.877694 
L 76.573625 102.122856 
L 76.575654 104.606938 
L 76.610149 101.042129 
L 76.685227 103.21153 
L 76.693344 99.512215 
L 76.776538 104.39174 
L 76.7948 103.131025 
L 76.861762 104.474036 
L 76.855674 100.339761 
L 76.900315 103.411189 
L 76.920606 104.095297 
L 77.011917 101.284419 
L 77.078879 104.063092 
L 77.113374 99.814891 
L 77.12149 102.59138 
L 77.12352 100.492314 
L 77.19251 105.524993 
L 77.231063 103.27641 
L 77.269617 100.64644 
L 77.326433 104.502024 
L 77.340637 102.707916 
L 77.427889 104.57195 
L 77.409627 100.20453 
L 77.454268 103.269108 
L 77.464414 101.399242 
L 77.486734 104.308579 
L 77.56587 103.001961 
L 77.586162 104.860618 
L 77.576016 100.479517 
L 77.673414 102.716687 
L 77.770812 100.713546 
L 77.75255 104.351652 
L 77.782987 101.484286 
L 77.807337 104.522922 
L 77.821541 100.440853 
L 77.894589 102.686008 
L 77.910823 100.064776 
L 77.943289 104.557572 
L 78.006192 101.714076 
L 78.042716 104.897446 
L 78.012279 101.304396 
L 78.115765 102.353054 
L 78.207076 101.46554 
L 78.186784 104.455578 
L 78.227367 101.835761 
L 78.233454 104.355742 
L 78.280124 100.329018 
L 78.33694 101.785418 
L 78.343028 100.377554 
L 78.393756 103.826607 
L 78.405931 101.400663 
L 78.47695 104.583782 
L 78.466805 100.744415 
L 78.517533 103.241337 
L 78.588552 104.439133 
L 78.560145 101.102268 
L 78.618989 102.788241 
L 78.671747 99.789062 
L 78.685951 104.387958 
L 78.728563 102.035945 
L 78.746825 104.737509 
L 78.78132 101.038799 
L 78.838136 101.885081 
L 78.903068 104.072291 
L 78.870602 100.177919 
L 78.94365 102.357972 
L 78.94568 100.660456 
L 79.01467 104.287304 
L 79.053224 101.812356 
L 79.126272 104.753575 
L 79.089748 100.912765 
L 79.168884 104.381676 
L 79.254108 101.396481 
L 79.282515 101.401635 
L 79.373826 104.534979 
L 79.323098 100.651116 
L 79.394118 103.09755 
L 79.446875 100.416897 
L 79.418467 104.670078 
L 79.503691 103.349328 
L 79.542244 103.944662 
L 79.523982 101.694072 
L 79.544273 103.609111 
L 79.582827 104.624478 
L 79.655876 100.128351 
L 79.678196 104.241982 
L 79.773565 104.216302 
L 79.850672 100.492764 
L 79.826323 104.707366 
L 79.885167 102.56565 
L 79.917634 104.497822 
L 79.913575 100.684962 
L 79.954158 102.045474 
L 79.956187 100.395503 
L 80.051556 104.191996 
L 80.06576 101.28228 
L 80.108372 104.490668 
L 80.173304 100.033067 
L 80.177362 101.968465 
L 80.266644 100.883269 
L 80.193595 104.915342 
L 80.284906 102.382167 
L 80.353897 104.288603 
L 80.382305 100.918035 
L 80.394479 102.915303 
L 80.453324 100.134731 
L 80.449266 103.957903 
L 80.504053 102.940512 
L 80.58116 104.480273 
L 80.524344 100.878473 
L 80.609567 103.374868 
L 80.670441 100.482902 
L 80.6745 104.811101 
L 80.72117 102.166898 
L 80.773927 105.221341 
L 80.733344 101.461985 
L 80.830743 104.517542 
L 80.928141 100.590344 
L 80.942345 102.082623 
L 80.962636 104.046406 
L 81.027569 100.423727 
L 81.053947 102.570181 
L 81.104676 100.702186 
L 81.135112 104.436863 
L 81.161491 102.895299 
L 81.16352 104.17005 
L 81.252802 100.619137 
L 81.271064 102.88297 
L 81.30353 100.706601 
L 81.35223 105.356544 
L 81.376579 103.491153 
L 81.388754 105.531616 
L 81.39687 100.543924 
L 81.478036 102.650487 
L 81.540939 100.923394 
L 81.520647 104.839222 
L 81.544997 102.470488 
L 81.589638 104.932569 
L 81.571376 101.010633 
L 81.652541 102.537133 
L 81.660658 100.432126 
L 81.680949 104.253851 
L 81.762114 102.994801 
L 81.861542 104.125686 
L 81.816901 100.582272 
L 81.871687 102.264368 
L 81.969086 101.101437 
L 81.894008 104.039177 
L 81.979231 102.786844 
L 82.003581 104.535406 
L 82.00561 100.137862 
L 82.082717 102.033246 
L 82.174028 101.06291 
L 82.153736 104.779853 
L 82.184173 101.87884 
L 82.186203 104.673887 
L 82.200407 99.98522 
L 82.295776 102.578405 
L 82.297805 101.090079 
L 82.30795 104.786997 
L 82.407378 101.871387 
L 82.508834 104.685833 
L 82.482456 100.466594 
L 82.523038 104.566246 
L 82.610291 100.593663 
L 82.616378 105.183872 
L 82.640728 102.85737 
L 82.642757 104.178147 
L 82.661019 100.425087 
L 82.748272 103.919604 
L 82.756389 100.34444 
L 82.817262 104.470209 
L 82.859874 103.178475 
L 82.87002 104.692957 
L 82.91669 100.89526 
L 82.94104 101.78331 
L 82.943069 100.284083 
L 83.016117 104.176169 
L 83.050613 102.759371 
L 83.152069 104.137003 
L 83.054671 100.061294 
L 83.158157 102.385437 
L 83.217001 104.367974 
L 83.269759 100.621894 
L 83.300196 104.653137 
L 83.38339 103.906176 
L 83.409769 100.483155 
L 83.413827 104.844828 
L 83.494992 102.857599 
L 83.543692 105.319483 
L 83.545721 100.357869 
L 83.598478 102.115819 
L 83.673556 98.756064 
L 83.695876 104.693252 
L 83.703993 102.728232 
L 83.785158 104.542763 
L 83.716168 100.692737 
L 83.815595 103.121245 
L 83.886615 100.556342 
L 83.825741 105.552205 
L 83.927197 102.302091 
L 83.933285 104.38413 
L 83.975897 100.090549 
L 84.036771 103.914316 
L 84.057062 101.063388 
L 84.097644 104.515663 
L 84.148373 103.073291 
L 84.156489 103.984102 
L 84.197072 100.913105 
L 84.257946 102.620594 
L 84.276208 100.348962 
L 84.266062 105.094609 
L 84.347228 100.875738 
L 84.416218 104.827363 
L 84.45883 103.679385 
L 84.523762 100.343043 
L 84.509558 104.27232 
L 84.566374 103.115856 
L 84.586665 105.056751 
L 84.625219 100.846602 
L 84.673918 102.086897 
L 84.675947 100.846569 
L 84.777404 104.494272 
L 84.783491 102.964569 
L 84.862627 101.570458 
L 84.864656 104.697939 
L 84.889006 102.291009 
L 84.986404 105.511928 
L 84.953938 100.663113 
L 84.998579 102.465055 
L 85.045249 100.507358 
L 85.010754 104.95522 
L 85.110181 102.114627 
L 85.169026 104.562422 
L 85.209609 100.361831 
L 85.221783 103.078853 
L 85.248162 101.048816 
L 85.25222 104.972552 
L 85.331356 102.777934 
L 85.412522 104.752378 
L 85.436871 100.896024 
L 85.4389 103.687736 
L 85.538328 100.822115 
L 85.467308 103.744213 
L 85.550503 102.971288 
L 85.601231 104.177914 
L 85.593114 100.737695 
L 85.633697 103.401664 
L 85.702687 101.040046 
L 85.688484 104.706671 
L 85.745299 102.418207 
L 85.834581 100.759325 
L 85.787911 104.486965 
L 85.846756 102.567012 
L 85.946183 104.482231 
L 85.850814 100.297123 
L 85.956329 104.030827 
L 86.02329 100.67543 
L 86.049669 104.407169 
L 86.065902 101.821388 
L 86.14098 104.446078 
L 86.074019 100.483637 
L 86.175475 101.829693 
L 86.185621 103.981989 
L 86.181562 100.90715 
L 86.293165 103.312634 
L 86.37433 104.463396 
L 86.406796 100.405137 
L 86.441291 104.987668 
L 86.518398 102.259404 
L 86.556952 104.623891 
L 86.577243 100.141896 
L 86.627971 103.960129 
L 86.6787 100.986032 
L 86.644204 104.201272 
L 86.739574 102.07561 
L 86.749719 104.383221 
L 86.782185 100.747053 
L 86.849147 102.553052 
L 86.918137 100.374898 
L 86.948574 104.384913 
L 86.95872 102.527411 
L 86.970895 100.964734 
L 87.035827 104.303213 
L 87.068293 101.364194 
L 87.084526 104.352414 
L 87.147429 100.232206 
L 87.181924 103.4924 
L 87.206274 100.24565 
L 87.269177 104.500724 
L 87.293527 103.133558 
L 87.37875 105.046023 
L 87.299614 101.167751 
L 87.4031 103.350235 
L 87.480207 99.436154 
L 87.510644 104.391544 
L 87.514702 101.903073 
L 87.563401 104.24307 
L 87.532964 100.507739 
L 87.632392 104.04159 
L 87.689207 100.66145 
L 87.668916 104.935486 
L 87.743994 103.029427 
L 87.792693 104.282342 
L 87.837334 99.450792 
L 87.853567 103.074205 
L 87.93879 100.337732 
L 87.898208 104.574842 
L 87.96314 102.829631 
L 87.965169 104.213882 
L 88.013868 100.226296 
L 88.072713 102.465594 
L 88.086917 105.02696 
L 88.101121 101.083267 
L 88.14982 101.917296 
L 88.22084 100.388982 
L 88.202577 104.411291 
L 88.257364 102.089213 
L 88.364908 104.733593 
L 88.342588 100.413633 
L 88.370995 103.930557 
L 88.393316 100.597751 
L 88.470423 104.609042 
L 88.480568 103.928162 
L 88.573909 100.595829 
L 88.52318 104.002291 
L 88.604346 101.828266 
L 88.677394 104.171512 
L 88.648986 100.321352 
L 88.715948 103.445604 
L 88.80523 100.674068 
L 88.788996 104.375094 
L 88.82755 100.931677 
L 88.884366 104.766178 
L 88.855958 100.283521 
L 88.939152 102.652177 
L 88.99191 101.156773 
L 89.026405 104.696662 
L 89.048725 103.300222 
L 89.064958 100.027866 
L 89.071046 104.562611 
L 89.158298 102.610781 
L 89.261784 104.746078 
L 89.233376 100.048514 
L 89.267871 103.279517 
L 89.326716 100.644519 
L 89.367299 104.662361 
L 89.379474 101.714756 
L 89.460639 104.451649 
L 89.436289 100.182137 
L 89.491076 102.955579 
L 89.568183 100.708224 
L 89.570212 104.366067 
L 89.59862 102.551207 
L 89.629057 104.885606 
L 89.657465 100.754193 
L 89.708193 102.487147 
L 89.712251 101.059561 
L 89.773125 104.435775 
L 89.813708 102.072345 
L 89.905019 104.623589 
L 89.817766 99.976722 
L 89.92531 103.31333 
L 89.953718 100.685475 
L 89.959805 104.909176 
L 90.010534 101.478038 
L 90.095757 104.576142 
L 90.118078 100.831172 
L 90.120107 103.242518 
L 90.164748 104.673456 
L 90.231709 100.666956 
L 90.270262 105.246366 
L 90.314903 99.49678 
L 90.343311 104.326346 
L 90.450855 100.855539 
L 90.454913 103.23768 
L 90.475205 104.545303 
L 90.467088 100.188162 
L 90.564487 102.589838 
L 90.623331 99.447121 
L 90.629419 103.869201 
L 90.633477 102.038957 
L 90.702467 104.863712 
L 90.67406 100.687604 
L 90.74305 101.774113 
L 90.755225 104.075195 
L 90.830303 100.963013 
L 90.854652 102.476186 
L 90.92973 100.742859 
L 90.901322 104.579805 
L 90.956109 102.119234 
L 90.972342 104.396792 
L 90.984517 100.599727 
L 91.067711 103.353623 
L 91.11641 104.326667 
L 91.16308 100.993942 
L 91.173226 102.329293 
L 91.177284 100.619579 
L 91.225983 104.121901 
L 91.28077 102.475068 
L 91.341644 104.143199 
L 91.286857 100.964032 
L 91.390343 103.256935 
L 91.481654 100.10669 
L 91.418751 104.452461 
L 91.501945 101.712631 
L 91.528324 105.303679 
L 91.550644 100.514072 
L 91.613548 102.157678 
L 91.668334 100.619491 
L 91.652101 104.237488 
L 91.719062 102.549791 
L 91.731237 104.59206 
L 91.737325 100.882422 
L 91.828635 103.218358 
L 91.907772 100.739781 
L 91.84081 104.488497 
L 91.938209 102.428061 
L 92.001112 104.141973 
L 91.9585 100.625066 
L 92.047782 103.464932 
L 92.12083 100.573516 
L 92.053869 105.107752 
L 92.161413 101.566492 
L 92.16953 100.19817 
L 92.270986 104.473103 
L 92.362297 101.257691 
L 92.323744 104.481372 
L 92.382588 101.913494 
L 92.419113 104.934102 
L 92.490132 100.041437 
L 92.494191 104.535637 
L 92.58956 101.422581 
L 92.559123 104.604637 
L 92.607822 101.965911 
L 92.656521 104.547794 
L 92.662608 100.794377 
L 92.721453 104.343144 
L 92.774211 100.460743 
L 92.739715 104.618433 
L 92.833056 103.137975 
L 92.871609 101.295459 
L 92.900017 104.323774 
L 92.940599 103.499252 
L 93.019736 104.748633 
L 92.944658 100.738818 
L 93.040027 104.06982 
L 93.113076 105.081465 
L 93.153658 100.391839 
L 93.198299 104.55567 
L 93.26729 103.764071 
L 93.372805 100.357782 
L 93.370775 104.311557 
L 93.378892 103.214321 
L 93.415416 101.191463 
L 93.443824 104.402177 
L 93.490494 102.042631 
L 93.549339 100.78256 
L 93.524989 104.610471 
L 93.575718 102.930868 
L 93.577747 104.822908 
L 93.583834 100.505859 
L 93.685291 103.093851 
L 93.752252 100.079158 
L 93.70964 104.232485 
L 93.784718 103.323825 
L 93.80298 105.002499 
L 93.882117 100.656102 
L 93.894291 102.914615 
L 93.928787 104.54946 
L 93.975457 100.512148 
L 93.999806 102.81052 
L 94.030243 100.645826 
L 94.08503 104.514045 
L 94.109379 102.858283 
L 94.125612 100.522022 
L 94.15402 105.31036 
L 94.220981 101.970746 
L 94.316351 103.855987 
L 94.289972 101.183315 
L 94.334613 102.859808 
L 94.346788 104.192035 
L 94.344758 102.029614 
L 94.369108 102.5047 
L 94.403603 100.572635 
L 94.450273 104.268657 
L 94.478681 103.019681 
L 94.498972 104.698202 
L 94.488827 101.035425 
L 94.525351 103.146128 
L 94.57405 100.564901 
L 94.539555 104.400925 
L 94.636953 102.532594 
L 94.732323 104.514887 
L 94.71406 101.138964 
L 94.748556 103.764687 
L 94.843925 100.946853 
L 94.815517 104.19097 
L 94.858129 103.802806 
L 94.943352 104.545496 
L 94.884507 101.124509 
L 94.957556 103.225568 
L 95.008284 99.996602 
L 95.032634 104.794863 
L 95.067129 102.987434 
L 95.148295 104.156458 
L 95.101625 100.858656 
L 95.166557 102.20732 
L 95.196994 101.104705 
L 95.186848 104.176834 
L 95.25178 103.084125 
L 95.304538 104.457113 
L 95.316712 101.186569 
L 95.363382 104.176454 
L 95.436431 100.804856 
L 95.470926 104.361729 
L 95.472956 102.252145 
L 95.499334 105.139082 
L 95.48513 101.374375 
L 95.582529 104.149546 
L 95.60282 100.42797 
L 95.606878 104.366651 
L 95.69616 102.164995 
L 95.781384 104.244095 
L 95.7895 101.062605 
L 95.803704 103.335716 
L 95.911248 100.510122 
L 95.840228 104.317887 
L 95.913277 101.225504 
L 95.949802 104.786453 
L 95.968064 99.958676 
L 96.024879 102.301835 
L 96.106045 100.022294 
L 96.063433 104.603756 
L 96.134452 101.367038 
L 96.215618 105.136903 
L 96.205472 100.855551 
L 96.244026 102.73191 
L 96.258229 100.621672 
L 96.317074 103.989263 
L 96.34954 102.25089 
L 96.35157 104.365822 
L 96.388094 100.888562 
L 96.459114 103.473321 
L 96.568687 99.165242 
L 96.511871 104.219894 
L 96.570716 102.368645 
L 96.637677 104.097479 
L 96.586949 99.882671 
L 96.680289 103.567592 
L 96.728988 101.03984 
L 96.765512 104.191259 
L 96.791891 103.176016 
L 96.856823 104.390971 
L 96.862911 99.954791 
L 96.897406 103.006421 
L 96.929872 100.624862 
L 96.905522 104.816594 
L 97.006979 103.261306 
L 97.077999 105.366829 
L 97.023212 100.481755 
L 97.106406 102.439495 
L 97.108436 100.014847 
L 97.175397 104.454109 
L 97.21598 102.417889 
L 97.295116 100.207008 
L 97.303232 104.474966 
L 97.317436 102.483875 
L 97.319465 104.76143 
L 97.400631 100.647747 
L 97.427009 104.538143 
L 97.506145 100.376447 
L 97.538611 103.409563 
L 97.587311 100.467949 
L 97.562961 104.145521 
L 97.648185 101.670618 
L 97.650214 104.689179 
L 97.684709 101.161886 
L 97.759787 102.800913 
L 97.79834 104.75325 
L 97.830806 101.575175 
L 97.871389 103.753812 
L 97.901826 101.055137 
L 97.974875 104.915629 
L 97.982991 102.250637 
L 98.076331 104.403793 
L 98.043865 100.92402 
L 98.090535 102.789635 
L 98.187934 100.720061 
L 98.165613 105.592594 
L 98.198079 103.235865 
L 98.252866 105.300945 
L 98.250837 101.058461 
L 98.307652 104.146961 
L 98.364468 100.75482 
L 98.374614 104.797301 
L 98.419255 103.585775 
L 98.486216 100.301587 
L 98.52274 104.202866 
L 98.532886 102.36857 
L 98.561294 104.000976 
L 98.636372 101.301205 
L 98.646517 103.186583 
L 98.743916 100.748706 
L 98.685071 104.111533 
L 98.75609 102.405319 
L 98.865663 104.443304 
L 98.772323 100.630318 
L 98.867693 103.086248 
L 98.959004 100.27676 
L 98.906246 104.692037 
L 98.979295 101.795458 
L 99.001615 104.676214 
L 98.985382 100.658286 
L 99.090897 102.444629 
L 99.133509 100.813145 
L 99.149742 103.840647 
L 99.188295 103.546904 
L 99.285694 104.233425 
L 99.257286 100.408181 
L 99.297868 103.040866 
L 99.328305 104.791941 
L 99.348597 100.702052 
L 99.403383 103.018423 
L 99.43382 100.485756 
L 99.417587 104.65328 
L 99.512956 102.004023 
L 99.604267 104.094692 
L 99.543393 100.432137 
L 99.6205 102.861379 
L 99.62253 101.151032 
L 99.626588 104.54118 
L 99.730073 102.822467 
L 99.73819 100.282149 
L 99.768627 104.403276 
L 99.839647 101.309555 
L 99.863996 105.175914 
L 99.951249 102.738882 
L 99.987773 101.112485 
L 100.024298 104.843015 
L 100.060822 102.516962 
L 100.125754 104.669121 
L 100.105463 101.071378 
L 100.172424 103.936828 
L 100.239385 100.709816 
L 100.284026 102.457832 
L 100.296201 104.307216 
L 100.3449 100.826383 
L 100.393599 102.373873 
L 100.490998 104.295494 
L 100.505202 100.654382 
L 100.513318 104.57975 
L 100.616804 101.524583 
L 100.653328 104.286711 
L 100.712173 100.486682 
L 100.726377 103.268492 
L 100.795368 100.69832 
L 100.831892 104.169833 
L 100.83595 103.468102 
L 100.872474 101.073743 
L 100.884649 104.511012 
L 100.941465 103.583133 
L 100.990164 104.469033 
L 101.002339 101.331586 
L 101.04698 102.277061 
L 101.049009 100.786464 
L 101.075388 104.623377 
L 101.158582 101.712923 
L 101.239747 104.261139 
L 101.237718 100.069414 
L 101.270184 102.463064 
L 101.272213 101.074039 
L 101.320913 104.520961 
L 101.379757 101.864304 
L 101.393961 104.931947 
L 101.454835 100.644125 
L 101.49136 103.100967 
L 101.53803 100.527983 
L 101.572525 104.157072 
L 101.598904 102.755216 
L 101.690214 104.140616 
L 101.70036 101.203464 
L 101.708477 102.424416 
L 101.730797 104.572377 
L 101.759205 100.953317 
L 101.820079 102.744134 
L 101.878924 100.524405 
L 101.856603 104.553239 
L 101.931681 102.269033 
L 101.992555 104.352349 
L 102.002701 100.707324 
L 102.043283 103.183836 
L 102.065604 101.292855 
L 102.077779 104.645905 
L 102.154886 102.502056 
L 102.165031 100.906645 
L 102.266488 105.630517 
L 102.325333 101.144756 
L 102.37809 103.652211 
L 102.434906 101.427734 
L 102.473459 104.410176 
L 102.489692 103.011275 
L 102.524188 104.791149 
L 102.587091 100.703994 
L 102.599265 103.818007 
L 102.674343 100.945074 
L 102.621586 104.545711 
L 102.710868 102.858789 
L 102.712897 102.859034 
L 102.731159 100.224855 
L 102.810295 104.752085 
L 102.824499 102.079047 
L 102.84479 104.459793 
L 102.834645 101.024013 
L 102.936101 102.774815 
L 102.98683 100.998603 
L 103.015237 104.616609 
L 103.035529 101.952044 
L 103.12684 104.424784 
L 103.122781 100.791685 
L 103.147131 102.770877 
L 103.246558 99.80834 
L 103.175539 104.540952 
L 103.256704 101.76395 
L 103.315549 104.27621 
L 103.305403 101.363437 
L 103.368306 103.553605 
L 103.435268 100.124239 
L 103.419035 104.751928 
L 103.481938 101.566735 
L 103.540782 103.642462 
L 103.56919 100.898766 
L 103.595569 103.341467 
L 103.611802 101.263447 
L 103.617889 105.126235 
L 103.703113 103.502308 
L 103.707171 104.275673 
L 103.715288 101.359043 
L 103.749783 102.774471 
L 103.784278 101.091933 
L 103.778191 104.871019 
L 103.859356 102.541228 
L 103.918201 100.537058 
L 103.867473 104.695771 
L 103.948638 102.107583 
L 104.058211 104.588693 
L 103.972987 101.014247 
L 104.06024 103.284988 
L 104.096764 100.892716 
L 104.090677 104.533986 
L 104.175901 101.636276 
L 104.226629 104.357071 
L 104.248949 100.623467 
L 104.285474 102.848256 
L 104.348377 100.623426 
L 104.34026 104.050813 
L 104.395047 103.457154 
L 104.407222 104.458771 
L 104.399105 100.486358 
L 104.429542 101.99112 
L 104.431571 100.217961 
L 104.522882 104.68403 
L 104.541144 101.151032 
L 104.634484 100.992909 
L 104.654776 104.605657 
L 104.721737 100.297677 
L 104.768407 102.932074 
L 104.861747 104.587461 
L 104.804931 100.413218 
L 104.87798 102.503878 
L 104.940883 100.810663 
L 104.928708 104.598815 
L 104.987553 102.375898 
L 105.036252 104.363013 
L 105.013932 100.542018 
L 105.097126 101.870739 
L 105.166117 100.913203 
L 105.117418 104.397288 
L 105.20467 102.9117 
L 105.27569 104.370049 
L 105.295981 101.083197 
L 105.395409 104.802647 
L 105.385263 100.860187 
L 105.407583 102.760052 
L 105.468457 100.46917 
L 105.413671 105.31218 
L 105.515127 102.27323 
L 105.537448 105.172567 
L 105.535419 100.421436 
L 105.6247 103.910314 
L 105.677458 100.923518 
L 105.707895 104.645845 
L 105.734274 103.435355 
L 105.754565 104.554088 
L 105.831672 99.976196 
L 105.841818 102.451069 
L 105.900662 104.891667 
L 105.904721 101.160358 
L 105.945303 103.512324 
L 106.030527 101.069948 
L 106.036614 104.650662 
L 106.056905 103.006435 
L 106.107634 104.684053 
L 106.101546 100.763781 
L 106.164449 103.698925 
L 106.200974 100.400835 
L 106.269964 104.222342 
L 106.276052 102.261979 
L 106.316634 101.049394 
L 106.357217 104.346361 
L 106.369392 103.487752 
L 106.371421 104.733131 
L 106.403887 99.988424 
L 106.476936 102.197269 
L 106.566217 105.076399 
L 106.549984 100.946325 
L 106.586509 104.183424 
L 106.588538 100.539789 
L 106.618975 104.724014 
L 106.698111 102.571071 
L 106.706228 100.583446 
L 106.769131 104.698727 
L 106.807684 102.972238 
L 106.823917 100.573985 
L 106.84015 105.047283 
L 106.919286 102.312586 
L 106.949723 105.205543 
L 106.943636 100.578549 
L 107.022772 102.518012 
L 107.095821 101.116644 
L 107.079588 104.576107 
L 107.132345 102.840277 
L 107.203365 100.797434 
L 107.21554 105.017475 
L 107.231773 103.371639 
L 107.333229 104.585586 
L 107.254093 100.630214 
L 107.339317 102.997072 
L 107.394103 101.499836 
L 107.444831 104.466514 
L 107.450919 102.040554 
L 107.499618 104.256434 
L 107.467152 100.677846 
L 107.562521 102.746617 
L 107.607162 104.414477 
L 107.574696 99.968868 
L 107.659919 101.834507 
L 107.68224 100.98733 
L 107.718764 104.57886 
L 107.765434 103.167511 
L 107.767463 104.61783 
L 107.858774 101.004059 
L 107.875007 102.166285 
L 107.960231 99.992714 
L 107.879066 104.562442 
L 107.98661 101.357983 
L 108.037338 104.848723 
L 108.081979 100.61799 
L 108.098212 103.310289 
L 108.12662 100.955864 
L 108.177348 104.607927 
L 108.207785 102.466078 
L 108.224018 104.213585 
L 108.226047 100.167806 
L 108.317358 102.46413 
L 108.351853 100.776237 
L 108.386348 104.355001 
L 108.414756 102.59995 
L 108.435048 104.6456 
L 108.418815 100.645801 
L 108.524329 101.354896 
L 108.619699 105.028107 
L 108.544621 100.537613 
L 108.637961 103.621593 
L 108.644048 104.459749 
L 108.749563 100.593942 
L 108.763767 105.02013 
L 108.814495 100.455398 
L 108.861165 101.880457 
L 108.875369 105.00496 
L 108.891602 100.904587 
L 108.970738 102.744535 
L 109.031612 100.132468 
L 109.062049 104.143709 
L 109.078282 101.601692 
L 109.096544 104.719778 
L 109.173651 100.70773 
L 109.189884 102.067435 
L 109.266991 105.139151 
L 109.254817 100.617993 
L 109.299458 104.059763 
L 109.368448 100.464085 
L 109.394827 104.798412 
L 109.409031 102.26153 
L 109.453672 105.170018 
L 109.449613 101.11017 
L 109.520633 104.329317 
L 109.559186 100.67933 
L 109.632235 102.61011 
L 109.687022 104.402035 
L 109.709342 100.268157 
L 109.745867 103.873652 
L 109.76007 100.262924 
L 109.818915 104.049242 
L 109.85544 102.930271 
L 109.900081 104.519463 
L 109.944721 100.66347 
L 109.965013 103.229666 
L 110.015741 101.020697 
L 110.040091 105.126919 
L 110.074586 103.088077 
L 110.167926 101.207342 
L 110.123285 104.25371 
L 110.186188 102.097899 
L 110.283586 100.695793 
L 110.295761 104.24735 
L 110.348519 100.215463 
L 110.407363 103.295285 
L 110.470266 101.079835 
L 110.4865 104.707487 
L 110.518966 102.227203 
L 110.589985 104.327186 
L 110.529111 100.475311 
L 110.628539 102.852051 
L 110.661005 100.697834 
L 110.683325 103.920311 
L 110.738112 102.286774 
L 110.760432 104.381689 
L 110.782753 100.814817 
L 110.849714 102.943867 
L 110.920734 100.713852 
L 110.936967 104.165261 
L 110.961316 102.580037 
L 111.044511 104.493408 
L 110.987695 100.310532 
L 111.072919 104.00279 
L 111.133792 100.666611 
L 111.137851 104.712916 
L 111.184521 102.270001 
L 111.249453 101.245699 
L 111.294094 104.832751 
L 111.401638 101.015191 
L 111.405696 103.054793 
L 111.462512 101.099116 
L 111.413813 104.775275 
L 111.517298 101.499129 
L 111.594405 104.369791 
L 111.545706 100.693212 
L 111.628901 103.377492 
L 111.736445 100.298376 
L 111.655279 104.406683 
L 111.738474 103.46172 
L 111.833843 100.463604 
L 111.764852 104.32858 
L 111.854134 102.217219 
L 111.931241 104.327461 
L 111.925154 100.830205 
L 111.963707 103.935371 
L 111.971824 101.08675 
L 111.988057 104.379615 
L 112.075309 102.483364 
L 112.128067 104.360979 
L 112.124009 100.991331 
L 112.184883 102.309863 
L 112.274164 99.79504 
L 112.209232 104.634893 
L 112.294456 103.315074 
L 112.3533 100.665114 
L 112.371563 104.788359 
L 112.412145 101.33402 
L 112.430407 104.279013 
L 112.456786 100.618394 
L 112.523748 103.21078 
L 112.602884 104.903914 
L 112.627233 100.841567 
L 112.63535 103.407792 
L 112.679991 100.449782 
L 112.706369 105.264937 
L 112.744923 102.656137 
L 112.807826 104.703996 
L 112.82203 100.793022 
L 112.854496 102.727482 
L 112.935661 101.273527 
L 112.949865 104.309486 
L 112.964069 101.325818 
L 112.966098 104.873985 
L 113.012768 101.193892 
L 113.075671 103.477959 
L 113.144662 104.953206 
L 113.179157 101.311161 
L 113.183215 102.310223 
L 113.227856 101.161889 
L 113.205536 104.260486 
L 113.284672 101.384361 
L 113.363808 105.389848 
L 113.396274 103.771834 
L 113.418595 99.630752 
L 113.416565 104.28467 
L 113.505847 103.904425 
L 113.580925 99.903546 
L 113.556575 104.757714 
L 113.619479 101.103506 
L 113.649916 104.948399 
L 113.731081 102.491415 
L 113.735139 104.90497 
L 113.773693 100.311952 
L 113.838625 103.038204 
L 113.909644 100.903304 
L 113.8508 104.295242 
L 113.950227 102.553386 
L 113.994868 100.587962 
L 114.019217 104.549932 
L 114.057771 103.068022 
L 114.149082 104.466975 
L 114.094295 101.270644 
L 114.167344 103.854914 
L 114.222131 104.830393 
L 114.278946 101.267094 
L 114.372286 104.772268 
L 114.402723 103.956315 
L 114.408811 100.338773 
L 114.435189 104.493445 
L 114.512296 101.968417 
L 114.607666 104.541884 
L 114.528529 100.762693 
L 114.623899 103.310841 
L 114.658394 100.530575 
L 114.680714 105.099705 
L 114.735501 101.112033 
L 114.743617 104.266233 
L 114.747676 100.253396 
L 114.849132 102.999875 
L 114.863336 101.02325 
L 114.938414 104.373002 
L 114.952618 103.553096 
L 115.054074 104.568815 
L 115.029725 101.019275 
L 115.062191 104.466813 
L 115.074366 100.616458 
L 115.139298 104.884986 
L 115.173793 101.980412 
L 115.2509 104.611281 
L 115.263075 100.94393 
L 115.283366 104.559845 
L 115.323949 100.613698 
L 115.394969 102.963498 
L 115.413231 104.213195 
L 115.441639 100.016487 
L 115.504542 103.355035 
L 115.597882 104.336689 
L 115.616144 101.376352 
L 115.656727 104.975504 
L 115.711513 100.801911 
L 115.725717 102.723275 
L 115.790649 100.5513 
L 115.78862 104.886188 
L 115.83529 102.715271 
L 115.888048 104.476703 
L 115.916455 100.606773 
L 115.944863 103.431541 
L 115.977329 101.299453 
L 115.971242 104.469169 
L 116.056465 101.32013 
L 116.084873 104.467481 
L 116.125456 100.605967 
L 116.168068 102.266721 
L 116.210679 104.364112 
L 116.251262 101.088545 
L 116.275612 102.946862 
L 116.360835 100.613946 
L 116.293874 105.209598 
L 116.383156 103.241551 
L 116.492729 104.947756 
L 116.393301 100.953667 
L 116.494758 103.493285 
L 116.496787 103.509451 
L 116.498816 102.826281 
L 116.563748 100.983108 
L 116.547515 104.167294 
L 116.60636 102.388277 
L 116.642884 104.867417 
L 116.626651 100.988028 
L 116.715933 102.376117 
L 116.736225 100.689608 
L 116.803186 104.806804 
L 116.821448 103.090741 
L 116.845798 104.558472 
L 116.91073 100.927224 
L 116.926963 102.054609 
L 116.928992 100.770407 
L 117.014216 105.776108 
L 117.036536 102.85995 
L 117.135963 104.438714 
L 117.042623 100.635121 
L 117.142051 103.503558 
L 117.148138 100.933194 
L 117.221187 104.59551 
L 117.253653 102.558648 
L 117.282061 104.850249 
L 117.312498 100.810848 
L 117.361197 103.24255 
L 117.415984 100.780715 
L 117.47077 104.637766 
L 117.545848 100.378746 
L 117.582372 102.516109 
L 117.622955 104.490739 
L 117.606722 100.781753 
L 117.673683 102.617422 
L 117.675712 99.642174 
L 117.679771 104.627271 
L 117.783256 103.000804 
L 117.840072 101.578757 
L 117.862392 104.188122 
L 117.880655 102.140807 
L 117.939499 104.458711 
L 117.947616 100.192518 
L 117.990228 101.054675 
L 118.053131 105.340769 
L 118.012548 100.768015 
L 118.103859 102.99859 
L 118.182995 104.424117 
L 118.1485 100.970854 
L 118.211403 103.38993 
L 118.274306 100.800131 
L 118.318947 104.302047 
L 118.323005 101.663212 
L 118.365617 105.002805 
L 118.343297 100.310278 
L 118.432578 101.875094 
L 118.448811 100.566872 
L 118.501569 104.488728 
L 118.523889 102.901125 
L 118.538093 104.628222 
L 118.596938 99.197891 
L 118.629404 102.859342 
L 118.631433 100.851189 
L 118.678103 104.330092 
L 118.738977 103.936383 
L 118.812026 104.745169 
L 118.791735 100.808706 
L 118.830288 102.710117 
L 118.854638 100.466584 
L 118.905366 104.421696 
L 118.94189 101.874238 
L 119.031172 104.407567 
L 118.952036 100.569608 
L 119.053493 103.378112 
L 119.098134 99.530273 
L 119.100163 104.991261 
L 119.167124 101.754786 
L 119.221911 104.903012 
L 119.250318 100.754332 
L 119.280755 103.906781 
L 119.303076 100.690804 
L 119.38627 104.889128 
L 119.392358 101.996031 
L 119.47961 101.272266 
L 119.439028 104.844091 
L 119.483669 102.71325 
L 119.52628 104.730628 
L 119.556717 101.172789 
L 119.593242 103.155512 
L 119.605416 100.398772 
L 119.615562 104.176384 
L 119.704844 102.946622 
L 119.733252 104.645853 
L 119.765718 101.541464 
L 119.812388 103.383622 
L 119.865145 105.001077 
L 119.92399 100.958006 
L 119.988922 104.523646 
L 119.966602 100.20658 
L 120.035592 102.673517 
L 120.145165 100.801516 
L 120.072117 104.511074 
L 120.147195 102.174947 
L 120.163428 104.577149 
L 120.177632 100.815256 
L 120.258797 103.68969 
L 120.339962 101.068625 
L 120.333875 104.526885 
L 120.370399 101.422841 
L 120.423156 104.081164 
L 120.376486 101.135476 
L 120.48403 103.173838 
L 120.559108 100.201699 
L 120.488089 104.697744 
L 120.587516 102.373684 
L 120.609837 104.191388 
L 120.62607 100.645481 
L 120.697089 102.873013 
L 120.737672 100.457754 
L 120.778254 104.648787 
L 120.806662 101.941281 
L 120.833041 104.752983 
L 120.831012 101.350832 
L 120.916235 102.747348 
L 120.936527 101.485164 
L 120.971022 104.623977 
L 121.023779 102.339932 
L 121.09277 104.606156 
L 121.106974 101.307495 
L 121.135382 103.172207 
L 121.171906 101.082141 
L 121.212489 104.244223 
L 121.23278 101.974682 
L 121.240896 104.383387 
L 121.307858 100.324239 
L 121.344382 104.24517 
L 121.358586 101.148646 
L 121.37279 104.281902 
L 121.455984 103.127855 
L 121.492509 101.256071 
L 121.561499 104.531173 
L 121.585849 100.177748 
L 121.569616 104.889107 
L 121.673101 103.295852 
L 121.750208 101.355292 
L 121.679189 104.447909 
L 121.780645 101.401025 
L 121.851665 104.443176 
L 121.892248 103.586891 
L 121.922685 104.33982 
L 121.971384 100.86046 
L 121.981529 102.833231 
L 122.016025 101.153056 
L 122.074869 104.290181 
L 122.091103 102.351726 
L 122.133714 104.805315 
L 122.107336 100.521889 
L 122.194588 103.210994 
L 122.239229 100.429071 
L 122.267637 104.667268 
L 122.304161 102.518711 
L 122.318365 104.57519 
L 122.40156 101.053631 
L 122.413734 103.105978 
L 122.462434 101.070087 
L 122.498958 104.436257 
L 122.525337 101.933712 
L 122.632881 104.324766 
L 122.533453 99.73439 
L 122.63491 102.287217 
L 122.693755 104.354256 
L 122.716075 101.173403 
L 122.738395 103.28743 
L 122.740425 101.00216 
L 122.752599 104.348677 
L 122.849998 102.383689 
L 122.929134 100.907291 
L 122.908842 104.340351 
L 122.951454 101.851655 
L 122.998124 104.675215 
L 122.996095 101.178003 
L 123.063056 103.148153 
L 123.099581 105.101433 
L 123.069144 101.132246 
L 123.162484 103.882649 
L 123.164513 100.73948 
L 123.196979 104.974473 
L 123.274086 103.038475 
L 123.324814 104.844016 
L 123.385688 100.983337 
L 123.444533 100.542446 
L 123.497291 105.662924 
L 123.572368 99.451775 
L 123.608893 103.097255 
L 123.655563 104.262971 
L 123.698175 100.06271 
L 123.714408 103.367576 
L 123.795573 101.030324 
L 123.811806 104.514133 
L 123.823981 102.918129 
L 123.842243 105.167672 
L 123.852389 100.377014 
L 123.931525 103.990945 
L 123.994428 100.614397 
L 124.039069 104.964376 
L 124.043127 102.368011 
L 124.049214 101.249117 
L 124.073564 104.182397 
L 124.1527 102.229731 
L 124.213574 104.707526 
L 124.17705 100.982568 
L 124.262273 101.92562 
L 124.31706 104.322784 
L 124.315031 100.594997 
L 124.367788 101.847721 
L 124.390108 100.806112 
L 124.436779 104.942727 
L 124.469245 103.052112 
L 124.558526 101.009983 
L 124.578818 104.571855 
L 124.615342 100.160965 
L 124.692449 100.970035 
L 124.724915 104.675077 
L 124.804051 103.249684 
L 124.820284 100.444285 
L 124.846663 104.208022 
L 124.913624 102.820018 
L 124.968411 105.086603 
L 124.954207 101.353085 
L 125.025227 103.42875 
L 125.118567 100.96138 
L 125.06378 104.825265 
L 125.1348 103.949731 
L 125.183499 100.256866 
L 125.18147 105.231152 
L 125.248431 102.959207 
L 125.301189 104.840004 
L 125.335684 100.933257 
L 125.351917 101.856053 
L 125.439169 100.760757 
L 125.39047 104.012307 
L 125.459461 102.377913 
L 125.471636 104.057671 
L 125.473665 100.306636 
L 125.571063 103.27303 
L 125.627879 100.631562 
L 125.581209 104.506856 
L 125.682665 102.921092 
L 125.794267 104.322934 
L 125.71919 100.769039 
L 125.796297 104.133971 
L 125.877462 101.112567 
L 125.824704 104.675303 
L 125.918045 102.674328 
L 126.013414 101.320376 
L 126.029647 105.84 
L 126.108783 100.982056 
L 126.141249 103.266092 
L 126.167628 100.904891 
L 126.230531 104.993109 
L 126.248793 103.297972 
L 126.250822 104.819713 
L 126.338075 101.009211 
L 126.356337 103.237311 
L 126.403007 100.765876 
L 126.390832 104.705629 
L 126.46591 102.775205 
L 126.524755 101.743318 
L 126.575483 104.496364 
L 126.624182 100.170826 
L 126.616066 104.913795 
L 126.687085 103.435858 
L 126.776367 100.78465 
L 126.727668 104.468094 
L 126.798688 102.312604 
L 126.908261 104.837243 
L 126.845358 101.392083 
L 126.91029 104.078381 
L 126.912319 101.115234 
L 126.952902 104.483779 
L 127.019863 101.495513 
L 127.066533 104.039554 
L 127.09697 100.816894 
L 127.131465 102.707977 
L 127.228863 100.26273 
L 127.220747 104.626061 
L 127.245096 101.836746 
L 127.279592 104.500667 
L 127.348582 101.19011 
L 127.358728 103.555733 
L 127.42366 101.051779 
L 127.383077 104.289858 
L 127.468301 104.092179 
L 127.486563 100.80037 
L 127.529175 104.303693 
L 127.585991 102.720021 
L 127.677302 104.423169 
L 127.608311 101.15138 
L 127.693535 103.134637 
L 127.784845 99.360405 
L 127.788904 104.501405 
L 127.803108 103.425062 
L 127.805137 105.240344 
L 127.837603 100.610268 
L 127.912681 102.137255 
L 127.93703 105.061263 
L 127.973555 100.7985 
L 128.024283 102.864134 
L 128.066895 100.854701 
L 128.048633 104.647286 
L 128.133856 101.602767 
L 128.221109 105.372799 
L 128.168351 100.935542 
L 128.245458 103.420422 
L 128.320536 101.507177 
L 128.302274 104.423805 
L 128.348944 102.756101 
L 128.350973 104.985799 
L 128.383439 101.382353 
L 128.458517 103.600571 
L 128.507216 100.807994 
L 128.466634 104.602461 
L 128.570119 103.013401 
L 128.574178 100.665023 
L 128.584323 104.423067 
L 128.679692 103.373687 
L 128.750712 104.596927 
L 128.734479 100.899428 
L 128.787236 102.479089 
L 128.85014 101.014138 
L 128.844052 104.444562 
L 128.89681 101.185857 
L 128.996237 104.985188 
L 128.9658 100.112577 
L 129.008412 103.815659 
L 129.091606 100.425521 
L 129.030732 104.427209 
L 129.117985 102.700915 
L 129.15248 104.534403 
L 129.132189 100.567117 
L 129.227558 102.049724 
L 129.282345 104.161922 
L 129.243791 100.649979 
L 129.337131 102.793781 
L 129.434529 100.444969 
L 129.361481 104.377292 
L 129.446704 102.129843 
L 129.450762 104.580038 
L 129.462937 99.874425 
L 129.556277 103.526247 
L 129.600918 100.523094 
L 129.560336 104.340623 
L 129.66585 100.717933 
L 129.669909 104.539359 
L 129.775423 102.742111 
L 129.85253 99.1586 
L 129.874851 104.710766 
L 129.884997 101.724744 
L 129.972249 104.512762 
L 129.951958 100.784559 
L 129.998628 103.45426 
L 130.010803 100.960095 
L 130.051385 104.425152 
L 130.108201 102.432458 
L 130.152842 104.861889 
L 130.195454 100.557387 
L 130.217774 102.957921 
L 130.254298 100.676188 
L 130.288794 104.394493 
L 130.327347 102.40156 
L 130.374017 104.735104 
L 130.386192 100.846272 
L 130.434891 103.843718 
L 130.455183 100.771964 
L 130.499823 104.7651 
L 130.544464 104.269107 
L 130.619542 100.875368 
L 130.548523 104.786273 
L 130.658096 103.19228 
L 130.676358 104.55889 
L 130.692591 101.375241 
L 130.751436 102.128202 
L 130.792018 100.738968 
L 130.83463 104.785327 
L 130.85898 101.616104 
L 130.934058 104.839267 
L 130.877242 100.50269 
L 130.970582 103.187088 
L 130.972611 100.000057 
L 131.017252 104.448973 
L 131.082184 101.929252 
L 131.171466 100.509527 
L 131.120738 104.792166 
L 131.189728 101.627965 
L 131.295243 104.04739 
L 131.250602 101.011526 
L 131.30133 102.424439 
L 131.327709 104.909566 
L 131.337855 99.53385 
L 131.408874 103.193278 
L 131.473807 100.011028 
L 131.437282 104.536906 
L 131.520477 102.676829 
L 131.595554 101.068457 
L 131.575263 104.515937 
L 131.63005 101.572221 
L 131.656428 104.392978 
L 131.737594 100.135156 
L 131.741652 104.15702 
L 131.794409 100.963941 
L 131.845138 104.517664 
L 131.853254 101.558217 
L 131.897895 105.016068 
L 131.920215 100.388639 
L 131.964856 103.780345 
L 131.977031 100.467366 
L 132.056167 104.450506 
L 132.076459 101.832093 
L 132.110954 105.143125 
L 132.179944 99.876138 
L 132.188061 103.145429 
L 132.252993 101.181863 
L 132.244876 104.601435 
L 132.297634 101.459901 
L 132.321983 104.741055 
L 132.382857 100.542781 
L 132.409236 102.734753 
L 132.488372 104.580352 
L 132.421411 100.780322 
L 132.520838 103.961306 
L 132.557363 100.978557 
L 132.569538 105.35588 
L 132.632441 103.07095 
L 132.693315 101.627523 
L 132.65679 104.775948 
L 132.744043 101.999227 
L 132.833325 105.207142 
L 132.770422 100.847034 
L 132.853616 102.754453 
L 132.920577 100.838317 
L 132.955073 104.251351 
L 132.96116 102.838906 
L 133.005801 104.256663 
L 132.977393 100.832975 
L 133.074791 104.136927 
L 133.174219 101.189886 
L 133.137694 104.315755 
L 133.186394 102.06308 
L 133.255384 100.38244 
L 133.263501 104.787547 
L 133.291908 101.923196 
L 133.340607 104.57428 
L 133.383219 100.722054 
L 133.403511 103.704186 
L 133.462355 100.722069 
L 133.458297 104.469875 
L 133.515113 103.260324 
L 133.584103 100.710092 
L 133.565841 104.704301 
L 133.606424 103.035493 
L 133.608453 104.791817 
L 133.642948 100.938871 
L 133.715997 103.128794 
L 133.756579 100.292854 
L 133.726142 104.900905 
L 133.831657 101.682513 
L 133.856007 104.680842 
L 133.892531 100.571005 
L 133.94326 103.373623 
L 133.953405 100.779679 
L 133.979784 104.202028 
L 134.052833 102.863386 
L 134.089357 104.994189 
L 134.095444 100.865405 
L 134.158347 102.335624 
L 134.174581 100.241641 
L 134.253717 105.207338 
L 134.26995 102.033329 
L 134.302416 104.570327 
L 134.320678 100.292269 
L 134.379523 102.424444 
L 134.38561 100.664495 
L 134.45663 104.872107 
L 134.489096 102.635313 
L 134.574319 104.46102 
L 134.556057 101.259225 
L 134.602727 103.775057 
L 134.614902 104.975532 
L 134.637223 101.221857 
L 134.694038 102.495209 
L 134.696067 101.030886 
L 134.708242 104.454673 
L 134.80564 101.080871 
L 134.870573 105.242097 
L 134.836077 100.580503 
L 134.915214 103.754438 
L 134.955796 100.872631 
L 135.024787 104.241866 
L 135.026816 103.020988 
L 135.079573 101.003558 
L 135.112039 104.921595 
L 135.124214 101.787289 
L 135.197263 104.806616 
L 135.183059 100.583615 
L 135.235816 103.029009 
L 135.302778 104.712613 
L 135.243933 99.852408 
L 135.337273 103.370912 
L 135.4367 100.877114 
L 135.41438 105.152435 
L 135.446846 102.012928 
L 135.546273 104.466668 
L 135.525982 101.15625 
L 135.558448 103.42393 
L 135.641643 100.702085 
L 135.64773 104.646044 
L 135.657876 101.999196 
L 135.659905 105.043216 
L 135.726866 100.150022 
L 135.769478 104.141968 
L 135.791798 100.342131 
L 135.777594 104.784208 
L 135.883109 102.795385 
L 135.929779 104.40445 
L 135.941954 100.126618 
L 135.986595 103.366518 
L 136.096168 100.566741 
L 136.063702 104.999342 
L 136.098197 102.879667 
L 136.116459 100.212213 
L 136.108343 104.383418 
L 136.20777 103.518204 
L 136.213858 103.428604 
L 136.215887 103.537886 
L 136.303139 101.118987 
L 136.230091 105.662516 
L 136.327489 102.961284 
L 136.364013 100.410149 
L 136.437062 104.493913 
L 136.479674 99.865117 
L 136.491849 104.49633 
L 136.548664 103.336561 
L 136.550694 101.049361 
L 136.648092 104.376663 
L 136.660267 102.516457 
L 136.757665 104.306678 
L 136.759694 101.284865 
L 136.771869 103.003077 
L 136.83883 100.783575 
L 136.877384 104.175727 
L 136.881442 103.030877 
L 136.903762 101.583548 
L 136.897675 104.181554 
L 136.905792 101.607552 
L 136.907821 101.077316 
L 136.958549 104.972476 
L 137.009277 102.273764 
L 137.037685 104.644497 
L 137.027539 100.607533 
L 137.120879 103.341523 
L 137.216249 104.562847 
L 137.230453 100.624242 
L 137.250744 104.730079 
L 137.342055 102.333553 
L 137.37655 104.139075 
L 137.390754 100.786172 
L 137.437424 102.35406 
L 137.445541 100.030248 
L 137.457715 103.963033 
L 137.546997 103.748042 
L 137.638308 100.749912 
L 137.613958 104.509433 
L 137.65657 102.348115 
L 137.729619 104.496781 
L 137.709328 100.610844 
L 137.768172 103.588621 
L 137.776289 100.847619 
L 137.835134 104.382015 
L 137.879775 102.433755 
L 137.906153 105.203314 
L 137.920357 100.252448 
L 137.989348 104.462405 
L 138.02993 100.557822 
L 138.027901 104.942525 
L 138.10095 101.221423 
L 138.212552 103.94623 
L 138.202407 100.879681 
L 138.214581 103.670042 
L 138.228785 101.00219 
L 138.251106 104.055315 
L 138.326184 102.896604 
L 138.374883 104.660121 
L 138.423582 99.987792 
L 138.435757 102.138378 
L 138.45199 104.705987 
L 138.466194 101.092313 
L 138.549388 103.548789 
L 138.616349 99.951993 
L 138.654903 104.494517 
L 138.66099 102.455932 
L 138.73201 104.735921 
L 138.760418 100.984069 
L 138.772593 103.76973 
L 138.809117 100.13936 
L 138.837525 104.811527 
L 138.884195 102.966495 
L 138.886224 104.79481 
L 138.89434 101.12614 
L 138.993768 102.80472 
L 139.048554 101.164771 
L 139.03638 104.690796 
L 139.103341 101.493958 
L 139.166244 104.340778 
L 139.147982 100.898725 
L 139.212914 103.362258 
L 139.263642 100.731029 
L 139.216972 104.546025 
L 139.324516 102.350676 
L 139.421915 104.683054 
L 139.393507 100.570738 
L 139.434089 102.103804 
L 139.486847 101.370139 
L 139.517284 104.462154 
L 139.533517 101.540117 
L 139.543662 104.757571 
L 139.604536 101.493108 
L 139.645119 104.128768 
L 139.697876 101.161572 
L 139.673527 104.540017 
L 139.75875 102.205757 
L 139.789187 104.663779 
L 139.837887 100.320669 
L 139.868324 104.04673 
L 139.949489 100.976271 
L 139.90079 104.408851 
L 139.979926 102.554192 
L 140.026596 100.80053 
L 140.08747 105.428853 
L 140.160518 100.862118 
L 140.199072 103.719025 
L 140.20313 104.305385 
L 140.233567 101.714341 
L 140.241684 102.241615 
L 140.266033 101.467159 
L 140.253858 104.286847 
L 140.341111 102.913762 
L 140.391839 104.583348 
L 140.430393 100.192768 
L 140.450684 102.665448 
L 140.533879 100.348989 
L 140.481121 104.135891 
L 140.562286 102.421795 
L 140.665772 104.630457 
L 140.594753 100.608391 
L 140.67186 103.736535 
L 140.692151 99.94024 
L 140.728675 104.477645 
L 140.785491 101.80153 
L 140.852452 104.42782 
L 140.819986 101.014245 
L 140.874773 101.945617 
" clip-path="url(#pb563e74177)" style="fill: none; stroke: #46327e; stroke-linecap: square"/>
   </g>
   <g id="patch_3">
    <path d="M 34.3475 110.88 
L 34.3475 -0 
" style="fill: none; stroke: #000000; stroke-width: 0.8; stroke-linejoin: miter; stroke-linecap: square"/>
   </g>
   <g id="patch_4">
    <path d="M 34.3475 110.88 
L 145.9475 110.88 
" style="fill: none; stroke: #000000; stroke-width: 0.8; stroke-linejoin: miter; stroke-linecap: square"/>
   </g>
  </g>
 </g>
 <defs>
  <clipPath id="pb563e74177">
   <rect x="34.3475" y="-0" width="111.6" height="110.88"/>
  </clipPath>
 </defs>
</svg>
