<?xml version="1.0" encoding="utf-8" standalone="no"?>
<!DOCTYPE svg PUBLIC "-//W3C//DTD SVG 1.1//EN"
  "http://www.w3.org/Graphics/SVG/1.1/DTD/svg11.dtd">
<svg xmlns:xlink="http://www.w3.org/1999/xlink" width="229.27875pt" height="136.60625pt" viewBox="0 0 229.27875 136.60625" xmlns="http://www.w3.org/2000/svg" version="1.1">
 <metadata>
  <rdf:RDF xmlns:dc="http://purl.org/dc/elements/1.1/" xmlns:cc="http://creativecommons.org/ns#" xmlns:rdf="http://www.w3.org/1999/02/22-rdf-syntax-ns#">
   <cc:Work>
    <dc:type rdf:resource="http://purl.org/dc/dcmitype/StillImage"/>
    <dc:date>2024-11-27T00:05:18.086705</dc:date>
    <dc:format>image/svg+xml</dc:format>
    <dc:creator>
     <cc:Agent>
      <dc:title>Matplotlib v3.9.2, https://matplotlib.org/</dc:title>
     </cc:Agent>
    </dc:creator>
   </cc:Work>
  </rdf:RDF>
 </metadata>
 <defs>
  <style type="text/css">*{stroke-linejoin: round; stroke-linecap: butt}</style>
 </defs>
 <g id="figure_1">
  <g id="patch_1">
   <path d="M 0 136.60625 
L 229.27875 136.60625 
L 229.27875 0 
L 0 0 
L 0 136.60625 
z
" style="fill: none"/>
  </g>
  <g id="axes_1">
   <g id="patch_2">
    <path d="M 33.97875 110.88 
L 229.27875 110.88 
L 229.27875 0 
L 33.97875 0 
L 33.97875 110.88 
z
" style="fill: none"/>
   </g>
   <g id="matplotlib.axis_1">
    <g id="xtick_1">
     <g id="line2d_1">
      <defs>
       <path id="mb78aeda78a" d="M 0 0 
L 0 3.5 
" style="stroke: #000000; stroke-width: 0.8"/>
      </defs>
      <g>
       <use xlink:href="#mb78aeda78a" x="42.856023" y="110.88" style="stroke: #000000; stroke-width: 0.8"/>
      </g>
     </g>
     <g id="text_1">
      <!-- 0 -->
      <g transform="translate(40.631648 123.60625) scale(0.08 -0.08)">
       <defs>
        <path id="ArialMT-30" d="M 266 2259 
Q 266 3072 433 3567 
Q 600 4063 929 4331 
Q 1259 4600 1759 4600 
Q 2128 4600 2406 4451 
Q 2684 4303 2865 4023 
Q 3047 3744 3150 3342 
Q 3253 2941 3253 2259 
Q 3253 1453 3087 958 
Q 2922 463 2592 192 
Q 2263 -78 1759 -78 
Q 1097 -78 719 397 
Q 266 969 266 2259 
z
M 844 2259 
Q 844 1131 1108 757 
Q 1372 384 1759 384 
Q 2147 384 2411 759 
Q 2675 1134 2675 2259 
Q 2675 3391 2411 3762 
Q 2147 4134 1753 4134 
Q 1366 4134 1134 3806 
Q 844 3388 844 2259 
z
" transform="scale(0.015625)"/>
       </defs>
       <use xlink:href="#ArialMT-30"/>
      </g>
     </g>
    </g>
    <g id="xtick_2">
     <g id="line2d_2">
      <g>
       <use xlink:href="#mb78aeda78a" x="78.723791" y="110.88" style="stroke: #000000; stroke-width: 0.8"/>
      </g>
     </g>
     <g id="text_2">
      <!-- 20 -->
      <g transform="translate(74.275041 123.60625) scale(0.08 -0.08)">
       <defs>
        <path id="ArialMT-32" d="M 3222 541 
L 3222 0 
L 194 0 
Q 188 203 259 391 
Q 375 700 629 1000 
Q 884 1300 1366 1694 
Q 2113 2306 2375 2664 
Q 2638 3022 2638 3341 
Q 2638 3675 2398 3904 
Q 2159 4134 1775 4134 
Q 1369 4134 1125 3890 
Q 881 3647 878 3216 
L 300 3275 
Q 359 3922 746 4261 
Q 1134 4600 1788 4600 
Q 2447 4600 2831 4234 
Q 3216 3869 3216 3328 
Q 3216 3053 3103 2787 
Q 2991 2522 2730 2228 
Q 2469 1934 1863 1422 
Q 1356 997 1212 845 
Q 1069 694 975 541 
L 3222 541 
z
" transform="scale(0.015625)"/>
       </defs>
       <use xlink:href="#ArialMT-32"/>
       <use xlink:href="#ArialMT-30" x="55.615234"/>
      </g>
     </g>
    </g>
    <g id="xtick_3">
     <g id="line2d_3">
      <g>
       <use xlink:href="#mb78aeda78a" x="114.59156" y="110.88" style="stroke: #000000; stroke-width: 0.8"/>
      </g>
     </g>
     <g id="text_3">
      <!-- 40 -->
      <g transform="translate(110.14281 123.60625) scale(0.08 -0.08)">
       <defs>
        <path id="ArialMT-34" d="M 2069 0 
L 2069 1097 
L 81 1097 
L 81 1613 
L 2172 4581 
L 2631 4581 
L 2631 1613 
L 3250 1613 
L 3250 1097 
L 2631 1097 
L 2631 0 
L 2069 0 
z
M 2069 1613 
L 2069 3678 
L 634 1613 
L 2069 1613 
z
" transform="scale(0.015625)"/>
       </defs>
       <use xlink:href="#ArialMT-34"/>
       <use xlink:href="#ArialMT-30" x="55.615234"/>
      </g>
     </g>
    </g>
    <g id="xtick_4">
     <g id="line2d_4">
      <g>
       <use xlink:href="#mb78aeda78a" x="150.459329" y="110.88" style="stroke: #000000; stroke-width: 0.8"/>
      </g>
     </g>
     <g id="text_4">
      <!-- 60 -->
      <g transform="translate(146.010579 123.60625) scale(0.08 -0.08)">
       <defs>
        <path id="ArialMT-36" d="M 3184 3459 
L 2625 3416 
Q 2550 3747 2413 3897 
Q 2184 4138 1850 4138 
Q 1581 4138 1378 3988 
Q 1113 3794 959 3422 
Q 806 3050 800 2363 
Q 1003 2672 1297 2822 
Q 1591 2972 1913 2972 
Q 2475 2972 2870 2558 
Q 3266 2144 3266 1488 
Q 3266 1056 3080 686 
Q 2894 316 2569 119 
Q 2244 -78 1831 -78 
Q 1128 -78 684 439 
Q 241 956 241 2144 
Q 241 3472 731 4075 
Q 1159 4600 1884 4600 
Q 2425 4600 2770 4297 
Q 3116 3994 3184 3459 
z
M 888 1484 
Q 888 1194 1011 928 
Q 1134 663 1356 523 
Q 1578 384 1822 384 
Q 2178 384 2434 671 
Q 2691 959 2691 1453 
Q 2691 1928 2437 2201 
Q 2184 2475 1800 2475 
Q 1419 2475 1153 2201 
Q 888 1928 888 1484 
z
" transform="scale(0.015625)"/>
       </defs>
       <use xlink:href="#ArialMT-36"/>
       <use xlink:href="#ArialMT-30" x="55.615234"/>
      </g>
     </g>
    </g>
    <g id="xtick_5">
     <g id="line2d_5">
      <g>
       <use xlink:href="#mb78aeda78a" x="186.327097" y="110.88" style="stroke: #000000; stroke-width: 0.8"/>
      </g>
     </g>
     <g id="text_5">
      <!-- 80 -->
      <g transform="translate(181.878347 123.60625) scale(0.08 -0.08)">
       <defs>
        <path id="ArialMT-38" d="M 1131 2484 
Q 781 2613 612 2850 
Q 444 3088 444 3419 
Q 444 3919 803 4259 
Q 1163 4600 1759 4600 
Q 2359 4600 2725 4251 
Q 3091 3903 3091 3403 
Q 3091 3084 2923 2848 
Q 2756 2613 2416 2484 
Q 2838 2347 3058 2040 
Q 3278 1734 3278 1309 
Q 3278 722 2862 322 
Q 2447 -78 1769 -78 
Q 1091 -78 675 323 
Q 259 725 259 1325 
Q 259 1772 486 2073 
Q 713 2375 1131 2484 
z
M 1019 3438 
Q 1019 3113 1228 2906 
Q 1438 2700 1772 2700 
Q 2097 2700 2305 2904 
Q 2513 3109 2513 3406 
Q 2513 3716 2298 3927 
Q 2084 4138 1766 4138 
Q 1444 4138 1231 3931 
Q 1019 3725 1019 3438 
z
M 838 1322 
Q 838 1081 952 856 
Q 1066 631 1291 507 
Q 1516 384 1775 384 
Q 2178 384 2440 643 
Q 2703 903 2703 1303 
Q 2703 1709 2433 1975 
Q 2163 2241 1756 2241 
Q 1359 2241 1098 1978 
Q 838 1716 838 1322 
z
" transform="scale(0.015625)"/>
       </defs>
       <use xlink:href="#ArialMT-38"/>
       <use xlink:href="#ArialMT-30" x="55.615234"/>
      </g>
     </g>
    </g>
    <g id="xtick_6">
     <g id="line2d_6">
      <g>
       <use xlink:href="#mb78aeda78a" x="222.194866" y="110.88" style="stroke: #000000; stroke-width: 0.8"/>
      </g>
     </g>
     <g id="text_6">
      <!-- 100 -->
      <g transform="translate(215.521741 123.60625) scale(0.08 -0.08)">
       <defs>
        <path id="ArialMT-31" d="M 2384 0 
L 1822 0 
L 1822 3584 
Q 1619 3391 1289 3197 
Q 959 3003 697 2906 
L 697 3450 
Q 1169 3672 1522 3987 
Q 1875 4303 2022 4600 
L 2384 4600 
L 2384 0 
z
" transform="scale(0.015625)"/>
       </defs>
       <use xlink:href="#ArialMT-31"/>
       <use xlink:href="#ArialMT-30" x="55.615234"/>
       <use xlink:href="#ArialMT-30" x="111.230469"/>
      </g>
     </g>
    </g>
    <g id="text_7">
     <!-- Trajectory Time -->
     <g transform="translate(104.219375 134.9225) scale(0.08 -0.08)">
      <defs>
       <path id="ArialMT-54" d="M 1659 0 
L 1659 4041 
L 150 4041 
L 150 4581 
L 3781 4581 
L 3781 4041 
L 2266 4041 
L 2266 0 
L 1659 0 
z
" transform="scale(0.015625)"/>
       <path id="ArialMT-72" d="M 416 0 
L 416 3319 
L 922 3319 
L 922 2816 
Q 1116 3169 1280 3281 
Q 1444 3394 1641 3394 
Q 1925 3394 2219 3213 
L 2025 2691 
Q 1819 2813 1613 2813 
Q 1428 2813 1281 2702 
Q 1134 2591 1072 2394 
Q 978 2094 978 1738 
L 978 0 
L 416 0 
z
" transform="scale(0.015625)"/>
       <path id="ArialMT-61" d="M 2588 409 
Q 2275 144 1986 34 
Q 1697 -75 1366 -75 
Q 819 -75 525 192 
Q 231 459 231 875 
Q 231 1119 342 1320 
Q 453 1522 633 1644 
Q 813 1766 1038 1828 
Q 1203 1872 1538 1913 
Q 2219 1994 2541 2106 
Q 2544 2222 2544 2253 
Q 2544 2597 2384 2738 
Q 2169 2928 1744 2928 
Q 1347 2928 1158 2789 
Q 969 2650 878 2297 
L 328 2372 
Q 403 2725 575 2942 
Q 747 3159 1072 3276 
Q 1397 3394 1825 3394 
Q 2250 3394 2515 3294 
Q 2781 3194 2906 3042 
Q 3031 2891 3081 2659 
Q 3109 2516 3109 2141 
L 3109 1391 
Q 3109 606 3145 398 
Q 3181 191 3288 0 
L 2700 0 
Q 2613 175 2588 409 
z
M 2541 1666 
Q 2234 1541 1622 1453 
Q 1275 1403 1131 1340 
Q 988 1278 909 1158 
Q 831 1038 831 891 
Q 831 666 1001 516 
Q 1172 366 1500 366 
Q 1825 366 2078 508 
Q 2331 650 2450 897 
Q 2541 1088 2541 1459 
L 2541 1666 
z
" transform="scale(0.015625)"/>
       <path id="ArialMT-6a" d="M 419 3928 
L 419 4581 
L 981 4581 
L 981 3928 
L 419 3928 
z
M -294 -1288 
L -188 -809 
Q -19 -853 78 -853 
Q 250 -853 334 -739 
Q 419 -625 419 -169 
L 419 3319 
L 981 3319 
L 981 -181 
Q 981 -794 822 -1034 
Q 619 -1347 147 -1347 
Q -81 -1347 -294 -1288 
z
" transform="scale(0.015625)"/>
       <path id="ArialMT-65" d="M 2694 1069 
L 3275 997 
Q 3138 488 2766 206 
Q 2394 -75 1816 -75 
Q 1088 -75 661 373 
Q 234 822 234 1631 
Q 234 2469 665 2931 
Q 1097 3394 1784 3394 
Q 2450 3394 2872 2941 
Q 3294 2488 3294 1666 
Q 3294 1616 3291 1516 
L 816 1516 
Q 847 969 1125 678 
Q 1403 388 1819 388 
Q 2128 388 2347 550 
Q 2566 713 2694 1069 
z
M 847 1978 
L 2700 1978 
Q 2663 2397 2488 2606 
Q 2219 2931 1791 2931 
Q 1403 2931 1139 2672 
Q 875 2413 847 1978 
z
" transform="scale(0.015625)"/>
       <path id="ArialMT-63" d="M 2588 1216 
L 3141 1144 
Q 3050 572 2676 248 
Q 2303 -75 1759 -75 
Q 1078 -75 664 370 
Q 250 816 250 1647 
Q 250 2184 428 2587 
Q 606 2991 970 3192 
Q 1334 3394 1763 3394 
Q 2303 3394 2647 3120 
Q 2991 2847 3088 2344 
L 2541 2259 
Q 2463 2594 2264 2762 
Q 2066 2931 1784 2931 
Q 1359 2931 1093 2626 
Q 828 2322 828 1663 
Q 828 994 1084 691 
Q 1341 388 1753 388 
Q 2084 388 2306 591 
Q 2528 794 2588 1216 
z
" transform="scale(0.015625)"/>
       <path id="ArialMT-74" d="M 1650 503 
L 1731 6 
Q 1494 -44 1306 -44 
Q 1000 -44 831 53 
Q 663 150 594 308 
Q 525 466 525 972 
L 525 2881 
L 113 2881 
L 113 3319 
L 525 3319 
L 525 4141 
L 1084 4478 
L 1084 3319 
L 1650 3319 
L 1650 2881 
L 1084 2881 
L 1084 941 
Q 1084 700 1114 631 
Q 1144 563 1211 522 
Q 1278 481 1403 481 
Q 1497 481 1650 503 
z
" transform="scale(0.015625)"/>
       <path id="ArialMT-6f" d="M 213 1659 
Q 213 2581 725 3025 
Q 1153 3394 1769 3394 
Q 2453 3394 2887 2945 
Q 3322 2497 3322 1706 
Q 3322 1066 3130 698 
Q 2938 331 2570 128 
Q 2203 -75 1769 -75 
Q 1072 -75 642 372 
Q 213 819 213 1659 
z
M 791 1659 
Q 791 1022 1069 705 
Q 1347 388 1769 388 
Q 2188 388 2466 706 
Q 2744 1025 2744 1678 
Q 2744 2294 2464 2611 
Q 2184 2928 1769 2928 
Q 1347 2928 1069 2612 
Q 791 2297 791 1659 
z
" transform="scale(0.015625)"/>
       <path id="ArialMT-79" d="M 397 -1278 
L 334 -750 
Q 519 -800 656 -800 
Q 844 -800 956 -737 
Q 1069 -675 1141 -563 
Q 1194 -478 1313 -144 
Q 1328 -97 1363 -6 
L 103 3319 
L 709 3319 
L 1400 1397 
Q 1534 1031 1641 628 
Q 1738 1016 1872 1384 
L 2581 3319 
L 3144 3319 
L 1881 -56 
Q 1678 -603 1566 -809 
Q 1416 -1088 1222 -1217 
Q 1028 -1347 759 -1347 
Q 597 -1347 397 -1278 
z
" transform="scale(0.015625)"/>
       <path id="ArialMT-20" transform="scale(0.015625)"/>
       <path id="ArialMT-69" d="M 425 3934 
L 425 4581 
L 988 4581 
L 988 3934 
L 425 3934 
z
M 425 0 
L 425 3319 
L 988 3319 
L 988 0 
L 425 0 
z
" transform="scale(0.015625)"/>
       <path id="ArialMT-6d" d="M 422 0 
L 422 3319 
L 925 3319 
L 925 2853 
Q 1081 3097 1340 3245 
Q 1600 3394 1931 3394 
Q 2300 3394 2536 3241 
Q 2772 3088 2869 2813 
Q 3263 3394 3894 3394 
Q 4388 3394 4653 3120 
Q 4919 2847 4919 2278 
L 4919 0 
L 4359 0 
L 4359 2091 
Q 4359 2428 4304 2576 
Q 4250 2725 4106 2815 
Q 3963 2906 3769 2906 
Q 3419 2906 3187 2673 
Q 2956 2441 2956 1928 
L 2956 0 
L 2394 0 
L 2394 2156 
Q 2394 2531 2256 2718 
Q 2119 2906 1806 2906 
Q 1569 2906 1367 2781 
Q 1166 2656 1075 2415 
Q 984 2175 984 1722 
L 984 0 
L 422 0 
z
" transform="scale(0.015625)"/>
      </defs>
      <use xlink:href="#ArialMT-54"/>
      <use xlink:href="#ArialMT-72" x="57.333984"/>
      <use xlink:href="#ArialMT-61" x="90.634766"/>
      <use xlink:href="#ArialMT-6a" x="146.25"/>
      <use xlink:href="#ArialMT-65" x="168.466797"/>
      <use xlink:href="#ArialMT-63" x="224.082031"/>
      <use xlink:href="#ArialMT-74" x="274.082031"/>
      <use xlink:href="#ArialMT-6f" x="301.865234"/>
      <use xlink:href="#ArialMT-72" x="357.480469"/>
      <use xlink:href="#ArialMT-79" x="390.78125"/>
      <use xlink:href="#ArialMT-20" x="440.78125"/>
      <use xlink:href="#ArialMT-54" x="466.814453"/>
      <use xlink:href="#ArialMT-69" x="524.148438"/>
      <use xlink:href="#ArialMT-6d" x="546.365234"/>
      <use xlink:href="#ArialMT-65" x="629.666016"/>
     </g>
    </g>
   </g>
   <g id="matplotlib.axis_2">
    <g id="ytick_1">
     <g id="line2d_7">
      <defs>
       <path id="m0c5b2b2884" d="M 0 0 
L -3.5 0 
" style="stroke: #000000; stroke-width: 0.8"/>
      </defs>
      <g>
       <use xlink:href="#m0c5b2b2884" x="33.97875" y="105.84" style="stroke: #000000; stroke-width: 0.8"/>
      </g>
     </g>
     <g id="text_8">
      <!-- 0.00 -->
      <g transform="translate(11.41 108.703125) scale(0.08 -0.08)">
       <defs>
        <path id="ArialMT-2e" d="M 581 0 
L 581 641 
L 1222 641 
L 1222 0 
L 581 0 
z
" transform="scale(0.015625)"/>
       </defs>
       <use xlink:href="#ArialMT-30"/>
       <use xlink:href="#ArialMT-2e" x="55.615234"/>
       <use xlink:href="#ArialMT-30" x="83.398438"/>
       <use xlink:href="#ArialMT-30" x="139.013672"/>
      </g>
     </g>
    </g>
    <g id="ytick_2">
     <g id="line2d_8">
      <g>
       <use xlink:href="#m0c5b2b2884" x="33.97875" y="83.753107" style="stroke: #000000; stroke-width: 0.8"/>
      </g>
     </g>
     <g id="text_9">
      <!-- 0.25 -->
      <g transform="translate(11.41 86.616232) scale(0.08 -0.08)">
       <defs>
        <path id="ArialMT-35" d="M 266 1200 
L 856 1250 
Q 922 819 1161 601 
Q 1400 384 1738 384 
Q 2144 384 2425 690 
Q 2706 997 2706 1503 
Q 2706 1984 2436 2262 
Q 2166 2541 1728 2541 
Q 1456 2541 1237 2417 
Q 1019 2294 894 2097 
L 366 2166 
L 809 4519 
L 3088 4519 
L 3088 3981 
L 1259 3981 
L 1013 2750 
Q 1425 3038 1878 3038 
Q 2478 3038 2890 2622 
Q 3303 2206 3303 1553 
Q 3303 931 2941 478 
Q 2500 -78 1738 -78 
Q 1113 -78 717 272 
Q 322 622 266 1200 
z
" transform="scale(0.015625)"/>
       </defs>
       <use xlink:href="#ArialMT-30"/>
       <use xlink:href="#ArialMT-2e" x="55.615234"/>
       <use xlink:href="#ArialMT-32" x="83.398438"/>
       <use xlink:href="#ArialMT-35" x="139.013672"/>
      </g>
     </g>
    </g>
    <g id="ytick_3">
     <g id="line2d_9">
      <g>
       <use xlink:href="#m0c5b2b2884" x="33.97875" y="61.666215" style="stroke: #000000; stroke-width: 0.8"/>
      </g>
     </g>
     <g id="text_10">
      <!-- 0.50 -->
      <g transform="translate(11.41 64.52934) scale(0.08 -0.08)">
       <use xlink:href="#ArialMT-30"/>
       <use xlink:href="#ArialMT-2e" x="55.615234"/>
       <use xlink:href="#ArialMT-35" x="83.398438"/>
       <use xlink:href="#ArialMT-30" x="139.013672"/>
      </g>
     </g>
    </g>
    <g id="ytick_4">
     <g id="line2d_10">
      <g>
       <use xlink:href="#m0c5b2b2884" x="33.97875" y="39.579322" style="stroke: #000000; stroke-width: 0.8"/>
      </g>
     </g>
     <g id="text_11">
      <!-- 0.75 -->
      <g transform="translate(11.41 42.442447) scale(0.08 -0.08)">
       <defs>
        <path id="ArialMT-37" d="M 303 3981 
L 303 4522 
L 3269 4522 
L 3269 4084 
Q 2831 3619 2401 2847 
Q 1972 2075 1738 1259 
Q 1569 684 1522 0 
L 944 0 
Q 953 541 1156 1306 
Q 1359 2072 1739 2783 
Q 2119 3494 2547 3981 
L 303 3981 
z
" transform="scale(0.015625)"/>
       </defs>
       <use xlink:href="#ArialMT-30"/>
       <use xlink:href="#ArialMT-2e" x="55.615234"/>
       <use xlink:href="#ArialMT-37" x="83.398438"/>
       <use xlink:href="#ArialMT-35" x="139.013672"/>
      </g>
     </g>
    </g>
    <g id="ytick_5">
     <g id="line2d_11">
      <g>
       <use xlink:href="#m0c5b2b2884" x="33.97875" y="17.492429" style="stroke: #000000; stroke-width: 0.8"/>
      </g>
     </g>
     <g id="text_12">
      <!-- 1.00 -->
      <g transform="translate(11.41 20.355554) scale(0.08 -0.08)">
       <use xlink:href="#ArialMT-31"/>
       <use xlink:href="#ArialMT-2e" x="55.615234"/>
       <use xlink:href="#ArialMT-30" x="83.398438"/>
       <use xlink:href="#ArialMT-30" x="139.013672"/>
      </g>
     </g>
    </g>
    <g id="text_13">
     <!-- Decoding Error -->
     <g transform="translate(5.72625 82.33875) rotate(-90) scale(0.08 -0.08)">
      <defs>
       <path id="ArialMT-44" d="M 494 0 
L 494 4581 
L 2072 4581 
Q 2606 4581 2888 4516 
Q 3281 4425 3559 4188 
Q 3922 3881 4101 3404 
Q 4281 2928 4281 2316 
Q 4281 1794 4159 1391 
Q 4038 988 3847 723 
Q 3656 459 3429 307 
Q 3203 156 2883 78 
Q 2563 0 2147 0 
L 494 0 
z
M 1100 541 
L 2078 541 
Q 2531 541 2789 625 
Q 3047 709 3200 863 
Q 3416 1078 3536 1442 
Q 3656 1806 3656 2325 
Q 3656 3044 3420 3430 
Q 3184 3816 2847 3947 
Q 2603 4041 2063 4041 
L 1100 4041 
L 1100 541 
z
" transform="scale(0.015625)"/>
       <path id="ArialMT-64" d="M 2575 0 
L 2575 419 
Q 2259 -75 1647 -75 
Q 1250 -75 917 144 
Q 584 363 401 755 
Q 219 1147 219 1656 
Q 219 2153 384 2558 
Q 550 2963 881 3178 
Q 1213 3394 1622 3394 
Q 1922 3394 2156 3267 
Q 2391 3141 2538 2938 
L 2538 4581 
L 3097 4581 
L 3097 0 
L 2575 0 
z
M 797 1656 
Q 797 1019 1065 703 
Q 1334 388 1700 388 
Q 2069 388 2326 689 
Q 2584 991 2584 1609 
Q 2584 2291 2321 2609 
Q 2059 2928 1675 2928 
Q 1300 2928 1048 2622 
Q 797 2316 797 1656 
z
" transform="scale(0.015625)"/>
       <path id="ArialMT-6e" d="M 422 0 
L 422 3319 
L 928 3319 
L 928 2847 
Q 1294 3394 1984 3394 
Q 2284 3394 2536 3286 
Q 2788 3178 2913 3003 
Q 3038 2828 3088 2588 
Q 3119 2431 3119 2041 
L 3119 0 
L 2556 0 
L 2556 2019 
Q 2556 2363 2490 2533 
Q 2425 2703 2258 2804 
Q 2091 2906 1866 2906 
Q 1506 2906 1245 2678 
Q 984 2450 984 1813 
L 984 0 
L 422 0 
z
" transform="scale(0.015625)"/>
       <path id="ArialMT-67" d="M 319 -275 
L 866 -356 
Q 900 -609 1056 -725 
Q 1266 -881 1628 -881 
Q 2019 -881 2231 -725 
Q 2444 -569 2519 -288 
Q 2563 -116 2559 434 
Q 2191 0 1641 0 
Q 956 0 581 494 
Q 206 988 206 1678 
Q 206 2153 378 2554 
Q 550 2956 876 3175 
Q 1203 3394 1644 3394 
Q 2231 3394 2613 2919 
L 2613 3319 
L 3131 3319 
L 3131 450 
Q 3131 -325 2973 -648 
Q 2816 -972 2473 -1159 
Q 2131 -1347 1631 -1347 
Q 1038 -1347 672 -1080 
Q 306 -813 319 -275 
z
M 784 1719 
Q 784 1066 1043 766 
Q 1303 466 1694 466 
Q 2081 466 2343 764 
Q 2606 1063 2606 1700 
Q 2606 2309 2336 2618 
Q 2066 2928 1684 2928 
Q 1309 2928 1046 2623 
Q 784 2319 784 1719 
z
" transform="scale(0.015625)"/>
       <path id="ArialMT-45" d="M 506 0 
L 506 4581 
L 3819 4581 
L 3819 4041 
L 1113 4041 
L 1113 2638 
L 3647 2638 
L 3647 2100 
L 1113 2100 
L 1113 541 
L 3925 541 
L 3925 0 
L 506 0 
z
" transform="scale(0.015625)"/>
      </defs>
      <use xlink:href="#ArialMT-44"/>
      <use xlink:href="#ArialMT-65" x="72.216797"/>
      <use xlink:href="#ArialMT-63" x="127.832031"/>
      <use xlink:href="#ArialMT-6f" x="177.832031"/>
      <use xlink:href="#ArialMT-64" x="233.447266"/>
      <use xlink:href="#ArialMT-69" x="289.0625"/>
      <use xlink:href="#ArialMT-6e" x="311.279297"/>
      <use xlink:href="#ArialMT-67" x="366.894531"/>
      <use xlink:href="#ArialMT-20" x="422.509766"/>
      <use xlink:href="#ArialMT-45" x="450.292969"/>
      <use xlink:href="#ArialMT-72" x="516.992188"/>
      <use xlink:href="#ArialMT-72" x="550.292969"/>
      <use xlink:href="#ArialMT-6f" x="583.59375"/>
      <use xlink:href="#ArialMT-72" x="639.208984"/>
     </g>
    </g>
   </g>
   <g id="line2d_12">
    <path d="M 42.856023 105.84 
L 44.649411 104.010733 
L 46.4428 99.401245 
L 48.236188 96.679576 
L 50.029576 94.198063 
L 51.822965 92.384583 
L 53.616353 90.476267 
L 55.409742 88.615305 
L 57.20313 86.781965 
L 58.996519 85.504846 
L 60.789907 83.795527 
L 62.583295 81.302809 
L 64.376684 80.100124 
L 66.170072 78.175718 
L 67.963461 77.063296 
L 69.756849 75.4886 
L 71.550238 72.998597 
L 73.343626 72.153463 
L 75.137014 71.185133 
L 76.930403 70.516945 
L 78.723791 69.221462 
L 80.51718 67.735836 
L 82.310568 66.462943 
L 84.103957 64.560233 
L 85.897345 63.08644 
L 87.690733 61.102102 
L 89.484122 60.901255 
L 91.27751 59.132957 
L 93.070899 58.453858 
L 94.864287 58.07578 
L 96.657676 56.684207 
L 98.451064 54.689916 
L 100.244452 54.764266 
L 102.037841 53.406789 
L 103.831229 52.419365 
L 105.624618 52.325442 
L 107.418006 50.134448 
L 109.211395 49.887129 
L 111.004783 49.508683 
L 112.798171 47.288853 
L 114.59156 46.947668 
L 116.384948 46.3168 
L 118.178337 45.103457 
L 119.971725 43.799951 
L 121.765114 41.630589 
L 123.558502 40.729368 
L 125.35189 39.973318 
L 127.145279 38.096163 
L 128.938667 38.215042 
L 130.732056 37.701282 
L 132.525444 37.589887 
L 134.318833 36.673273 
L 136.112221 34.268783 
L 137.90561 33.731027 
L 139.698998 32.704487 
L 141.492386 32.786804 
L 143.285775 32.088458 
L 145.079163 28.883511 
L 146.872552 28.889366 
L 148.66594 27.283412 
L 150.459329 26.365356 
L 152.252717 26.096736 
L 154.046105 25.66801 
L 155.839494 24.219796 
L 157.632882 23.471508 
L 159.426271 22.490772 
L 161.219659 22.378623 
L 163.013048 22.86876 
L 164.806436 21.630141 
L 166.599824 22.00281 
L 168.393213 21.430888 
L 170.186601 21.533432 
L 171.97999 21.060215 
L 173.773378 19.85663 
L 175.566767 18.728816 
L 177.360155 18.05542 
L 179.153543 16.948185 
L 180.946932 16.277433 
L 182.74032 15.710724 
L 184.533709 15.901403 
L 186.327097 15.372578 
L 188.120486 15.148934 
L 189.913874 13.519362 
L 191.707262 12.861153 
L 193.500651 11.700164 
L 195.294039 11.131591 
L 197.087428 10.577015 
L 198.880816 11.058816 
L 200.674205 10.707031 
L 202.467593 9.787801 
L 204.260981 9.249886 
L 206.05437 7.978123 
L 207.847758 6.770689 
L 209.641147 6.56973 
L 211.434535 5.04 
L 213.227924 5.408962 
L 215.021312 5.184497 
L 216.8147 5.078589 
L 218.608089 5.367772 
L 220.401477 5.161211 
" clip-path="url(#p6e42843f14)" style="fill: none; stroke: #46327e; stroke-opacity: 0.5; stroke-width: 2; stroke-linecap: square"/>
   </g>
   <g id="line2d_13">
    <path d="M 42.856023 105.84 
L 44.649411 103.389327 
L 46.4428 102.88817 
L 48.236188 102.194971 
L 50.029576 101.445639 
L 51.822965 100.96164 
L 53.616353 100.548661 
L 55.409742 100.275943 
L 57.20313 99.834886 
L 58.996519 99.141424 
L 60.789907 98.477304 
L 62.583295 97.94732 
L 64.376684 97.330331 
L 66.170072 96.714456 
L 67.963461 96.012722 
L 69.756849 95.258727 
L 71.550238 94.664719 
L 73.343626 94.023539 
L 75.137014 93.226578 
L 76.930403 92.564096 
L 78.723791 91.756129 
L 80.51718 90.58422 
L 82.310568 89.804425 
L 84.103957 89.129014 
L 85.897345 88.369822 
L 87.690733 87.598798 
L 89.484122 86.838699 
L 91.27751 85.817732 
L 93.070899 84.784273 
L 94.864287 83.844992 
L 96.657676 83.198837 
L 98.451064 82.374551 
L 100.244452 81.299691 
L 102.037841 80.742872 
L 103.831229 79.770377 
L 105.624618 79.205412 
L 107.418006 78.436455 
L 109.211395 78.074428 
L 111.004783 77.392477 
L 112.798171 76.747762 
L 114.59156 76.238468 
L 116.384948 76.075277 
L 118.178337 75.439685 
L 119.971725 74.657237 
L 121.765114 73.981893 
L 123.558502 72.920635 
L 125.35189 72.684521 
L 127.145279 71.962679 
L 128.938667 71.288045 
L 130.732056 70.927461 
L 132.525444 70.412527 
L 134.318833 69.983291 
L 136.112221 69.764592 
L 137.90561 69.284861 
L 139.698998 68.726862 
L 141.492386 67.764604 
L 143.285775 67.05987 
L 145.079163 66.741729 
L 146.872552 66.028268 
L 148.66594 65.360796 
L 150.459329 65.277412 
L 152.252717 65.177376 
L 154.046105 64.839946 
L 155.839494 64.170394 
L 157.632882 63.666066 
L 159.426271 62.688552 
L 161.219659 62.803225 
L 163.013048 62.06524 
L 164.806436 61.457357 
L 166.599824 61.592086 
L 168.393213 61.261344 
L 170.186601 61.114145 
L 171.97999 61.523434 
L 173.773378 60.869143 
L 175.566767 60.387658 
L 177.360155 60.43898 
L 179.153543 60.145768 
L 180.946932 59.82431 
L 182.74032 59.312762 
L 184.533709 58.927175 
L 186.327097 58.427449 
L 188.120486 58.484958 
L 189.913874 57.99796 
L 191.707262 57.760941 
L 193.500651 57.63359 
L 195.294039 58.251188 
L 197.087428 56.955202 
L 198.880816 57.063638 
L 200.674205 56.824101 
L 202.467593 56.371748 
L 204.260981 55.458457 
L 206.05437 55.004592 
L 207.847758 55.211548 
L 209.641147 54.729916 
L 211.434535 54.112286 
L 213.227924 53.341534 
L 215.021312 53.052935 
L 216.8147 53.102872 
L 218.608089 53.253135 
L 220.401477 52.900629 
" clip-path="url(#p6e42843f14)" style="fill: none; stroke: #365c8d; stroke-opacity: 0.5; stroke-width: 2; stroke-linecap: square"/>
   </g>
   <g id="line2d_14">
    <path d="M 42.856023 105.84 
L 44.649411 103.562308 
L 46.4428 102.740668 
L 48.236188 102.137897 
L 50.029576 101.696742 
L 51.822965 101.257674 
L 53.616353 100.923726 
L 55.409742 100.433218 
L 57.20313 100.190459 
L 58.996519 99.932387 
L 60.789907 99.580053 
L 62.583295 99.315866 
L 64.376684 99.036151 
L 66.170072 98.782955 
L 67.963461 98.540575 
L 69.756849 98.211288 
L 71.550238 97.889393 
L 73.343626 97.714968 
L 75.137014 97.358316 
L 76.930403 97.201345 
L 78.723791 97.026156 
L 80.51718 96.812501 
L 82.310568 96.892252 
L 84.103957 96.726351 
L 85.897345 96.41375 
L 87.690733 96.187324 
L 89.484122 95.85414 
L 91.27751 95.353623 
L 93.070899 95.236728 
L 94.864287 95.006892 
L 96.657676 94.77772 
L 98.451064 94.377583 
L 100.244452 94.116072 
L 102.037841 93.964793 
L 103.831229 93.68359 
L 105.624618 93.441415 
L 107.418006 93.151324 
L 109.211395 92.936373 
L 111.004783 92.532806 
L 112.798171 92.586886 
L 114.59156 92.241828 
L 116.384948 92.176516 
L 118.178337 91.92218 
L 119.971725 91.732846 
L 121.765114 91.631498 
L 123.558502 91.348584 
L 125.35189 91.275687 
L 127.145279 91.22208 
L 128.938667 91.419479 
L 130.732056 91.191996 
L 132.525444 90.986695 
L 134.318833 90.764126 
L 136.112221 90.474408 
L 137.90561 90.124656 
L 139.698998 89.935511 
L 141.492386 89.825628 
L 143.285775 89.584643 
L 145.079163 89.610744 
L 146.872552 89.210128 
L 148.66594 89.006027 
L 150.459329 88.845273 
L 152.252717 88.753843 
L 154.046105 88.642779 
L 155.839494 88.615609 
L 157.632882 88.683659 
L 159.426271 88.494699 
L 161.219659 88.318712 
L 163.013048 87.973417 
L 164.806436 87.699525 
L 166.599824 87.52074 
L 168.393213 87.470701 
L 170.186601 87.241816 
L 171.97999 87.205101 
L 173.773378 87.208261 
L 175.566767 86.924811 
L 177.360155 87.00746 
L 179.153543 87.078125 
L 180.946932 86.838263 
L 182.74032 86.665185 
L 184.533709 86.674374 
L 186.327097 86.552432 
L 188.120486 86.260849 
L 189.913874 86.095222 
L 191.707262 85.994028 
L 193.500651 85.671363 
L 195.294039 85.708182 
L 197.087428 85.687232 
L 198.880816 85.506233 
L 200.674205 85.332816 
L 202.467593 85.137453 
L 204.260981 85.035531 
L 206.05437 84.739627 
L 207.847758 84.62709 
L 209.641147 84.545619 
L 211.434535 84.237841 
L 213.227924 84.014661 
L 215.021312 83.770243 
L 216.8147 83.444903 
L 218.608089 83.391422 
L 220.401477 83.200643 
" clip-path="url(#p6e42843f14)" style="fill: none; stroke: #277f8e; stroke-opacity: 0.5; stroke-width: 2; stroke-linecap: square"/>
   </g>
   <g id="line2d_15">
    <path d="M 42.856023 105.84 
L 44.649411 103.819147 
L 46.4428 102.795478 
L 48.236188 102.325539 
L 50.029576 101.849066 
L 51.822965 101.543753 
L 53.616353 101.15838 
L 55.409742 100.727863 
L 57.20313 100.280392 
L 58.996519 99.928232 
L 60.789907 99.459412 
L 62.583295 99.092282 
L 64.376684 98.55742 
L 66.170072 98.188447 
L 67.963461 97.735633 
L 69.756849 97.302896 
L 71.550238 96.936286 
L 73.343626 96.615234 
L 75.137014 96.385702 
L 76.930403 95.842782 
L 78.723791 95.649023 
L 80.51718 95.347351 
L 82.310568 94.78849 
L 84.103957 94.729837 
L 85.897345 94.317246 
L 87.690733 93.976059 
L 89.484122 93.743384 
L 91.27751 93.41933 
L 93.070899 93.133365 
L 94.864287 92.832032 
L 96.657676 92.664038 
L 98.451064 92.376554 
L 100.244452 92.053064 
L 102.037841 91.977843 
L 103.831229 91.770017 
L 105.624618 91.510653 
L 107.418006 91.599481 
L 109.211395 91.407636 
L 111.004783 91.314218 
L 112.798171 90.889863 
L 114.59156 90.523126 
L 116.384948 90.324885 
L 118.178337 90.171612 
L 119.971725 89.91307 
L 121.765114 89.546721 
L 123.558502 89.404083 
L 125.35189 88.97937 
L 127.145279 88.878539 
L 128.938667 88.606782 
L 130.732056 88.162768 
L 132.525444 87.89455 
L 134.318833 87.859313 
L 136.112221 87.338031 
L 137.90561 86.931877 
L 139.698998 86.618308 
L 141.492386 86.260235 
L 143.285775 86.176976 
L 145.079163 86.161334 
L 146.872552 85.752474 
L 148.66594 85.301742 
L 150.459329 85.146342 
L 152.252717 84.851656 
L 154.046105 84.634082 
L 155.839494 84.535724 
L 157.632882 84.384136 
L 159.426271 84.207836 
L 161.219659 84.188743 
L 163.013048 84.055063 
L 164.806436 83.837387 
L 166.599824 83.771366 
L 168.393213 83.487331 
L 170.186601 83.246989 
L 171.97999 83.186183 
L 173.773378 82.685122 
L 175.566767 82.580006 
L 177.360155 82.164283 
L 179.153543 82.126942 
L 180.946932 81.877777 
L 182.74032 81.95808 
L 184.533709 81.711755 
L 186.327097 81.601777 
L 188.120486 81.362546 
L 189.913874 81.285974 
L 191.707262 81.166113 
L 193.500651 81.053712 
L 195.294039 81.045711 
L 197.087428 80.81787 
L 198.880816 80.583265 
L 200.674205 80.50168 
L 202.467593 80.384037 
L 204.260981 80.608694 
L 206.05437 80.339358 
L 207.847758 80.552646 
L 209.641147 80.376648 
L 211.434535 80.371451 
L 213.227924 79.961588 
L 215.021312 79.90272 
L 216.8147 79.620232 
L 218.608089 79.746636 
L 220.401477 79.36637 
" clip-path="url(#p6e42843f14)" style="fill: none; stroke: #1fa187; stroke-opacity: 0.5; stroke-width: 2; stroke-linecap: square"/>
   </g>
   <g id="line2d_16">
    <path d="M 42.856023 105.84 
L 44.649411 103.922565 
L 46.4428 102.70397 
L 48.236188 102.219919 
L 50.029576 101.608803 
L 51.822965 100.957307 
L 53.616353 100.497798 
L 55.409742 99.845679 
L 57.20313 99.341981 
L 58.996519 98.742445 
L 60.789907 98.178455 
L 62.583295 97.680021 
L 64.376684 97.154575 
L 66.170072 96.735524 
L 67.963461 96.063468 
L 69.756849 95.636743 
L 71.550238 95.026996 
L 73.343626 94.667222 
L 75.137014 94.152585 
L 76.930403 93.691654 
L 78.723791 93.095309 
L 80.51718 92.691496 
L 82.310568 92.229238 
L 84.103957 91.823612 
L 85.897345 91.285287 
L 87.690733 90.561567 
L 89.484122 90.319914 
L 91.27751 90.030391 
L 93.070899 89.606958 
L 94.864287 89.126417 
L 96.657676 88.736442 
L 98.451064 88.202024 
L 100.244452 87.819858 
L 102.037841 87.283382 
L 103.831229 86.721488 
L 105.624618 86.414398 
L 107.418006 85.982919 
L 109.211395 85.638135 
L 111.004783 85.249286 
L 112.798171 84.628038 
L 114.59156 84.160249 
L 116.384948 83.870701 
L 118.178337 83.673684 
L 119.971725 83.132007 
L 121.765114 82.831623 
L 123.558502 82.316937 
L 125.35189 81.777295 
L 127.145279 81.276885 
L 128.938667 81.358454 
L 130.732056 80.991551 
L 132.525444 80.613878 
L 134.318833 80.304131 
L 136.112221 79.893608 
L 137.90561 79.70697 
L 139.698998 79.465464 
L 141.492386 78.970041 
L 143.285775 78.700762 
L 145.079163 78.152361 
L 146.872552 77.451487 
L 148.66594 77.341843 
L 150.459329 76.936561 
L 152.252717 76.723718 
L 154.046105 76.554013 
L 155.839494 76.334039 
L 157.632882 76.149174 
L 159.426271 75.904935 
L 161.219659 75.640749 
L 163.013048 75.249817 
L 164.806436 74.910107 
L 166.599824 74.51996 
L 168.393213 74.623999 
L 170.186601 74.419275 
L 171.97999 74.011024 
L 173.773378 73.58501 
L 175.566767 73.642857 
L 177.360155 73.222599 
L 179.153543 72.852931 
L 180.946932 72.882112 
L 182.74032 72.599798 
L 184.533709 72.546765 
L 186.327097 72.116194 
L 188.120486 71.881497 
L 189.913874 71.813932 
L 191.707262 71.139051 
L 193.500651 71.059188 
L 195.294039 70.605534 
L 197.087428 70.647261 
L 198.880816 70.474215 
L 200.674205 70.270413 
L 202.467593 69.637783 
L 204.260981 69.76981 
L 206.05437 69.799645 
L 207.847758 70.051116 
L 209.641147 69.599173 
L 211.434535 69.304798 
L 213.227924 68.895288 
L 215.021312 68.313145 
L 216.8147 68.247695 
L 218.608089 67.871918 
L 220.401477 67.482408 
" clip-path="url(#p6e42843f14)" style="fill: none; stroke: #4ac16d; stroke-opacity: 0.5; stroke-width: 2; stroke-linecap: square"/>
   </g>
   <g id="patch_3">
    <path d="M 33.97875 110.88 
L 33.97875 0 
" style="fill: none; stroke: #000000; stroke-width: 0.8; stroke-linejoin: miter; stroke-linecap: square"/>
   </g>
   <g id="patch_4">
    <path d="M 33.97875 110.88 
L 229.27875 110.88 
" style="fill: none; stroke: #000000; stroke-width: 0.8; stroke-linejoin: miter; stroke-linecap: square"/>
   </g>
   <g id="legend_1">
    <g id="line2d_17">
     <path d="M 41.17875 10.12625 
L 49.17875 10.12625 
L 57.17875 10.12625 
" style="fill: none; stroke: #46327e; stroke-opacity: 0.5; stroke-width: 2; stroke-linecap: square"/>
    </g>
    <g id="text_14">
     <!-- 0 -->
     <g transform="translate(63.57875 12.92625) scale(0.08 -0.08)">
      <use xlink:href="#ArialMT-30"/>
     </g>
    </g>
    <g id="line2d_18">
     <path d="M 41.17875 21.4425 
L 49.17875 21.4425 
L 57.17875 21.4425 
" style="fill: none; stroke: #365c8d; stroke-opacity: 0.5; stroke-width: 2; stroke-linecap: square"/>
    </g>
    <g id="text_15">
     <!-- 100 -->
     <g transform="translate(63.57875 24.2425) scale(0.08 -0.08)">
      <use xlink:href="#ArialMT-31"/>
      <use xlink:href="#ArialMT-30" x="55.615234"/>
      <use xlink:href="#ArialMT-30" x="111.230469"/>
     </g>
    </g>
    <g id="line2d_19">
     <path d="M 41.17875 32.75875 
L 49.17875 32.75875 
L 57.17875 32.75875 
" style="fill: none; stroke: #277f8e; stroke-opacity: 0.5; stroke-width: 2; stroke-linecap: square"/>
    </g>
    <g id="text_16">
     <!-- 1000 -->
     <g transform="translate(63.57875 35.55875) scale(0.08 -0.08)">
      <use xlink:href="#ArialMT-31"/>
      <use xlink:href="#ArialMT-30" x="55.615234"/>
      <use xlink:href="#ArialMT-30" x="111.230469"/>
      <use xlink:href="#ArialMT-30" x="166.845703"/>
     </g>
    </g>
    <g id="line2d_20">
     <path d="M 41.17875 44.075 
L 49.17875 44.075 
L 57.17875 44.075 
" style="fill: none; stroke: #1fa187; stroke-opacity: 0.5; stroke-width: 2; stroke-linecap: square"/>
    </g>
    <g id="text_17">
     <!-- 10000 -->
     <g transform="translate(63.57875 46.875) scale(0.08 -0.08)">
      <use xlink:href="#ArialMT-31"/>
      <use xlink:href="#ArialMT-30" x="55.615234"/>
      <use xlink:href="#ArialMT-30" x="111.230469"/>
      <use xlink:href="#ArialMT-30" x="166.845703"/>
      <use xlink:href="#ArialMT-30" x="222.460938"/>
     </g>
    </g>
    <g id="line2d_21">
     <path d="M 41.17875 55.39125 
L 49.17875 55.39125 
L 57.17875 55.39125 
" style="fill: none; stroke: #4ac16d; stroke-opacity: 0.5; stroke-width: 2; stroke-linecap: square"/>
    </g>
    <g id="text_18">
     <!-- 49999 -->
     <g transform="translate(63.57875 58.19125) scale(0.08 -0.08)">
      <defs>
       <path id="ArialMT-39" d="M 350 1059 
L 891 1109 
Q 959 728 1153 556 
Q 1347 384 1650 384 
Q 1909 384 2104 503 
Q 2300 622 2425 820 
Q 2550 1019 2634 1356 
Q 2719 1694 2719 2044 
Q 2719 2081 2716 2156 
Q 2547 1888 2255 1720 
Q 1963 1553 1622 1553 
Q 1053 1553 659 1965 
Q 266 2378 266 3053 
Q 266 3750 677 4175 
Q 1088 4600 1706 4600 
Q 2153 4600 2523 4359 
Q 2894 4119 3086 3673 
Q 3278 3228 3278 2384 
Q 3278 1506 3087 986 
Q 2897 466 2520 194 
Q 2144 -78 1638 -78 
Q 1100 -78 759 220 
Q 419 519 350 1059 
z
M 2653 3081 
Q 2653 3566 2395 3850 
Q 2138 4134 1775 4134 
Q 1400 4134 1122 3828 
Q 844 3522 844 3034 
Q 844 2597 1108 2323 
Q 1372 2050 1759 2050 
Q 2150 2050 2401 2323 
Q 2653 2597 2653 3081 
z
" transform="scale(0.015625)"/>
      </defs>
      <use xlink:href="#ArialMT-34"/>
      <use xlink:href="#ArialMT-39" x="55.615234"/>
      <use xlink:href="#ArialMT-39" x="111.230469"/>
      <use xlink:href="#ArialMT-39" x="166.845703"/>
      <use xlink:href="#ArialMT-39" x="222.460938"/>
     </g>
    </g>
   </g>
  </g>
 </g>
 <defs>
  <clipPath id="p6e42843f14">
   <rect x="33.97875" y="0" width="195.3" height="110.88"/>
  </clipPath>
 </defs>
</svg>
